999
dxfrw 0.6.3
  0
SECTION
  2
HEADER
  9
$ACADVER
  1
AC1021
  9
$DWGCODEPAGE
  3
ANSI_1252
  9
$INSBASE
 10
0
 20
0
 30
0
  9
$EXTMIN
 10
-0.5
 20
0.25
 30
0
  9
$EXTMAX
 10
419.5
 20
297.25
 30
0
  9
$LIMMIN
 10
0
 20
0
  9
$LIMMAX
 10
420
 20
297
  9
$ORTHOMODE
 70
    0
  9
$REGENMODE
 70
    1
  9
$FILLMODE
 70
    1
  9
$QTEXTMODE
 70
    0
  9
$MIRRTEXT
 70
    0
  9
$LTSCALE
 40
1
  9
$ATTMODE
 70
    0
  9
$TEXTSIZE
 40
2.5
  9
$TRACEWID
 40
15.68
  9
$TEXTSTYLE
  7
STANDARD
  9
$CLAYER
  8
labels
  9
$CELTYPE
  6
BYLAYER
  9
$CECOLOR
 62
  256
  9
$CELTSCALE
 40
1
  9
$DISPSILH
 70
    0
  9
$DIMSCALE
 40
1
  9
$DIMASZ
 40
2.5
  9
$DIMEXO
 40
0.625
  9
$DIMDLI
 40
3.75
  9
$DIMRND
 40
0
  9
$DIMDLE
 40
0
  9
$DIMEXE
 40
1.25
  9
$DIMTP
 40
0
  9
$DIMTM
 40
0
  9
$DIMTXT
 40
2.5
  9
$DIMCEN
 40
2.5
  9
$DIMTSZ
 40
0
  9
$DIMTOL
 70
    0
  9
$DIMLIM
 70
    0
  9
$DIMTIH
 70
    0
  9
$DIMTOH
 70
    0
  9
$DIMSE1
 70
    0
  9
$DIMSE2
 70
    0
  9
$DIMTAD
 70
    1
  9
$DIMZIN
 70
    8
  9
$DIMBLK
  1

  9
$DIMASO
 70
    1
  9
$DIMSHO
 70
    1
  9
$DIMPOST
  1

  9
$DIMAPOST
  1

  9
$DIMALT
 70
    0
  9
$DIMALTD
 70
    3
  9
$DIMALTF
 40
0.03937
  9
$DIMLFAC
 40
1
  9
$DIMTOFL
 70
    1
  9
$DIMTVP
 40
0
  9
$DIMTIX
 70
    0
  9
$DIMSOXD
 70
    0
  9
$DIMSAH
 70
    0
  9
$DIMBLK1
  1

  9
$DIMBLK2
  1

  9
$DIMSTYLE
  2
Standard
  9
$DIMCLRD
 70
    0
  9
$DIMCLRE
 70
    0
  9
$DIMCLRT
 70
    0
  9
$DIMTFAC
 40
1
  9
$DIMGAP
 40
0.625
  9
$DIMJUST
 70
    0
  9
$DIMSD1
 70
    0
  9
$DIMSD2
 70
    0
  9
$DIMTOLJ
 70
    0
  9
$DIMTZIN
 70
    8
  9
$DIMALTZ
 70
    0
  9
$DIMALTTZ
 70
    0
  9
$DIMUPT
 70
    0
  9
$DIMDEC
 70
    4
  9
$DIMTDEC
 70
    2
  9
$DIMALTU
 70
    2
  9
$DIMALTTD
 70
    3
  9
$DIMTXSTY
  7
STANDARD
  9
$DIMAUNIT
 70
    0
  9
$DIMADEC
 70
    0
  9
$DIMALTRND
 40
0
  9
$DIMAZIN
 70
    0
  9
$DIMDSEP
 70
   44
  9
$DIMATFIT
 70
    3
  9
$DIMFRAC
 70
    0
  9
$DIMLDRBLK
  1
STANDARD
  9
$DIMLUNIT
 70
    2
  9
$DIMLWD
 70
   -2
  9
$DIMLWE
 70
   -2
  9
$DIMTMOVE
 70
    0
  9
$DIMFXL
 40
1
  9
$DIMFXLON
 70
    0
  9
$DIMJOGANG
 40
0.7854
  9
$DIMTFILL
 70
    0
  9
$DIMTFILLCLR
 70
    0
  9
$DIMARCSYM
 70
    0
  9
$DIMLTYPE
  6

  9
$DIMLTEX1
  6

  9
$DIMLTEX2
  6

  9
$LUNITS
 70
    2
  9
$LUPREC
 70
    4
  9
$SKETCHINC
 40
1
  9
$FILLETRAD
 40
0
  9
$AUNITS
 70
    0
  9
$AUPREC
 70
    2
  9
$MENU
  1
.
  9
$ELEVATION
 40
0
  9
$PELEVATION
 40
0
  9
$THICKNESS
 40
0
  9
$LIMCHECK
 70
    0
  9
$CHAMFERA
 40
0
  9
$CHAMFERB
 40
0
  9
$CHAMFERC
 40
0
  9
$CHAMFERD
 40
0
  9
$SKPOLY
 70
    0
  9
$USRTIMER
 70
    1
  9
$ANGBASE
 50
0
  9
$ANGDIR
 70
    0
  9
$PDMODE
 70
   34
  9
$PDSIZE
 40
0
  9
$PLINEWID
 40
0
  9
$SPLFRAME
 70
    0
  9
$SPLINETYPE
 70
    2
  9
$SPLINESEGS
 70
    8
  9
$HANDSEED
  5
20000
  9
$SURFTAB1
 70
    6
  9
$SURFTAB2
 70
    6
  9
$SURFTYPE
 70
    6
  9
$SURFU
 70
    6
  9
$SURFV
 70
    6
  9
$UCSBASE
  2

  9
$UCSNAME
  2

  9
$UCSORG
 10
0
 20
0
 30
0
  9
$UCSXDIR
 10
1
 20
0
 30
0
  9
$UCSYDIR
 10
0
 20
1
 30
0
  9
$UCSORTHOREF
  2

  9
$UCSORTHOVIEW
 70
    0
  9
$UCSORGTOP
 10
0
 20
0
 30
0
  9
$UCSORGBOTTOM
 10
0
 20
0
 30
0
  9
$UCSORGLEFT
 10
0
 20
0
 30
0
  9
$UCSORGRIGHT
 10
0
 20
0
 30
0
  9
$UCSORGFRONT
 10
0
 20
0
 30
0
  9
$UCSORGBACK
 10
0
 20
0
 30
0
  9
$PUCSBASE
  2

  9
$PUCSNAME
  2

  9
$PUCSORG
 10
0
 20
0
 30
0
  9
$PUCSXDIR
 10
1
 20
0
 30
0
  9
$PUCSYDIR
 10
0
 20
1
 30
0
  9
$PUCSORTHOREF
  2

  9
$PUCSORTHOVIEW
 70
    0
  9
$PUCSORGTOP
 10
0
 20
0
 30
0
  9
$PUCSORGBOTTOM
 10
0
 20
0
 30
0
  9
$PUCSORGLEFT
 10
0
 20
0
 30
0
  9
$PUCSORGRIGHT
 10
0
 20
0
 30
0
  9
$PUCSORGFRONT
 10
0
 20
0
 30
0
  9
$PUCSORGBACK
 10
0
 20
0
 30
0
  9
$USERI1
 70
    0
  9
$USERI2
 70
    0
  9
$USERI3
 70
    0
  9
$USERI4
 70
    0
  9
$USERI5
 70
    0
  9
$USERR1
 40
0
  9
$USERR2
 40
0
  9
$USERR3
 40
0
  9
$USERR4
 40
0
  9
$USERR5
 40
0
  9
$WORLDVIEW
 70
    1
  9
$SHADEDGE
 70
    3
  9
$SHADEDIF
 70
   70
  9
$TILEMODE
 70
    1
  9
$MAXACTVP
 70
   64
  9
$PINSBASE
 10
18.0033670034
 20
12.3442760943
 30
0
  9
$PLIMCHECK
 70
    0
  9
$PEXTMIN
 10
0
 20
0
 30
0
  9
$PEXTMAX
 10
0
 20
0
 30
0
  9
$GRIDMODE
 70
    1
  9
$SNAPSTYLE
 70
    0
  9
$PLIMMIN
 10
0
 20
0
  9
$PLIMMAX
 10
297
 20
210
  9
$UNITMODE
 70
    0
  9
$VISRETAIN
 70
    1
  9
$PLINEGEN
 70
    0
  9
$PSLTSCALE
 70
    1
  9
$TREEDEPTH
 70
 3020
  9
$CMLSTYLE
  2
Standard
  9
$CMLJUST
 70
    0
  9
$CMLSCALE
 40
20
  9
$PROXYGRAPHICS
 70
    1
  9
$MEASUREMENT
 70
    1
  9
$CELWEIGHT
370
   -1
  9
$ENDCAPS
280
    0
  9
$JOINSTYLE
280
    0
  9
$LWDISPLAY
290
    0
  9
$INSUNITS
 70
    0
  9
$HYPERLINKBASE
  1

  9
$STYLESHEET
  1

  9
$XEDIT
290
    1
  9
$CEPSNTYPE
380
    0
  9
$PSTYLEMODE
290
    1
  9
$EXTNAMES
290
    1
  9
$PSVPSCALE
 40
0.622895622896
  9
$OLESTARTUP
290
    0
  9
$SORTENTS
280
  127
  9
$INDEXCTL
280
    0
  9
$HIDETEXT
280
    1
  9
$XCLIPFRAME
290
    0
  9
$HALOGAP
280
    0
  9
$OBSCOLOR
 70
  257
  9
$OBSLTYPE
280
    0
  9
$INTERSECTIONDISPLAY
280
    0
  9
$INTERSECTIONCOLOR
 70
  257
  9
$DIMASSOC
280
    1
  9
$PROJECTNAME
  1

  9
$CAMERADISPLAY
290
    0
  9
$LENSLENGTH
 40
50
  9
$CAMERAHEIGHT
 40
0
  9
$STEPSPERSEC
 40
2
  9
$STEPSIZE
 40
50
  9
$3DDWFPREC
 40
2
  9
$PSOLWIDTH
 40
5
  9
$PSOLHEIGHT
 40
80
  9
$LOFTANG1
 40
1.570796326794897
  9
$LOFTANG2
 40
1.570796326794897
  9
$LOFTMAG1
 40
0
  9
$LOFTMAG2
 40
0
  9
$LOFTPARAM
 70
    7
  9
$LOFTNORMALS
280
    1
  9
$LATITUDE
 40
1
  9
$LONGITUDE
 40
1
  9
$NORTHDIRECTION
 40
0
  9
$TIMEZONE
 70
-8000
  9
$LIGHTGLYPHDISPLAY
280
    1
  9
$TILEMODELIGHTSYNCH
280
    1
  9
$SOLIDHIST
280
    1
  9
$SHOWHIST
280
    1
  9
$DWFFRAME
280
    2
  9
$DGNFRAME
280
    0
  9
$REALWORLDSCALE
290
    1
  9
$INTERFERECOLOR
 62
    1
  9
$CSHADOW
280
    0
  9
$SHADOWPLANELOCATION
 40
0
  0
ENDSEC
  0
SECTION
  2
CLASSES
  0
ENDSEC
  0
SECTION
  2
TABLES
  0
TABLE
  2
VPORT
  5
8
330
0
100
AcDbSymbolTable
 70
    1
  0
VPORT
  5
31
330
2
100
AcDbSymbolTableRecord
100
AcDbViewportTableRecord
  2
*ACTIVE
 70
    0
 10
0
 20
0
 11
1
 21
1
 12
232.6792899408284
 22
150.2573964497041
 13
0
 23
0
 14
10
 24
10
 15
10
 25
10
 16
0
 26
0
 36
1
 17
0
 27
0
 37
0
 40
304.0295857988166
 41
1.680924855491329
 42
50
 43
0
 44
0
 50
0
 51
0
 71
    0
 72
  100
 73
    1
 74
    3
 75
    0
 76
    1
 77
    0
 78
    0
281
    0
 65
    1
110
0
120
0
130
0
111
1
121
0
131
0
112
0
122
1
132
0
 79
    0
146
0
348
10020
 60
    7
 61
    5
292
1
282
    1
141
0
142
0
 63
  250
421
3358443
  0
ENDTAB
  0
TABLE
  2
LTYPE
  5
5
330
0
100
AcDbSymbolTable
 70
    4
  0
LTYPE
  5
14
330
5
100
AcDbSymbolTableRecord
100
AcDbLinetypeTableRecord
  2
ByBlock
 70
    0
  3

 72
   65
 73
    0
 40
0
  0
LTYPE
  5
15
330
5
100
AcDbSymbolTableRecord
100
AcDbLinetypeTableRecord
  2
ByLayer
 70
    0
  3

 72
   65
 73
    0
 40
0
  0
LTYPE
  5
16
330
5
100
AcDbSymbolTableRecord
100
AcDbLinetypeTableRecord
  2
Continuous
 70
    0
  3
Solid line
 72
   65
 73
    0
 40
0
  0
LTYPE
  5
32
330
5
100
AcDbSymbolTableRecord
100
AcDbLinetypeTableRecord
  2
DOT
 70
    0
  3
Dot . . . . . . . . . . . . . . . . . . . . . .
 72
   65
 73
    2
 40
6.35
 49
0
 74
    0
 49
-6.35
 74
    0
  0
LTYPE
  5
33
330
5
100
AcDbSymbolTableRecord
100
AcDbLinetypeTableRecord
  2
DOTTINY
 70
    0
  3
Dot (.15x) .....................................
 72
   65
 73
    2
 40
0.9525
 49
0
 74
    0
 49
-0.9525
 74
    0
  0
LTYPE
  5
34
330
5
100
AcDbSymbolTableRecord
100
AcDbLinetypeTableRecord
  2
DOT2
 70
    0
  3
Dot (.5x) .....................................
 72
   65
 73
    2
 40
3.175
 49
0
 74
    0
 49
-3.175
 74
    0
  0
LTYPE
  5
35
330
5
100
AcDbSymbolTableRecord
100
AcDbLinetypeTableRecord
  2
DOTX2
 70
    0
  3
Dot (2x) .  .  .  .  .  .  .  .  .  .  .  .  .
 72
   65
 73
    2
 40
12.7
 49
0
 74
    0
 49
-12.7
 74
    0
  0
LTYPE
  5
36
330
5
100
AcDbSymbolTableRecord
100
AcDbLinetypeTableRecord
  2
DASHED
 70
    0
  3
Dashed _ _ _ _ _ _ _ _ _ _ _ _ _ _ _ _ _
 72
   65
 73
    2
 40
19.05
 49
12.7
 74
    0
 49
-6.35
 74
    0
  0
LTYPE
  5
37
330
5
100
AcDbSymbolTableRecord
100
AcDbLinetypeTableRecord
  2
DASHEDTINY
 70
    0
  3
Dashed (.15x) _ _ _ _ _ _ _ _ _ _ _ _ _ _ _ _ _
 72
   65
 73
    2
 40
2.8575
 49
1.905
 74
    0
 49
-0.9525
 74
    0
  0
LTYPE
  5
38
330
5
100
AcDbSymbolTableRecord
100
AcDbLinetypeTableRecord
  2
DASHED2
 70
    0
  3
Dashed (.5x) _ _ _ _ _ _ _ _ _ _ _ _ _ _ _ _ _
 72
   65
 73
    2
 40
9.524999999999999
 49
6.35
 74
    0
 49
-3.175
 74
    0
  0
LTYPE
  5
39
330
5
100
AcDbSymbolTableRecord
100
AcDbLinetypeTableRecord
  2
DASHEDX2
 70
    0
  3
Dashed (2x) ____  ____  ____  ____  ____  ___
 72
   65
 73
    2
 40
38.09999999999999
 49
25.4
 74
    0
 49
-12.7
 74
    0
  0
LTYPE
  5
3A
330
5
100
AcDbSymbolTableRecord
100
AcDbLinetypeTableRecord
  2
DASHDOT
 70
    0
  3
Dash dot __ . __ . __ . __ . __ . __ . __ . __
 72
   65
 73
    4
 40
25.4
 49
12.7
 74
    0
 49
-6.35
 74
    0
 49
0
 74
    0
 49
-6.35
 74
    0
  0
LTYPE
  5
3B
330
5
100
AcDbSymbolTableRecord
100
AcDbLinetypeTableRecord
  2
DASHDOTTINY
 70
    0
  3
Dash dot (.15x) _._._._._._._._._._._._._._._.
 72
   65
 73
    4
 40
3.81
 49
1.905
 74
    0
 49
-0.9525
 74
    0
 49
0
 74
    0
 49
-0.9525
 74
    0
  0
LTYPE
  5
3C
330
5
100
AcDbSymbolTableRecord
100
AcDbLinetypeTableRecord
  2
DASHDOT2
 70
    0
  3
Dash dot (.5x) _._._._._._._._._._._._._._._.
 72
   65
 73
    4
 40
12.7
 49
6.35
 74
    0
 49
-3.175
 74
    0
 49
0
 74
    0
 49
-3.175
 74
    0
  0
LTYPE
  5
3D
330
5
100
AcDbSymbolTableRecord
100
AcDbLinetypeTableRecord
  2
DASHDOTX2
 70
    0
  3
Dash dot (2x) ____  .  ____  .  ____  .  ___
 72
   65
 73
    4
 40
50.8
 49
25.4
 74
    0
 49
-12.7
 74
    0
 49
0
 74
    0
 49
-12.7
 74
    0
  0
LTYPE
  5
3E
330
5
100
AcDbSymbolTableRecord
100
AcDbLinetypeTableRecord
  2
DIVIDE
 70
    0
  3
Divide ____ . . ____ . . ____ . . ____ . . ____
 72
   65
 73
    6
 40
31.75
 49
12.7
 74
    0
 49
-6.35
 74
    0
 49
0
 74
    0
 49
-6.35
 74
    0
 49
0
 74
    0
 49
-6.35
 74
    0
  0
LTYPE
  5
3F
330
5
100
AcDbSymbolTableRecord
100
AcDbLinetypeTableRecord
  2
DIVIDETINY
 70
    0
  3
Divide (.15x) __..__..__..__..__..__..__..__.._
 72
   65
 73
    6
 40
4.7625
 49
1.905
 74
    0
 49
-0.9525
 74
    0
 49
0
 74
    0
 49
-0.9525
 74
    0
 49
0
 74
    0
 49
-0.9525
 74
    0
  0
LTYPE
  5
40
330
5
100
AcDbSymbolTableRecord
100
AcDbLinetypeTableRecord
  2
DIVIDE2
 70
    0
  3
Divide (.5x) __..__..__..__..__..__..__..__.._
 72
   65
 73
    6
 40
15.875
 49
6.35
 74
    0
 49
-3.175
 74
    0
 49
0
 74
    0
 49
-3.175
 74
    0
 49
0
 74
    0
 49
-3.175
 74
    0
  0
LTYPE
  5
41
330
5
100
AcDbSymbolTableRecord
100
AcDbLinetypeTableRecord
  2
DIVIDEX2
 70
    0
  3
Divide (2x) ________  .  .  ________  .  .  _
 72
   65
 73
    6
 40
63.5
 49
25.4
 74
    0
 49
-12.7
 74
    0
 49
0
 74
    0
 49
-12.7
 74
    0
 49
0
 74
    0
 49
-12.7
 74
    0
  0
LTYPE
  5
42
330
5
100
AcDbSymbolTableRecord
100
AcDbLinetypeTableRecord
  2
BORDER
 70
    0
  3
Border __ __ . __ __ . __ __ . __ __ . __ __ .
 72
   65
 73
    6
 40
44.45
 49
12.7
 74
    0
 49
-6.35
 74
    0
 49
12.7
 74
    0
 49
-6.35
 74
    0
 49
0
 74
    0
 49
-6.35
 74
    0
  0
LTYPE
  5
43
330
5
100
AcDbSymbolTableRecord
100
AcDbLinetypeTableRecord
  2
BORDERTINY
 70
    0
  3
Border (.15x) __.__.__.__.__.__.__.__.__.__.__.
 72
   65
 73
    6
 40
6.6675
 49
1.905
 74
    0
 49
-0.9525
 74
    0
 49
1.905
 74
    0
 49
-0.9525
 74
    0
 49
0
 74
    0
 49
-0.9525
 74
    0
  0
LTYPE
  5
44
330
5
100
AcDbSymbolTableRecord
100
AcDbLinetypeTableRecord
  2
BORDER2
 70
    0
  3
Border (.5x) __.__.__.__.__.__.__.__.__.__.__.
 72
   65
 73
    6
 40
22.225
 49
6.35
 74
    0
 49
-3.175
 74
    0
 49
6.35
 74
    0
 49
-3.175
 74
    0
 49
0
 74
    0
 49
-3.175
 74
    0
  0
LTYPE
  5
45
330
5
100
AcDbSymbolTableRecord
100
AcDbLinetypeTableRecord
  2
BORDERX2
 70
    0
  3
Border (2x) ____  ____  .  ____  ____  .  ___
 72
   65
 73
    6
 40
88.89999999999999
 49
25.4
 74
    0
 49
-12.7
 74
    0
 49
25.4
 74
    0
 49
-12.7
 74
    0
 49
0
 74
    0
 49
-12.7
 74
    0
  0
LTYPE
  5
46
330
5
100
AcDbSymbolTableRecord
100
AcDbLinetypeTableRecord
  2
CENTER
 70
    0
  3
Center ____ _ ____ _ ____ _ ____ _ ____ _ ____
 72
   65
 73
    4
 40
50.8
 49
31.75
 74
    0
 49
-6.35
 74
    0
 49
6.35
 74
    0
 49
-6.35
 74
    0
  0
LTYPE
  5
47
330
5
100
AcDbSymbolTableRecord
100
AcDbLinetypeTableRecord
  2
CENTERTINY
 70
    0
  3
Center (.15x) ___ _ ___ _ ___ _ ___ _ ___ _ ___
 72
   65
 73
    4
 40
7.619999999999999
 49
4.7625
 74
    0
 49
-0.9525
 74
    0
 49
0.9525
 74
    0
 49
-0.9525
 74
    0
  0
LTYPE
  5
48
330
5
100
AcDbSymbolTableRecord
100
AcDbLinetypeTableRecord
  2
CENTER2
 70
    0
  3
Center (.5x) ___ _ ___ _ ___ _ ___ _ ___ _ ___
 72
   65
 73
    4
 40
28.575
 49
19.05
 74
    0
 49
-3.175
 74
    0
 49
3.175
 74
    0
 49
-3.175
 74
    0
  0
LTYPE
  5
49
330
5
100
AcDbSymbolTableRecord
100
AcDbLinetypeTableRecord
  2
CENTERX2
 70
    0
  3
Center (2x) ________  __  ________  __  _____
 72
   65
 73
    4
 40
101.6
 49
63.5
 74
    0
 49
-12.7
 74
    0
 49
12.7
 74
    0
 49
-12.7
 74
    0
  0
ENDTAB
  0
TABLE
  2
LAYER
  5
2
330
0
100
AcDbSymbolTable
 70
    1
  0
LAYER
  5
10
330
2
100
AcDbSymbolTableRecord
100
AcDbLayerTableRecord
  2
0
 70
    0
 62
    7
  6
CONTINUOUS
370
   35
390
F
  0
LAYER
  5
4A
330
2
100
AcDbSymbolTableRecord
100
AcDbLayerTableRecord
  2
Contour
 70
    0
 62
    7
  6
CONTINUOUS
370
   -3
390
F
  0
LAYER
  5
4B
330
2
100
AcDbSymbolTableRecord
100
AcDbLayerTableRecord
  2
frame-title
 70
    0
 62
    7
  6
CONTINUOUS
370
   35
390
F
  0
LAYER
  5
4C
330
2
100
AcDbSymbolTableRecord
100
AcDbLayerTableRecord
  2
hatch
 70
    0
 62
  113
  6
CONTINUOUS
370
   25
390
F
  0
LAYER
  5
4D
330
2
100
AcDbSymbolTableRecord
100
AcDbLayerTableRecord
  2
help-lines
 70
    0
 62
    5
  6
CONTINUOUS
370
   25
390
F
  0
LAYER
  5
4E
330
2
100
AcDbSymbolTableRecord
100
AcDbLayerTableRecord
  2
labels
 70
    0
 62
    7
  6
CONTINUOUS
370
   35
390
F
  0
LAYER
  5
4F
330
2
100
AcDbSymbolTableRecord
100
AcDbLayerTableRecord
  2
schematic
 70
    0
 62
    7
  6
CONTINUOUS
370
   25
390
F
  0
ENDTAB
  0
TABLE
  2
STYLE
  5
3
330
0
100
AcDbSymbolTable
 70
    3
  0
STYLE
  5
50
330
2
100
AcDbSymbolTableRecord
100
AcDbTextStyleTableRecord
  2
standard
 70
    0
 40
0
 41
1
 50
0
 71
    0
 42
1
  3
standard
  4

  0
STYLE
  5
51
330
2
100
AcDbSymbolTableRecord
100
AcDbTextStyleTableRecord
  2
iso
 70
    0
 40
0
 41
1
 50
0
 71
    0
 42
1
  3
iso
  4

  0
ENDTAB
  0
TABLE
  2
VIEW
  5
6
330
0
100
AcDbSymbolTable
 70
    0
  0
ENDTAB
  0
TABLE
  2
UCS
  5
7
330
0
100
AcDbSymbolTable
 70
    0
  0
ENDTAB
  0
TABLE
  2
APPID
  5
9
330
0
100
AcDbSymbolTable
 70
    1
  0
APPID
  5
12
330
9
100
AcDbSymbolTableRecord
100
AcDbRegAppTableRecord
  2
ACAD
 70
    0
  0
APPID
  5
52
330
9
100
AcDbSymbolTableRecord
100
AcDbRegAppTableRecord
  2
LibreCad
 70
    0
  0
ENDTAB
  0
TABLE
  2
DIMSTYLE
  5
A
330
0
100
AcDbSymbolTable
 70
    1
100
AcDbDimStyleTable
 71
    1
  0
DIMSTYLE
105
53
330
A
100
AcDbSymbolTableRecord
100
AcDbDimStyleTableRecord
  2
Standard
 70
    0
 40
1
 41
2.5
 42
0.625
 43
0.38
 44
1.25
 45
0
 46
0
 47
0
 48
0
 49
1
140
2.5
141
0.09
142
0
143
25.4
144
1
145
0
146
1
147
0.625
148
0
 71
    0
 72
    0
 73
    0
 74
    1
 75
    0
 76
    0
 77
    0
 78
    8
 79
    0
170
    0
171
    2
172
    0
173
    0
174
    0
175
    0
176
    0
177
    0
178
    0
179
    0
271
    4
272
    4
273
    2
274
    2
275
    0
276
    0
277
    2
278
   44
279
    0
280
    0
281
    0
282
    0
283
    1
284
    0
285
    0
286
    0
288
    0
289
    3
340
STANDARD
341

371
   -2
372
   -2
  0
ENDTAB
  0
TABLE
  2
BLOCK_RECORD
  5
1
330
0
100
AcDbSymbolTable
 70
    2
  0
BLOCK_RECORD
  5
1F
330
1
100
AcDbSymbolTableRecord
100
AcDbBlockTableRecord
  2
*Model_Space
 70
    0
280
    1
281
    0
  0
BLOCK_RECORD
  5
1E
330
1
100
AcDbSymbolTableRecord
100
AcDbBlockTableRecord
  2
*Paper_Space
 70
    0
280
    1
281
    0
  0
BLOCK_RECORD
  5
54
330
1
100
AcDbSymbolTableRecord
100
AcDbBlockTableRecord
  2
*D1
 70
    0
280
    1
281
    0
  0
BLOCK_RECORD
  5
57
330
1
100
AcDbSymbolTableRecord
100
AcDbBlockTableRecord
  2
a3
 70
    0
280
    1
281
    0
  0
BLOCK_RECORD
  5
5A
330
1
100
AcDbSymbolTableRecord
100
AcDbBlockTableRecord
  2
a3-0
 70
    0
280
    1
281
    0
  0
BLOCK_RECORD
  5
5D
330
1
100
AcDbSymbolTableRecord
100
AcDbBlockTableRecord
  2
eca-logo-0
 70
    0
280
    1
281
    0
  0
BLOCK_RECORD
  5
60
330
1
100
AcDbSymbolTableRecord
100
AcDbBlockTableRecord
  2
eca-logo-1
 70
    0
280
    1
281
    0
  0
BLOCK_RECORD
  5
63
330
1
100
AcDbSymbolTableRecord
100
AcDbBlockTableRecord
  2
Terminal-in
 70
    0
280
    1
281
    0
  0
BLOCK_RECORD
  5
66
330
1
100
AcDbSymbolTableRecord
100
AcDbBlockTableRecord
  2
Switch
 70
    0
280
    1
281
    0
  0
BLOCK_RECORD
  5
69
330
1
100
AcDbSymbolTableRecord
100
AcDbBlockTableRecord
  2
junction
 70
    0
280
    1
281
    0
  0
BLOCK_RECORD
  5
6C
330
1
100
AcDbSymbolTableRecord
100
AcDbBlockTableRecord
  2
junction-1
 70
    0
280
    1
281
    0
  0
BLOCK_RECORD
  5
6F
330
1
100
AcDbSymbolTableRecord
100
AcDbBlockTableRecord
  2
Switch-0
 70
    0
280
    1
281
    0
  0
BLOCK_RECORD
  5
72
330
1
100
AcDbSymbolTableRecord
100
AcDbBlockTableRecord
  2
Switch-1
 70
    0
280
    1
281
    0
  0
BLOCK_RECORD
  5
75
330
1
100
AcDbSymbolTableRecord
100
AcDbBlockTableRecord
  2
Switch-2
 70
    0
280
    1
281
    0
  0
BLOCK_RECORD
  5
78
330
1
100
AcDbSymbolTableRecord
100
AcDbBlockTableRecord
  2
junction-3
 70
    0
280
    1
281
    0
  0
BLOCK_RECORD
  5
7B
330
1
100
AcDbSymbolTableRecord
100
AcDbBlockTableRecord
  2
junction-4
 70
    0
280
    1
281
    0
  0
BLOCK_RECORD
  5
7E
330
1
100
AcDbSymbolTableRecord
100
AcDbBlockTableRecord
  2
Switch-4
 70
    0
280
    1
281
    0
  0
BLOCK_RECORD
  5
81
330
1
100
AcDbSymbolTableRecord
100
AcDbBlockTableRecord
  2
Switch-5
 70
    0
280
    1
281
    0
  0
BLOCK_RECORD
  5
84
330
1
100
AcDbSymbolTableRecord
100
AcDbBlockTableRecord
  2
Switch-6
 70
    0
280
    1
281
    0
  0
BLOCK_RECORD
  5
87
330
1
100
AcDbSymbolTableRecord
100
AcDbBlockTableRecord
  2
junction-6
 70
    0
280
    1
281
    0
  0
BLOCK_RECORD
  5
8A
330
1
100
AcDbSymbolTableRecord
100
AcDbBlockTableRecord
  2
s3
 70
    0
280
    1
281
    0
  0
BLOCK_RECORD
  5
8D
330
1
100
AcDbSymbolTableRecord
100
AcDbBlockTableRecord
  2
junction-7
 70
    0
280
    1
281
    0
  0
BLOCK_RECORD
  5
90
330
1
100
AcDbSymbolTableRecord
100
AcDbBlockTableRecord
  2
junction-8
 70
    0
280
    1
281
    0
  0
BLOCK_RECORD
  5
93
330
1
100
AcDbSymbolTableRecord
100
AcDbBlockTableRecord
  2
junction-9
 70
    0
280
    1
281
    0
  0
BLOCK_RECORD
  5
96
330
1
100
AcDbSymbolTableRecord
100
AcDbBlockTableRecord
  2
s1-0
 70
    0
280
    1
281
    0
  0
BLOCK_RECORD
  5
99
330
1
100
AcDbSymbolTableRecord
100
AcDbBlockTableRecord
  2
s1-1
 70
    0
280
    1
281
    0
  0
BLOCK_RECORD
  5
9C
330
1
100
AcDbSymbolTableRecord
100
AcDbBlockTableRecord
  2
RRS
 70
    0
280
    1
281
    0
  0
BLOCK_RECORD
  5
9F
330
1
100
AcDbSymbolTableRecord
100
AcDbBlockTableRecord
  2
Resistor-vert
 70
    0
280
    1
281
    0
  0
BLOCK_RECORD
  5
A2
330
1
100
AcDbSymbolTableRecord
100
AcDbBlockTableRecord
  2
Terminal-Earth
 70
    0
280
    1
281
    0
  0
BLOCK_RECORD
  5
A5
330
1
100
AcDbSymbolTableRecord
100
AcDbBlockTableRecord
  2
r1
 70
    0
280
    1
281
    0
  0
BLOCK_RECORD
  5
A8
330
1
100
AcDbSymbolTableRecord
100
AcDbBlockTableRecord
  2
diodo_bobina
 70
    0
280
    1
281
    0
  0
BLOCK_RECORD
  5
AB
330
1
100
AcDbSymbolTableRecord
100
AcDbBlockTableRecord
  2
mcp2014x-connector
 70
    0
280
    1
281
    0
  0
BLOCK_RECORD
  5
AE
330
1
100
AcDbSymbolTableRecord
100
AcDbBlockTableRecord
  2
mcp2014x-connector-0
 70
    0
280
    1
281
    0
  0
BLOCK_RECORD
  5
B1
330
1
100
AcDbSymbolTableRecord
100
AcDbBlockTableRecord
  2
mcp2014x-connector-1
 70
    0
280
    1
281
    0
  0
BLOCK_RECORD
  5
B4
330
1
100
AcDbSymbolTableRecord
100
AcDbBlockTableRecord
  2
mcp2014x-connector-2
 70
    0
280
    1
281
    0
  0
BLOCK_RECORD
  5
B7
330
1
100
AcDbSymbolTableRecord
100
AcDbBlockTableRecord
  2
mcp2014x-connector-3
 70
    0
280
    1
281
    0
  0
BLOCK_RECORD
  5
BA
330
1
100
AcDbSymbolTableRecord
100
AcDbBlockTableRecord
  2
mcp2014x-connector-4
 70
    0
280
    1
281
    0
  0
BLOCK_RECORD
  5
BD
330
1
100
AcDbSymbolTableRecord
100
AcDbBlockTableRecord
  2
mcp2014x-connector-5
 70
    0
280
    1
281
    0
  0
BLOCK_RECORD
  5
C0
330
1
100
AcDbSymbolTableRecord
100
AcDbBlockTableRecord
  2
mcp2014x-connector-6
 70
    0
280
    1
281
    0
  0
BLOCK_RECORD
  5
C3
330
1
100
AcDbSymbolTableRecord
100
AcDbBlockTableRecord
  2
mcp2014x-connector-7
 70
    0
280
    1
281
    0
  0
BLOCK_RECORD
  5
C6
330
1
100
AcDbSymbolTableRecord
100
AcDbBlockTableRecord
  2
mcp2014x-connector-8
 70
    0
280
    1
281
    0
  0
BLOCK_RECORD
  5
C9
330
1
100
AcDbSymbolTableRecord
100
AcDbBlockTableRecord
  2
mcp2014x-connector-9
 70
    0
280
    1
281
    0
  0
BLOCK_RECORD
  5
CC
330
1
100
AcDbSymbolTableRecord
100
AcDbBlockTableRecord
  2
mcp2014x-connector-10
 70
    0
280
    1
281
    0
  0
BLOCK_RECORD
  5
CF
330
1
100
AcDbSymbolTableRecord
100
AcDbBlockTableRecord
  2
RRS-0
 70
    0
280
    1
281
    0
  0
BLOCK_RECORD
  5
D2
330
1
100
AcDbSymbolTableRecord
100
AcDbBlockTableRecord
  2
Resistor-Therm
 70
    0
280
    1
281
    0
  0
BLOCK_RECORD
  5
D5
330
1
100
AcDbSymbolTableRecord
100
AcDbBlockTableRecord
  2
2vd1-0
 70
    0
280
    1
281
    0
  0
BLOCK_RECORD
  5
D8
330
1
100
AcDbSymbolTableRecord
100
AcDbBlockTableRecord
  2
2vd1-1
 70
    0
280
    1
281
    0
  0
ENDTAB
  0
ENDSEC
  0
SECTION
  2
BLOCKS
  0
BLOCK
  5
20
330
1F
100
AcDbEntity
  8
0
100
AcDbBlockBegin
  2
*Model_Space
 70
    0
 10
0
 20
0
 30
0
  3
*Model_Space
  1

  0
ENDBLK
  5
21
330
1F
100
AcDbEntity
  8
0
100
AcDbBlockEnd
  0
BLOCK
  5
1C
330
1B
100
AcDbEntity
  8
0
100
AcDbBlockBegin
  2
*Paper_Space
 70
    0
 10
0
 20
0
 30
0
  3
*Paper_Space
  1

  0
ENDBLK
  5
1D
330
1F
100
AcDbEntity
  8
0
100
AcDbBlockEnd
  0
BLOCK
  5
55
330
54
100
AcDbEntity
  8
0
100
AcDbBlockBegin
  2
*D1
 70
    1
 10
0
 20
0
  3
*D1
  1

  0
LINE
  5
DB
100
AcDbEntity
  8
labels
  6
CONTINUOUS
 62
    7
370
    0
100
AcDbLine
 10
334.589912522
 20
227.578213421
 11
348.144727741
 21
247.553730587
  0
LINE
  5
DC
100
AcDbEntity
  8
labels
  6
CONTINUOUS
 62
    7
370
    0
100
AcDbLine
 10
348.144727741
 20
247.553730587
 11
397.013403664
 21
247.553730587
  0
SOLID
  5
DD
100
AcDbEntity
  8
labels
  6
CONTINUOUS
 62
    7
370
    0
100
AcDbTrace
 10
334.589912522
 20
227.578213421
 30
0
 11
335.6492005982232
 21
229.8806472827794
 31
0
 12
336.3381315373517
 22
229.413158431255
 32
0
 13
336.3381315373517
 23
229.413158431255
 33
0
  0
ENDBLK
  5
56
330
54
100
AcDbEntity
  8
0
100
AcDbBlockEnd
  0
BLOCK
  5
58
330
57
100
AcDbEntity
  8
0
100
AcDbBlockBegin
  2
a3
 70
    0
 10
0
 20
0
  3
a3
  1

  0
HATCH
  5
DE
100
AcDbEntity
  8
hatch
  6
ByLayer
 62
  256
370
   -1
100
AcDbHatch
 10
0
 20
0
 30
0
210
0
220
0
230
1
  2
ansi31
 70
    0
 71
    0
 91
    1
 92
    0
 93
    3
 72
    1
 10
124.999976
 20
287.000024
 11
122.499976
 21
291.330151019
 72
    1
 10
122.499976
 20
291.330151019
 11
127.499976
 21
291.330151019
 72
    1
 10
127.499976
 20
291.330151019
 11
124.999976
 21
287.000024
 97
    0
 75
    0
 76
    1
 52
4.71238898038
 41
0.5
 77
    0
 78
    0
 98
    0
  0
HATCH
  5
DF
100
AcDbEntity
  8
hatch
  6
ByLayer
 62
  256
370
   -1
100
AcDbHatch
 10
0
 20
0
 30
0
210
0
220
0
230
1
  2
ansi31
 70
    0
 71
    0
 91
    1
 92
    0
 93
    3
 72
    1
 10
229.999976
 20
287.000024
 11
227.499976
 21
291.330151019
 72
    1
 10
227.499976
 20
291.330151019
 11
232.499976
 21
291.330151019
 72
    1
 10
232.499976
 20
291.330151019
 11
229.999976
 21
287.000024
 97
    0
 75
    0
 76
    1
 52
4.71238898038
 41
0.5
 77
    0
 78
    0
 98
    0
  0
HATCH
  5
E0
100
AcDbEntity
  8
hatch
  6
ByLayer
 62
  256
370
   -1
100
AcDbHatch
 10
0
 20
0
 30
0
210
0
220
0
230
1
  2
ansi31
 70
    0
 71
    0
 91
    1
 92
    0
 93
    3
 72
    1
 10
315
 20
287.000024
 11
312.5
 21
291.330151019
 72
    1
 10
312.5
 20
291.330151019
 11
317.5
 21
291.330151019
 72
    1
 10
317.5
 20
291.330151019
 11
315
 21
287.000024
 97
    0
 75
    0
 76
    1
 52
4.71238898038
 41
0.5
 77
    0
 78
    0
 98
    0
  0
HATCH
  5
E1
100
AcDbEntity
  8
hatch
  6
ByLayer
 62
  256
370
   -1
100
AcDbHatch
 10
0
 20
0
 30
0
210
0
220
0
230
1
  2
ansi31
 70
    0
 71
    0
 91
    1
 92
    0
 93
    3
 72
    1
 10
315
 20
9.999976
 11
312.5
 21
5.66984898108
 72
    1
 10
312.5
 20
5.66984898108
 11
317.5
 21
5.66984898108
 72
    1
 10
317.5
 20
5.66984898108
 11
315
 21
9.999976
 97
    0
 75
    0
 76
    1
 52
4.71238898038
 41
0.5
 77
    0
 78
    0
 98
    0
  0
HATCH
  5
E2
100
AcDbEntity
  8
hatch
  6
ByLayer
 62
  256
370
   -1
100
AcDbHatch
 10
0
 20
0
 30
0
210
0
220
0
230
1
  2
ansi31
 70
    0
 71
    0
 91
    1
 92
    0
 93
    3
 72
    1
 10
229.999976
 20
9.999976
 11
227.499976
 21
5.66984898108
 72
    1
 10
227.499976
 20
5.66984898108
 11
232.499976
 21
5.66984898108
 72
    1
 10
232.499976
 20
5.66984898108
 11
229.999976
 21
9.999976
 97
    0
 75
    0
 76
    1
 52
4.71238898038
 41
0.5
 77
    0
 78
    0
 98
    0
  0
HATCH
  5
E3
100
AcDbEntity
  8
hatch
  6
ByLayer
 62
  256
370
   -1
100
AcDbHatch
 10
0
 20
0
 30
0
210
0
220
0
230
1
  2
ansi31
 70
    0
 71
    0
 91
    1
 92
    0
 93
    3
 72
    1
 10
124.999976
 20
9.999976
 11
122.499976
 21
5.66984898108
 72
    1
 10
122.499976
 20
5.66984898108
 11
127.499976
 21
5.66984898108
 72
    1
 10
127.499976
 20
5.66984898108
 11
124.999976
 21
9.999976
 97
    0
 75
    0
 76
    1
 52
4.71238898038
 41
0.5
 77
    0
 78
    0
 98
    0
  0
HATCH
  5
E4
100
AcDbEntity
  8
hatch
  6
ByLayer
 62
  256
370
   -1
100
AcDbHatch
 10
0
 20
0
 30
0
210
0
220
0
230
1
  2
ansi31
 70
    0
 71
    0
 91
    1
 92
    0
 93
    3
 72
    1
 10
410
 20
148.5
 11
414.330127019
 21
146
 72
    1
 10
414.330127019
 20
146
 11
414.330127019
 21
151
 72
    1
 10
414.330127019
 20
151
 11
410
 21
148.5
 97
    0
 75
    0
 76
    1
 52
3.14159265359
 41
0.5
 77
    0
 78
    0
 98
    0
  0
HATCH
  5
E5
100
AcDbEntity
  8
hatch
  6
ByLayer
 62
  256
370
   -1
100
AcDbHatch
 10
0
 20
0
 30
0
210
0
220
0
230
1
  2
ansi31
 70
    0
 71
    0
 91
    1
 92
    0
 93
    3
 72
    1
 10
20
 20
148.5
 11
15.6698729811
 21
146
 72
    1
 10
15.6698729811
 20
146
 11
15.6698729811
 21
151
 72
    1
 10
15.6698729811
 20
151
 11
20
 21
148.5
 97
    0
 75
    0
 76
    1
 52
0
 41
0.5
 77
    0
 78
    0
 98
    0
  0
CIRCLE
  5
E6
100
AcDbEntity
  8
help-lines
  6
ByLayer
 62
  256
370
   -1
100
AcDbCircle
 10
15
 20
222.75
 40
3
  0
LINE
  5
E7
100
AcDbEntity
  8
help-lines
  6
ByLayer
 62
  256
370
   -1
100
AcDbLine
 10
20
 20
148.5
 11
15.6698729811
 21
146
  0
LINE
  5
E8
100
AcDbEntity
  8
help-lines
  6
ByLayer
 62
  256
370
   -1
100
AcDbLine
 10
20
 20
148.5
 11
15.6698729811
 21
151
  0
LINE
  5
E9
100
AcDbEntity
  8
help-lines
  6
ByLayer
 62
  256
370
   -1
100
AcDbLine
 10
15.6698729811
 20
146
 11
15.6698729811
 21
151
  0
CIRCLE
  5
EA
100
AcDbEntity
  8
help-lines
  6
ByLayer
 62
  256
370
   -1
100
AcDbCircle
 10
15
 20
74.25
 40
3
  0
MTEXT
  5
EB
100
AcDbEntity
  8
help-lines
  6
ByLayer
 62
  256
370
   -1
100
AcDbMText
 10
15
 20
74.25
 30
0
 40
4
 41
2.666666666666667
 71
    5
 72
    5
  1
A
  7
iso
210
0
220
0
230
1
 50
6.28318530718
 73
    2
 44
0.96
  0
MTEXT
  5
EC
100
AcDbEntity
  8
help-lines
  6
ByLayer
 62
  256
370
   -1
100
AcDbMText
 10
15
 20
222.75
 30
0
 40
4
 41
2.222222222222222
 71
    5
 72
    5
  1
B
  7
iso
210
0
220
0
230
1
 50
6.28318530718
 73
    2
 44
0.96
  0
LINE
  5
ED
100
AcDbEntity
  8
help-lines
  6
ByLayer
 62
  256
370
   -1
100
AcDbLine
 10
2.57e-14
 20
297
 11
0
 21
0
  0
CIRCLE
  5
EE
100
AcDbEntity
  8
help-lines
  6
ByLayer
 62
  256
370
   -1
100
AcDbCircle
 10
415
 20
222.75
 40
3
  0
LINE
  5
EF
100
AcDbEntity
  8
help-lines
  6
ByLayer
 62
  256
370
   -1
100
AcDbLine
 10
410
 20
148.5
 11
414.330127019
 21
146
  0
LINE
  5
F0
100
AcDbEntity
  8
help-lines
  6
ByLayer
 62
  256
370
   -1
100
AcDbLine
 10
410
 20
148.5
 11
414.330127019
 21
151
  0
LINE
  5
F1
100
AcDbEntity
  8
help-lines
  6
ByLayer
 62
  256
370
   -1
100
AcDbLine
 10
414.330127019
 20
146
 11
414.330127019
 21
151
  0
CIRCLE
  5
F2
100
AcDbEntity
  8
help-lines
  6
ByLayer
 62
  256
370
   -1
100
AcDbCircle
 10
415
 20
74.25
 40
3
  0
MTEXT
  5
F3
100
AcDbEntity
  8
help-lines
  6
ByLayer
 62
  256
370
   -1
100
AcDbMText
 10
415
 20
74.25
 30
0
 40
4
 41
2.666666666666667
 71
    5
 72
    5
  1
A
  7
iso
210
0
220
0
230
1
 50
6.28318530718
 73
    2
 44
0.96
  0
MTEXT
  5
F4
100
AcDbEntity
  8
help-lines
  6
ByLayer
 62
  256
370
   -1
100
AcDbMText
 10
415
 20
222.75
 30
0
 40
4
 41
2.222222222222222
 71
    5
 72
    5
  1
B
  7
iso
210
0
220
0
230
1
 50
6.28318530718
 73
    2
 44
0.96
  0
LINE
  5
F5
100
AcDbEntity
  8
help-lines
  6
ByLayer
 62
  256
370
   -1
100
AcDbLine
 10
420
 20
297
 11
2.57e-14
 21
297
  0
LINE
  5
F6
100
AcDbEntity
  8
help-lines
  6
ByLayer
 62
  256
370
   -1
100
AcDbLine
 10
125
 20
0
 11
125
 21
10
  0
LINE
  5
F7
100
AcDbEntity
  8
help-lines
  6
ByLayer
 62
  256
370
   -1
100
AcDbLine
 10
230
 20
2.84e-14
 11
230
 21
10
  0
LINE
  5
F8
100
AcDbEntity
  8
help-lines
  6
ByLayer
 62
  256
370
   -1
100
AcDbLine
 10
124.999976
 20
9.999976
 11
122.499976
 21
5.66984898108
  0
LINE
  5
F9
100
AcDbEntity
  8
help-lines
  6
ByLayer
 62
  256
370
   -1
100
AcDbLine
 10
124.999976
 20
9.999976
 11
127.499976
 21
5.66984898108
  0
LINE
  5
FA
100
AcDbEntity
  8
help-lines
  6
ByLayer
 62
  256
370
   -1
100
AcDbLine
 10
122.499976
 20
5.66984898108
 11
127.499976
 21
5.66984898108
  0
CIRCLE
  5
FB
100
AcDbEntity
  8
help-lines
  6
ByLayer
 62
  256
370
   -1
100
AcDbCircle
 10
177.5
 20
5
 40
3
  0
LINE
  5
FC
100
AcDbEntity
  8
help-lines
  6
ByLayer
 62
  256
370
   -1
100
AcDbLine
 10
229.999976
 20
9.999976
 11
227.499976
 21
5.66984898108
  0
LINE
  5
FD
100
AcDbEntity
  8
help-lines
  6
ByLayer
 62
  256
370
   -1
100
AcDbLine
 10
229.999976
 20
9.999976
 11
232.499976
 21
5.66984898108
  0
LINE
  5
FE
100
AcDbEntity
  8
help-lines
  6
ByLayer
 62
  256
370
   -1
100
AcDbLine
 10
227.499976
 20
5.66984898108
 11
232.499976
 21
5.66984898108
  0
CIRCLE
  5
FF
100
AcDbEntity
  8
help-lines
  6
ByLayer
 62
  256
370
   -1
100
AcDbCircle
 10
72.5
 20
5
 40
3
  0
MTEXT
  5
100
100
AcDbEntity
  8
help-lines
  6
ByLayer
 62
  256
370
   -1
100
AcDbMText
 10
72.5
 20
5
 30
0
 40
4
 41
0.8888888888888888
 71
    5
 72
    5
  1
1
  7
iso
210
0
220
0
230
1
 50
0
 73
    2
 44
0.96
  0
MTEXT
  5
101
100
AcDbEntity
  8
help-lines
  6
ByLayer
 62
  256
370
   -1
100
AcDbMText
 10
177.5
 20
5
 30
0
 40
4
 41
1.777777777777778
 71
    5
 72
    5
  1
2
  7
iso
210
0
220
0
230
1
 50
0
 73
    2
 44
0.96
  0
CIRCLE
  5
102
100
AcDbEntity
  8
help-lines
  6
ByLayer
 62
  256
370
   -1
100
AcDbCircle
 10
278
 20
5
 40
3
  0
MTEXT
  5
103
100
AcDbEntity
  8
help-lines
  6
ByLayer
 62
  256
370
   -1
100
AcDbMText
 10
278
 20
5
 30
0
 40
4
 41
1.777777777778026
 71
    5
 72
    5
  1
3
  7
iso
210
0
220
0
230
1
 50
0
 73
    2
 44
0.96
  0
LINE
  5
104
100
AcDbEntity
  8
help-lines
  6
ByLayer
 62
  256
370
   -1
100
AcDbLine
 10
315
 20
9.999976
 11
312.5
 21
5.66984898108
  0
LINE
  5
105
100
AcDbEntity
  8
help-lines
  6
ByLayer
 62
  256
370
   -1
100
AcDbLine
 10
315
 20
9.999976
 11
317.5
 21
5.66984898108
  0
LINE
  5
106
100
AcDbEntity
  8
help-lines
  6
ByLayer
 62
  256
370
   -1
100
AcDbLine
 10
312.5
 20
5.66984898108
 11
317.5
 21
5.66984898108
  0
CIRCLE
  5
107
100
AcDbEntity
  8
help-lines
  6
ByLayer
 62
  256
370
   -1
100
AcDbCircle
 10
363.000024
 20
5
 40
3
  0
MTEXT
  5
108
100
AcDbEntity
  8
help-lines
  6
ByLayer
 62
  256
370
   -1
100
AcDbMText
 10
363.000024
 20
5
 30
0
 40
4
 41
2.222222222222222
 71
    5
 72
    5
  1
4
  7
iso
210
0
220
0
230
1
 50
0
 73
    2
 44
0.96
  0
LINE
  5
109
100
AcDbEntity
  8
help-lines
  6
ByLayer
 62
  256
370
   -1
100
AcDbLine
 10
420
 20
0
 11
420
 21
297
  0
LINE
  5
10A
100
AcDbEntity
  8
help-lines
  6
ByLayer
 62
  256
370
   -1
100
AcDbLine
 10
3.55e-14
 20
0
 11
420
 21
0
  0
LINE
  5
10B
100
AcDbEntity
  8
help-lines
  6
ByLayer
 62
  256
370
   -1
100
AcDbLine
 10
125
 20
297
 11
125
 21
287
  0
LINE
  5
10C
100
AcDbEntity
  8
help-lines
  6
ByLayer
 62
  256
370
   -1
100
AcDbLine
 10
230
 20
297
 11
230
 21
287
  0
LINE
  5
10D
100
AcDbEntity
  8
help-lines
  6
ByLayer
 62
  256
370
   -1
100
AcDbLine
 10
124.999976
 20
287.000024
 11
122.499976
 21
291.330151019
  0
LINE
  5
10E
100
AcDbEntity
  8
help-lines
  6
ByLayer
 62
  256
370
   -1
100
AcDbLine
 10
124.999976
 20
287.000024
 11
127.499976
 21
291.330151019
  0
LINE
  5
10F
100
AcDbEntity
  8
help-lines
  6
ByLayer
 62
  256
370
   -1
100
AcDbLine
 10
122.499976
 20
291.330151019
 11
127.499976
 21
291.330151019
  0
CIRCLE
  5
110
100
AcDbEntity
  8
help-lines
  6
ByLayer
 62
  256
370
   -1
100
AcDbCircle
 10
177.5
 20
292
 40
3
  0
LINE
  5
111
100
AcDbEntity
  8
help-lines
  6
ByLayer
 62
  256
370
   -1
100
AcDbLine
 10
229.999976
 20
287.000024
 11
227.499976
 21
291.330151019
  0
LINE
  5
112
100
AcDbEntity
  8
help-lines
  6
ByLayer
 62
  256
370
   -1
100
AcDbLine
 10
229.999976
 20
287.000024
 11
232.499976
 21
291.330151019
  0
LINE
  5
113
100
AcDbEntity
  8
help-lines
  6
ByLayer
 62
  256
370
   -1
100
AcDbLine
 10
227.499976
 20
291.330151019
 11
232.499976
 21
291.330151019
  0
CIRCLE
  5
114
100
AcDbEntity
  8
help-lines
  6
ByLayer
 62
  256
370
   -1
100
AcDbCircle
 10
72.5
 20
292
 40
3
  0
MTEXT
  5
115
100
AcDbEntity
  8
help-lines
  6
ByLayer
 62
  256
370
   -1
100
AcDbMText
 10
72.5
 20
292
 30
0
 40
4
 41
0.8888888888888888
 71
    5
 72
    5
  1
1
  7
iso
210
0
220
0
230
1
 50
0
 73
    2
 44
0.96
  0
MTEXT
  5
116
100
AcDbEntity
  8
help-lines
  6
ByLayer
 62
  256
370
   -1
100
AcDbMText
 10
177.5
 20
292
 30
0
 40
4
 41
1.777777777777778
 71
    5
 72
    5
  1
2
  7
iso
210
0
220
0
230
1
 50
0
 73
    2
 44
0.96
  0
CIRCLE
  5
117
100
AcDbEntity
  8
help-lines
  6
ByLayer
 62
  256
370
   -1
100
AcDbCircle
 10
278
 20
292
 40
3
  0
MTEXT
  5
118
100
AcDbEntity
  8
help-lines
  6
ByLayer
 62
  256
370
   -1
100
AcDbMText
 10
278
 20
292
 30
0
 40
4
 41
1.777777777778026
 71
    5
 72
    5
  1
3
  7
iso
210
0
220
0
230
1
 50
0
 73
    2
 44
0.96
  0
LINE
  5
119
100
AcDbEntity
  8
help-lines
  6
ByLayer
 62
  256
370
   -1
100
AcDbLine
 10
315
 20
287.000024
 11
312.5
 21
291.330151019
  0
LINE
  5
11A
100
AcDbEntity
  8
help-lines
  6
ByLayer
 62
  256
370
   -1
100
AcDbLine
 10
315
 20
287.000024
 11
317.5
 21
291.330151019
  0
LINE
  5
11B
100
AcDbEntity
  8
help-lines
  6
ByLayer
 62
  256
370
   -1
100
AcDbLine
 10
312.5
 20
291.330151019
 11
317.5
 21
291.330151019
  0
CIRCLE
  5
11C
100
AcDbEntity
  8
help-lines
  6
ByLayer
 62
  256
370
   -1
100
AcDbCircle
 10
363.000024
 20
292
 40
3
  0
MTEXT
  5
11D
100
AcDbEntity
  8
help-lines
  6
ByLayer
 62
  256
370
   -1
100
AcDbMText
 10
363.000024
 20
292
 30
0
 40
4
 41
2.222222222222222
 71
    5
 72
    5
  1
4
  7
iso
210
0
220
0
230
1
 50
0
 73
    2
 44
0.96
  0
ENDBLK
  5
59
330
57
100
AcDbEntity
  8
0
100
AcDbBlockEnd
  0
BLOCK
  5
5B
330
5A
100
AcDbEntity
  8
0
100
AcDbBlockBegin
  2
a3-0
 70
    0
 10
0
 20
0
  3
a3-0
  1

  0
HATCH
  5
11E
100
AcDbEntity
  8
hatch
  6
ByLayer
 62
  256
370
   -1
100
AcDbHatch
 10
0
 20
0
 30
0
210
0
220
0
230
1
  2
ansi31
 70
    0
 71
    0
 91
    1
 92
    0
 93
    3
 72
    1
 10
20
 20
148.5
 11
15.6698729811
 21
146
 72
    1
 10
15.6698729811
 20
146
 11
15.6698729811
 21
151
 72
    1
 10
15.6698729811
 20
151
 11
20
 21
148.5
 97
    0
 75
    0
 76
    1
 52
0
 41
0.5
 77
    0
 78
    0
 98
    0
  0
HATCH
  5
11F
100
AcDbEntity
  8
hatch
  6
ByLayer
 62
  256
370
   -1
100
AcDbHatch
 10
0
 20
0
 30
0
210
0
220
0
230
1
  2
ansi31
 70
    0
 71
    0
 91
    1
 92
    0
 93
    3
 72
    1
 10
410
 20
148.5
 11
414.330127019
 21
146
 72
    1
 10
414.330127019
 20
146
 11
414.330127019
 21
151
 72
    1
 10
414.330127019
 20
151
 11
410
 21
148.5
 97
    0
 75
    0
 76
    1
 52
3.14159265359
 41
0.5
 77
    0
 78
    0
 98
    0
  0
HATCH
  5
120
100
AcDbEntity
  8
hatch
  6
ByLayer
 62
  256
370
   -1
100
AcDbHatch
 10
0
 20
0
 30
0
210
0
220
0
230
1
  2
ansi31
 70
    0
 71
    0
 91
    1
 92
    0
 93
    3
 72
    1
 10
124.999976
 20
9.999976
 11
122.499976
 21
5.66984898108
 72
    1
 10
122.499976
 20
5.66984898108
 11
127.499976
 21
5.66984898108
 72
    1
 10
127.499976
 20
5.66984898108
 11
124.999976
 21
9.999976
 97
    0
 75
    0
 76
    1
 52
4.71238898038
 41
0.5
 77
    0
 78
    0
 98
    0
  0
HATCH
  5
121
100
AcDbEntity
  8
hatch
  6
ByLayer
 62
  256
370
   -1
100
AcDbHatch
 10
0
 20
0
 30
0
210
0
220
0
230
1
  2
ansi31
 70
    0
 71
    0
 91
    1
 92
    0
 93
    3
 72
    1
 10
229.999976
 20
9.999976
 11
227.499976
 21
5.66984898108
 72
    1
 10
227.499976
 20
5.66984898108
 11
232.499976
 21
5.66984898108
 72
    1
 10
232.499976
 20
5.66984898108
 11
229.999976
 21
9.999976
 97
    0
 75
    0
 76
    1
 52
4.71238898038
 41
0.5
 77
    0
 78
    0
 98
    0
  0
HATCH
  5
122
100
AcDbEntity
  8
hatch
  6
ByLayer
 62
  256
370
   -1
100
AcDbHatch
 10
0
 20
0
 30
0
210
0
220
0
230
1
  2
ansi31
 70
    0
 71
    0
 91
    1
 92
    0
 93
    3
 72
    1
 10
315
 20
9.999976
 11
312.5
 21
5.66984898108
 72
    1
 10
312.5
 20
5.66984898108
 11
317.5
 21
5.66984898108
 72
    1
 10
317.5
 20
5.66984898108
 11
315
 21
9.999976
 97
    0
 75
    0
 76
    1
 52
4.71238898038
 41
0.5
 77
    0
 78
    0
 98
    0
  0
HATCH
  5
123
100
AcDbEntity
  8
hatch
  6
ByLayer
 62
  256
370
   -1
100
AcDbHatch
 10
0
 20
0
 30
0
210
0
220
0
230
1
  2
ansi31
 70
    0
 71
    0
 91
    1
 92
    0
 93
    3
 72
    1
 10
315
 20
287.000024
 11
312.5
 21
291.330151019
 72
    1
 10
312.5
 20
291.330151019
 11
317.5
 21
291.330151019
 72
    1
 10
317.5
 20
291.330151019
 11
315
 21
287.000024
 97
    0
 75
    0
 76
    1
 52
4.71238898038
 41
0.5
 77
    0
 78
    0
 98
    0
  0
HATCH
  5
124
100
AcDbEntity
  8
hatch
  6
ByLayer
 62
  256
370
   -1
100
AcDbHatch
 10
0
 20
0
 30
0
210
0
220
0
230
1
  2
ansi31
 70
    0
 71
    0
 91
    1
 92
    0
 93
    3
 72
    1
 10
229.999976
 20
287.000024
 11
227.499976
 21
291.330151019
 72
    1
 10
227.499976
 20
291.330151019
 11
232.499976
 21
291.330151019
 72
    1
 10
232.499976
 20
291.330151019
 11
229.999976
 21
287.000024
 97
    0
 75
    0
 76
    1
 52
4.71238898038
 41
0.5
 77
    0
 78
    0
 98
    0
  0
HATCH
  5
125
100
AcDbEntity
  8
hatch
  6
ByLayer
 62
  256
370
   -1
100
AcDbHatch
 10
0
 20
0
 30
0
210
0
220
0
230
1
  2
ansi31
 70
    0
 71
    0
 91
    1
 92
    0
 93
    3
 72
    1
 10
124.999976
 20
287.000024
 11
122.499976
 21
291.330151019
 72
    1
 10
122.499976
 20
291.330151019
 11
127.499976
 21
291.330151019
 72
    1
 10
127.499976
 20
291.330151019
 11
124.999976
 21
287.000024
 97
    0
 75
    0
 76
    1
 52
4.71238898038
 41
0.5
 77
    0
 78
    0
 98
    0
  0
CIRCLE
  5
126
100
AcDbEntity
  8
help-lines
  6
ByLayer
 62
  256
370
   -1
100
AcDbCircle
 10
15
 20
222.75
 40
3
  0
LINE
  5
127
100
AcDbEntity
  8
help-lines
  6
ByLayer
 62
  256
370
   -1
100
AcDbLine
 10
20
 20
148.5
 11
15.6698729811
 21
146
  0
LINE
  5
128
100
AcDbEntity
  8
help-lines
  6
ByLayer
 62
  256
370
   -1
100
AcDbLine
 10
20
 20
148.5
 11
15.6698729811
 21
151
  0
LINE
  5
129
100
AcDbEntity
  8
help-lines
  6
ByLayer
 62
  256
370
   -1
100
AcDbLine
 10
15.6698729811
 20
146
 11
15.6698729811
 21
151
  0
CIRCLE
  5
12A
100
AcDbEntity
  8
help-lines
  6
ByLayer
 62
  256
370
   -1
100
AcDbCircle
 10
15
 20
74.25
 40
3
  0
MTEXT
  5
12B
100
AcDbEntity
  8
help-lines
  6
ByLayer
 62
  256
370
   -1
100
AcDbMText
 10
15
 20
74.25
 30
0
 40
4
 41
2.666666666666667
 71
    5
 72
    5
  1
A
  7
iso
210
0
220
0
230
1
 50
6.28318530718
 73
    2
 44
0.96
  0
MTEXT
  5
12C
100
AcDbEntity
  8
help-lines
  6
ByLayer
 62
  256
370
   -1
100
AcDbMText
 10
15
 20
222.75
 30
0
 40
4
 41
2.222222222222222
 71
    5
 72
    5
  1
B
  7
iso
210
0
220
0
230
1
 50
6.28318530718
 73
    2
 44
0.96
  0
LINE
  5
12D
100
AcDbEntity
  8
help-lines
  6
ByLayer
 62
  256
370
   -1
100
AcDbLine
 10
1.82076576039e-14
 20
297
 11
0
 21
0
  0
CIRCLE
  5
12E
100
AcDbEntity
  8
help-lines
  6
ByLayer
 62
  256
370
   -1
100
AcDbCircle
 10
415
 20
222.75
 40
3
  0
LINE
  5
12F
100
AcDbEntity
  8
help-lines
  6
ByLayer
 62
  256
370
   -1
100
AcDbLine
 10
410
 20
148.5
 11
414.330127019
 21
146
  0
LINE
  5
130
100
AcDbEntity
  8
help-lines
  6
ByLayer
 62
  256
370
   -1
100
AcDbLine
 10
410
 20
148.5
 11
414.330127019
 21
151
  0
LINE
  5
131
100
AcDbEntity
  8
help-lines
  6
ByLayer
 62
  256
370
   -1
100
AcDbLine
 10
414.330127019
 20
146
 11
414.330127019
 21
151
  0
CIRCLE
  5
132
100
AcDbEntity
  8
help-lines
  6
ByLayer
 62
  256
370
   -1
100
AcDbCircle
 10
415
 20
74.25
 40
3
  0
MTEXT
  5
133
100
AcDbEntity
  8
help-lines
  6
ByLayer
 62
  256
370
   -1
100
AcDbMText
 10
415
 20
74.25
 30
0
 40
4
 41
2.666666666666667
 71
    5
 72
    5
  1
A
  7
iso
210
0
220
0
230
1
 50
6.28318530718
 73
    2
 44
0.96
  0
MTEXT
  5
134
100
AcDbEntity
  8
help-lines
  6
ByLayer
 62
  256
370
   -1
100
AcDbMText
 10
415
 20
222.75
 30
0
 40
4
 41
2.222222222222222
 71
    5
 72
    5
  1
B
  7
iso
210
0
220
0
230
1
 50
6.28318530718
 73
    2
 44
0.96
  0
LINE
  5
135
100
AcDbEntity
  8
help-lines
  6
ByLayer
 62
  256
370
   -1
100
AcDbLine
 10
420
 20
297
 11
1.82076576039e-14
 21
297
  0
LINE
  5
136
100
AcDbEntity
  8
help-lines
  6
ByLayer
 62
  256
370
   -1
100
AcDbLine
 10
125
 20
0
 11
125
 21
10
  0
LINE
  5
137
100
AcDbEntity
  8
help-lines
  6
ByLayer
 62
  256
370
   -1
100
AcDbLine
 10
230
 20
0
 11
230
 21
10
  0
LINE
  5
138
100
AcDbEntity
  8
help-lines
  6
ByLayer
 62
  256
370
   -1
100
AcDbLine
 10
124.999976
 20
9.999976
 11
122.499976
 21
5.66984898108
  0
LINE
  5
139
100
AcDbEntity
  8
help-lines
  6
ByLayer
 62
  256
370
   -1
100
AcDbLine
 10
124.999976
 20
9.999976
 11
127.499976
 21
5.66984898108
  0
LINE
  5
13A
100
AcDbEntity
  8
help-lines
  6
ByLayer
 62
  256
370
   -1
100
AcDbLine
 10
122.499976
 20
5.66984898108
 11
127.499976
 21
5.66984898108
  0
CIRCLE
  5
13B
100
AcDbEntity
  8
help-lines
  6
ByLayer
 62
  256
370
   -1
100
AcDbCircle
 10
177.5
 20
5
 40
3
  0
LINE
  5
13C
100
AcDbEntity
  8
help-lines
  6
ByLayer
 62
  256
370
   -1
100
AcDbLine
 10
229.999976
 20
9.999976
 11
227.499976
 21
5.66984898108
  0
LINE
  5
13D
100
AcDbEntity
  8
help-lines
  6
ByLayer
 62
  256
370
   -1
100
AcDbLine
 10
229.999976
 20
9.999976
 11
232.499976
 21
5.66984898108
  0
LINE
  5
13E
100
AcDbEntity
  8
help-lines
  6
ByLayer
 62
  256
370
   -1
100
AcDbLine
 10
227.499976
 20
5.66984898108
 11
232.499976
 21
5.66984898108
  0
CIRCLE
  5
13F
100
AcDbEntity
  8
help-lines
  6
ByLayer
 62
  256
370
   -1
100
AcDbCircle
 10
72.5
 20
5
 40
3
  0
MTEXT
  5
140
100
AcDbEntity
  8
help-lines
  6
ByLayer
 62
  256
370
   -1
100
AcDbMText
 10
72.5
 20
5
 30
0
 40
4
 41
0.8888888888888888
 71
    5
 72
    5
  1
1
  7
iso
210
0
220
0
230
1
 50
0
 73
    2
 44
0.96
  0
MTEXT
  5
141
100
AcDbEntity
  8
help-lines
  6
ByLayer
 62
  256
370
   -1
100
AcDbMText
 10
177.5
 20
5
 30
0
 40
4
 41
1.777777777777778
 71
    5
 72
    5
  1
2
  7
iso
210
0
220
0
230
1
 50
0
 73
    2
 44
0.96
  0
CIRCLE
  5
142
100
AcDbEntity
  8
help-lines
  6
ByLayer
 62
  256
370
   -1
100
AcDbCircle
 10
278
 20
5
 40
3
  0
MTEXT
  5
143
100
AcDbEntity
  8
help-lines
  6
ByLayer
 62
  256
370
   -1
100
AcDbMText
 10
278
 20
5
 30
0
 40
4
 41
1.777777777778026
 71
    5
 72
    5
  1
3
  7
iso
210
0
220
0
230
1
 50
0
 73
    2
 44
0.96
  0
LINE
  5
144
100
AcDbEntity
  8
help-lines
  6
ByLayer
 62
  256
370
   -1
100
AcDbLine
 10
315
 20
9.999976
 11
312.5
 21
5.66984898108
  0
LINE
  5
145
100
AcDbEntity
  8
help-lines
  6
ByLayer
 62
  256
370
   -1
100
AcDbLine
 10
315
 20
9.999976
 11
317.5
 21
5.66984898108
  0
LINE
  5
146
100
AcDbEntity
  8
help-lines
  6
ByLayer
 62
  256
370
   -1
100
AcDbLine
 10
312.5
 20
5.66984898108
 11
317.5
 21
5.66984898108
  0
CIRCLE
  5
147
100
AcDbEntity
  8
help-lines
  6
ByLayer
 62
  256
370
   -1
100
AcDbCircle
 10
363.000024
 20
5
 40
3
  0
MTEXT
  5
148
100
AcDbEntity
  8
help-lines
  6
ByLayer
 62
  256
370
   -1
100
AcDbMText
 10
363.000024
 20
5
 30
0
 40
4
 41
2.222222222222222
 71
    5
 72
    5
  1
4
  7
iso
210
0
220
0
230
1
 50
0
 73
    2
 44
0.96
  0
LINE
  5
149
100
AcDbEntity
  8
help-lines
  6
ByLayer
 62
  256
370
   -1
100
AcDbLine
 10
420
 20
0
 11
420
 21
297
  0
LINE
  5
14A
100
AcDbEntity
  8
help-lines
  6
ByLayer
 62
  256
370
   -1
100
AcDbLine
 10
3.5527136788e-14
 20
0
 11
420
 21
0
  0
LINE
  5
14B
100
AcDbEntity
  8
help-lines
  6
ByLayer
 62
  256
370
   -1
100
AcDbLine
 10
125
 20
297
 11
125
 21
287
  0
LINE
  5
14C
100
AcDbEntity
  8
help-lines
  6
ByLayer
 62
  256
370
   -1
100
AcDbLine
 10
230
 20
297
 11
230
 21
287
  0
LINE
  5
14D
100
AcDbEntity
  8
help-lines
  6
ByLayer
 62
  256
370
   -1
100
AcDbLine
 10
124.999976
 20
287.000024
 11
122.499976
 21
291.330151019
  0
LINE
  5
14E
100
AcDbEntity
  8
help-lines
  6
ByLayer
 62
  256
370
   -1
100
AcDbLine
 10
124.999976
 20
287.000024
 11
127.499976
 21
291.330151019
  0
LINE
  5
14F
100
AcDbEntity
  8
help-lines
  6
ByLayer
 62
  256
370
   -1
100
AcDbLine
 10
122.499976
 20
291.330151019
 11
127.499976
 21
291.330151019
  0
CIRCLE
  5
150
100
AcDbEntity
  8
help-lines
  6
ByLayer
 62
  256
370
   -1
100
AcDbCircle
 10
177.5
 20
292
 40
3
  0
LINE
  5
151
100
AcDbEntity
  8
help-lines
  6
ByLayer
 62
  256
370
   -1
100
AcDbLine
 10
229.999976
 20
287.000024
 11
227.499976
 21
291.330151019
  0
LINE
  5
152
100
AcDbEntity
  8
help-lines
  6
ByLayer
 62
  256
370
   -1
100
AcDbLine
 10
229.999976
 20
287.000024
 11
232.499976
 21
291.330151019
  0
LINE
  5
153
100
AcDbEntity
  8
help-lines
  6
ByLayer
 62
  256
370
   -1
100
AcDbLine
 10
227.499976
 20
291.330151019
 11
232.499976
 21
291.330151019
  0
CIRCLE
  5
154
100
AcDbEntity
  8
help-lines
  6
ByLayer
 62
  256
370
   -1
100
AcDbCircle
 10
72.5
 20
292
 40
3
  0
MTEXT
  5
155
100
AcDbEntity
  8
help-lines
  6
ByLayer
 62
  256
370
   -1
100
AcDbMText
 10
72.5
 20
292
 30
0
 40
4
 41
0.8888888888888888
 71
    5
 72
    5
  1
1
  7
iso
210
0
220
0
230
1
 50
0
 73
    2
 44
0.96
  0
MTEXT
  5
156
100
AcDbEntity
  8
help-lines
  6
ByLayer
 62
  256
370
   -1
100
AcDbMText
 10
177.5
 20
292
 30
0
 40
4
 41
1.777777777777778
 71
    5
 72
    5
  1
2
  7
iso
210
0
220
0
230
1
 50
0
 73
    2
 44
0.96
  0
CIRCLE
  5
157
100
AcDbEntity
  8
help-lines
  6
ByLayer
 62
  256
370
   -1
100
AcDbCircle
 10
278
 20
292
 40
3
  0
MTEXT
  5
158
100
AcDbEntity
  8
help-lines
  6
ByLayer
 62
  256
370
   -1
100
AcDbMText
 10
278
 20
292
 30
0
 40
4
 41
1.777777777778026
 71
    5
 72
    5
  1
3
  7
iso
210
0
220
0
230
1
 50
0
 73
    2
 44
0.96
  0
LINE
  5
159
100
AcDbEntity
  8
help-lines
  6
ByLayer
 62
  256
370
   -1
100
AcDbLine
 10
315
 20
287.000024
 11
312.5
 21
291.330151019
  0
LINE
  5
15A
100
AcDbEntity
  8
help-lines
  6
ByLayer
 62
  256
370
   -1
100
AcDbLine
 10
315
 20
287.000024
 11
317.5
 21
291.330151019
  0
LINE
  5
15B
100
AcDbEntity
  8
help-lines
  6
ByLayer
 62
  256
370
   -1
100
AcDbLine
 10
312.5
 20
291.330151019
 11
317.5
 21
291.330151019
  0
CIRCLE
  5
15C
100
AcDbEntity
  8
help-lines
  6
ByLayer
 62
  256
370
   -1
100
AcDbCircle
 10
363.000024
 20
292
 40
3
  0
MTEXT
  5
15D
100
AcDbEntity
  8
help-lines
  6
ByLayer
 62
  256
370
   -1
100
AcDbMText
 10
363.000024
 20
292
 30
0
 40
4
 41
2.222222222222222
 71
    5
 72
    5
  1
4
  7
iso
210
0
220
0
230
1
 50
0
 73
    2
 44
0.96
  0
ENDBLK
  5
5C
330
5A
100
AcDbEntity
  8
0
100
AcDbBlockEnd
  0
BLOCK
  5
5E
330
5D
100
AcDbEntity
  8
0
100
AcDbBlockBegin
  2
eca-logo-0
 70
    0
 10
0
 20
0
  3
eca-logo-0
  1

  0
ARC
  5
15E
100
AcDbEntity
  8
0
  6
ByLayer
 62
  256
370
   -1
100
AcDbCircle
 10
110.420388752
 20
76.91488935949999
 40
7.01016792418
100
AcDbArc
 50
87.74620047419999
 51
274.031479733
  0
LINE
  5
15F
100
AcDbEntity
  8
0
  6
ByLayer
 62
  256
370
   -1
100
AcDbLine
 10
110.886912
 20
69.94001919999999
 11
115.008423684
 21
69.9454058127
  0
ARC
  5
160
100
AcDbEntity
  8
0
  6
ByLayer
 62
  256
370
   -1
100
AcDbCircle
 10
123.926518775
 20
77.00278865919999
 40
11.2882077629
100
AcDbArc
 50
141.77912084
 51
217.944755456
  0
LINE
  5
161
100
AcDbEntity
  8
0
  6
ByLayer
 62
  256
370
   -1
100
AcDbLine
 10
110.65210144
 20
83.92022498999999
 11
114.989564861
 21
83.93583805510001
  0
MTEXT
  5
162
100
AcDbEntity
  8
0
  6
ByLayer
 62
  256
370
   -1
100
AcDbMText
 10
109.008608924
 20
82.4343709274
 30
0
 40
2.5
 41
1.666666666666667
 71
    1
 72
    1
  1
E\PC\PA
  7
standard
210
0
220
0
230
1
 50
0
 73
    2
 44
1
  0
LINE
  5
163
100
AcDbEntity
  8
0
  6
ByLayer
 62
  256
370
   -1
100
AcDbLine
 10
113.540949806
 20
72.6336679929
 11
125.540949806
 21
72.6336679929
  0
LINE
  5
164
100
AcDbEntity
  8
0
  6
ByLayer
 62
  256
370
   -1
100
AcDbLine
 10
113.540949806
 20
81.34970815200001
 11
125.540949806
 21
81.34970815200001
  0
LINE
  5
165
100
AcDbEntity
  8
0
  6
ByLayer
 62
  256
370
   -1
100
AcDbLine
 10
112.649976812
 20
76.8948431818
 11
125.523374438
 21
76.93048210160001
  0
ENDBLK
  5
5F
330
5D
100
AcDbEntity
  8
0
100
AcDbBlockEnd
  0
BLOCK
  5
61
330
60
100
AcDbEntity
  8
0
100
AcDbBlockBegin
  2
eca-logo-1
 70
    0
 10
0
 20
0
  3
eca-logo-1
  1

  0
ARC
  5
166
100
AcDbEntity
  8
0
  6
ByLayer
 62
  256
370
   -1
100
AcDbCircle
 10
11.1840352802
 20
10.462484617
 40
7.01016792418
100
AcDbArc
 50
87.74620047419999
 51
274.031479733
  0
LINE
  5
167
100
AcDbEntity
  8
0
  6
ByLayer
 62
  256
370
   -1
100
AcDbLine
 10
11.6505585283
 20
3.4876144575
 11
15.7720702125
 21
3.49300107019
  0
ARC
  5
168
100
AcDbEntity
  8
0
  6
ByLayer
 62
  256
370
   -1
100
AcDbCircle
 10
24.6901653037
 20
10.5503839167
 40
11.2882077629
100
AcDbArc
 50
141.77912084
 51
217.944755456
  0
LINE
  5
169
100
AcDbEntity
  8
0
  6
ByLayer
 62
  256
370
   -1
100
AcDbLine
 10
11.4157479686
 20
17.4678202475
 11
15.753211389
 21
17.4834333126
  0
MTEXT
  5
16A
100
AcDbEntity
  8
0
  6
ByLayer
 62
  256
370
   -1
100
AcDbMText
 10
9.77225545204
 20
15.9819661849
 30
0
 40
2.5
 41
1.666666666666667
 71
    1
 72
    1
  1
E\PC\PA
  7
standard
210
0
220
0
230
1
 50
0
 73
    2
 44
1
  0
LINE
  5
16B
100
AcDbEntity
  8
0
  6
ByLayer
 62
  256
370
   -1
100
AcDbLine
 10
14.3045963348
 20
6.18126325039
 11
26.3045963348
 21
6.18126325039
  0
LINE
  5
16C
100
AcDbEntity
  8
0
  6
ByLayer
 62
  256
370
   -1
100
AcDbLine
 10
14.3045963348
 20
14.8973034095
 11
26.3045963348
 21
14.8973034095
  0
LINE
  5
16D
100
AcDbEntity
  8
0
  6
ByLayer
 62
  256
370
   -1
100
AcDbLine
 10
13.4136233407
 20
10.4424384393
 11
26.287020966
 21
10.4780773591
  0
ENDBLK
  5
62
330
60
100
AcDbEntity
  8
0
100
AcDbBlockEnd
  0
BLOCK
  5
64
330
63
100
AcDbEntity
  8
0
100
AcDbBlockBegin
  2
Terminal-in
 70
    0
 10
0
 20
0
  3
Terminal-in
  1

  0
CIRCLE
  5
16E
100
AcDbEntity
  8
0
  6
ByLayer
 62
  256
370
   -1
100
AcDbCircle
 10
0.008632910374930001
 20
10.7420130754
 40
3.34377954041
  0
LINE
  5
16F
100
AcDbEntity
  8
0
  6
ByLayer
 62
  256
370
   -1
100
AcDbLine
 10
0.008632910374930001
 20
0.0666705345714
 11
0.008632910374930001
 21
7.39823353496
  0
ENDBLK
  5
65
330
63
100
AcDbEntity
  8
0
100
AcDbBlockEnd
  0
BLOCK
  5
67
330
66
100
AcDbEntity
  8
0
100
AcDbBlockBegin
  2
Switch
 70
    0
 10
0
 20
0
  3
Switch
  1

  0
LINE
  5
170
100
AcDbEntity
  8
Contour
  6
ByLayer
 62
  256
370
   25
100
AcDbLine
 10
0
 20
0
 11
9
 21
0
  0
CIRCLE
  5
171
100
AcDbEntity
  8
Contour
  6
ByLayer
 62
  256
370
   25
100
AcDbCircle
 10
10
 20
0
 40
1
  0
LINE
  5
172
100
AcDbEntity
  8
Contour
  6
ByLayer
 62
  256
370
   25
100
AcDbLine
 10
30
 20
0
 11
21
 21
0
  0
CIRCLE
  5
173
100
AcDbEntity
  8
Contour
  6
ByLayer
 62
  256
370
   25
100
AcDbCircle
 10
20
 20
0
 40
1
  0
LINE
  5
174
100
AcDbEntity
  8
Contour
  6
ByLayer
 62
  256
370
   25
100
AcDbLine
 10
11
 20
0
 11
19.375
 21
3.75
  0
ENDBLK
  5
68
330
66
100
AcDbEntity
  8
0
100
AcDbBlockEnd
  0
BLOCK
  5
6A
330
69
100
AcDbEntity
  8
0
100
AcDbBlockBegin
  2
junction
 70
    0
 10
0
 20
0
  3
junction
  1

  0
HATCH
  5
175
100
AcDbEntity
  8
schematic
  6
ByLayer
 62
  256
370
   -1
100
AcDbHatch
 10
0
 20
0
 30
0
210
0
220
0
230
1
  2
SOLID
 70
    1
 71
    0
 91
    1
 92
    0
 93
    1
 72
    2
 10
-0.059588608
 20
-0.1342767104
 40
1.28918305915
 50
0
 51
360
 73
    1
 97
    0
 75
    0
 76
    1
 98
    0
  0
CIRCLE
  5
176
100
AcDbEntity
  8
0
  6
ByLayer
 62
  256
370
   -1
100
AcDbCircle
 10
-0.059588608
 20
-0.1342767104
 40
1.28918305915
  0
ENDBLK
  5
6B
330
69
100
AcDbEntity
  8
0
100
AcDbBlockEnd
  0
BLOCK
  5
6D
330
6C
100
AcDbEntity
  8
0
100
AcDbBlockBegin
  2
junction-1
 70
    0
 10
0
 20
0
  3
junction-1
  1

  0
CIRCLE
  5
177
100
AcDbEntity
  8
0
  6
ByLayer
 62
  256
370
   -1
100
AcDbCircle
 10
-0.059588608
 20
-0.1342767104
 40
1.28918305915
  0
ENDBLK
  5
6E
330
6C
100
AcDbEntity
  8
0
100
AcDbBlockEnd
  0
BLOCK
  5
70
330
6F
100
AcDbEntity
  8
0
100
AcDbBlockBegin
  2
Switch-0
 70
    0
 10
0
 20
0
  3
Switch-0
  1

  0
LINE
  5
178
100
AcDbEntity
  8
Contour
  6
ByLayer
 62
  256
370
   25
100
AcDbLine
 10
0
 20
0
 11
9
 21
0
  0
CIRCLE
  5
179
100
AcDbEntity
  8
Contour
  6
ByLayer
 62
  256
370
   25
100
AcDbCircle
 10
10
 20
0
 40
1
  0
LINE
  5
17A
100
AcDbEntity
  8
Contour
  6
ByLayer
 62
  256
370
   25
100
AcDbLine
 10
30
 20
0
 11
21
 21
0
  0
CIRCLE
  5
17B
100
AcDbEntity
  8
Contour
  6
ByLayer
 62
  256
370
   25
100
AcDbCircle
 10
20
 20
0
 40
1
  0
LINE
  5
17C
100
AcDbEntity
  8
Contour
  6
ByLayer
 62
  256
370
   25
100
AcDbLine
 10
11
 20
0
 11
19.375
 21
3.75
  0
ENDBLK
  5
71
330
6F
100
AcDbEntity
  8
0
100
AcDbBlockEnd
  0
BLOCK
  5
73
330
72
100
AcDbEntity
  8
0
100
AcDbBlockBegin
  2
Switch-1
 70
    0
 10
0
 20
0
  3
Switch-1
  1

  0
LINE
  5
17D
100
AcDbEntity
  8
Contour
  6
ByLayer
 62
  256
370
   25
100
AcDbLine
 10
0
 20
0
 11
9
 21
0
  0
CIRCLE
  5
17E
100
AcDbEntity
  8
Contour
  6
ByLayer
 62
  256
370
   25
100
AcDbCircle
 10
10
 20
0
 40
1
  0
LINE
  5
17F
100
AcDbEntity
  8
Contour
  6
ByLayer
 62
  256
370
   25
100
AcDbLine
 10
30
 20
0
 11
21
 21
0
  0
CIRCLE
  5
180
100
AcDbEntity
  8
Contour
  6
ByLayer
 62
  256
370
   25
100
AcDbCircle
 10
20
 20
0
 40
1
  0
LINE
  5
181
100
AcDbEntity
  8
Contour
  6
ByLayer
 62
  256
370
   25
100
AcDbLine
 10
11
 20
0
 11
19.375
 21
3.75
  0
ENDBLK
  5
74
330
72
100
AcDbEntity
  8
0
100
AcDbBlockEnd
  0
BLOCK
  5
76
330
75
100
AcDbEntity
  8
0
100
AcDbBlockBegin
  2
Switch-2
 70
    0
 10
0
 20
0
  3
Switch-2
  1

  0
LINE
  5
182
100
AcDbEntity
  8
Contour
  6
ByLayer
 62
  256
370
   25
100
AcDbLine
 10
0
 20
0
 11
9
 21
0
  0
CIRCLE
  5
183
100
AcDbEntity
  8
Contour
  6
ByLayer
 62
  256
370
   25
100
AcDbCircle
 10
10
 20
0
 40
1
  0
LINE
  5
184
100
AcDbEntity
  8
Contour
  6
ByLayer
 62
  256
370
   25
100
AcDbLine
 10
30
 20
0
 11
21
 21
0
  0
CIRCLE
  5
185
100
AcDbEntity
  8
Contour
  6
ByLayer
 62
  256
370
   25
100
AcDbCircle
 10
20
 20
0
 40
1
  0
LINE
  5
186
100
AcDbEntity
  8
Contour
  6
ByLayer
 62
  256
370
   25
100
AcDbLine
 10
11
 20
0
 11
19.375
 21
3.75
  0
ENDBLK
  5
77
330
75
100
AcDbEntity
  8
0
100
AcDbBlockEnd
  0
BLOCK
  5
79
330
78
100
AcDbEntity
  8
0
100
AcDbBlockBegin
  2
junction-3
 70
    0
 10
0
 20
0
  3
junction-3
  1

  0
CIRCLE
  5
187
100
AcDbEntity
  8
0
  6
ByLayer
 62
  256
370
   -1
100
AcDbCircle
 10
-0.059588608
 20
-0.1342767104
 40
1.28918305915
  0
ENDBLK
  5
7A
330
78
100
AcDbEntity
  8
0
100
AcDbBlockEnd
  0
BLOCK
  5
7C
330
7B
100
AcDbEntity
  8
0
100
AcDbBlockBegin
  2
junction-4
 70
    0
 10
0
 20
0
  3
junction-4
  1

  0
CIRCLE
  5
188
100
AcDbEntity
  8
0
  6
ByLayer
 62
  256
370
   -1
100
AcDbCircle
 10
-0.059588608
 20
-0.1342767104
 40
1.28918305915
  0
ENDBLK
  5
7D
330
7B
100
AcDbEntity
  8
0
100
AcDbBlockEnd
  0
BLOCK
  5
7F
330
7E
100
AcDbEntity
  8
0
100
AcDbBlockBegin
  2
Switch-4
 70
    0
 10
0
 20
0
  3
Switch-4
  1

  0
LINE
  5
189
100
AcDbEntity
  8
Contour
  6
ByLayer
 62
  256
370
   25
100
AcDbLine
 10
0
 20
0
 11
9
 21
0
  0
CIRCLE
  5
18A
100
AcDbEntity
  8
Contour
  6
ByLayer
 62
  256
370
   25
100
AcDbCircle
 10
10
 20
0
 40
1
  0
LINE
  5
18B
100
AcDbEntity
  8
Contour
  6
ByLayer
 62
  256
370
   25
100
AcDbLine
 10
30
 20
0
 11
21
 21
0
  0
CIRCLE
  5
18C
100
AcDbEntity
  8
Contour
  6
ByLayer
 62
  256
370
   25
100
AcDbCircle
 10
20
 20
0
 40
1
  0
LINE
  5
18D
100
AcDbEntity
  8
Contour
  6
ByLayer
 62
  256
370
   25
100
AcDbLine
 10
11
 20
0
 11
19.375
 21
3.75
  0
ENDBLK
  5
80
330
7E
100
AcDbEntity
  8
0
100
AcDbBlockEnd
  0
BLOCK
  5
82
330
81
100
AcDbEntity
  8
0
100
AcDbBlockBegin
  2
Switch-5
 70
    0
 10
0
 20
0
  3
Switch-5
  1

  0
LINE
  5
18E
100
AcDbEntity
  8
Contour
  6
ByLayer
 62
  256
370
   25
100
AcDbLine
 10
0
 20
0
 11
9
 21
0
  0
CIRCLE
  5
18F
100
AcDbEntity
  8
Contour
  6
ByLayer
 62
  256
370
   25
100
AcDbCircle
 10
10
 20
0
 40
1
  0
LINE
  5
190
100
AcDbEntity
  8
Contour
  6
ByLayer
 62
  256
370
   25
100
AcDbLine
 10
30
 20
0
 11
21
 21
0
  0
CIRCLE
  5
191
100
AcDbEntity
  8
Contour
  6
ByLayer
 62
  256
370
   25
100
AcDbCircle
 10
20
 20
0
 40
1
  0
LINE
  5
192
100
AcDbEntity
  8
Contour
  6
ByLayer
 62
  256
370
   25
100
AcDbLine
 10
11
 20
0
 11
19.375
 21
3.75
  0
ENDBLK
  5
83
330
81
100
AcDbEntity
  8
0
100
AcDbBlockEnd
  0
BLOCK
  5
85
330
84
100
AcDbEntity
  8
0
100
AcDbBlockBegin
  2
Switch-6
 70
    0
 10
0
 20
0
  3
Switch-6
  1

  0
LINE
  5
193
100
AcDbEntity
  8
Contour
  6
ByLayer
 62
  256
370
   25
100
AcDbLine
 10
0
 20
0
 11
9
 21
0
  0
CIRCLE
  5
194
100
AcDbEntity
  8
Contour
  6
ByLayer
 62
  256
370
   25
100
AcDbCircle
 10
10
 20
0
 40
1
  0
LINE
  5
195
100
AcDbEntity
  8
Contour
  6
ByLayer
 62
  256
370
   25
100
AcDbLine
 10
30
 20
0
 11
21
 21
0
  0
CIRCLE
  5
196
100
AcDbEntity
  8
Contour
  6
ByLayer
 62
  256
370
   25
100
AcDbCircle
 10
20
 20
0
 40
1
  0
LINE
  5
197
100
AcDbEntity
  8
Contour
  6
ByLayer
 62
  256
370
   25
100
AcDbLine
 10
11
 20
0
 11
19.375
 21
3.75
  0
ENDBLK
  5
86
330
84
100
AcDbEntity
  8
0
100
AcDbBlockEnd
  0
BLOCK
  5
88
330
87
100
AcDbEntity
  8
0
100
AcDbBlockBegin
  2
junction-6
 70
    0
 10
0
 20
0
  3
junction-6
  1

  0
CIRCLE
  5
198
100
AcDbEntity
  8
0
  6
ByLayer
 62
  256
370
   -1
100
AcDbCircle
 10
-0.059588608
 20
-0.1342767104
 40
1.28918305915
  0
ENDBLK
  5
89
330
87
100
AcDbEntity
  8
0
100
AcDbBlockEnd
  0
BLOCK
  5
8B
330
8A
100
AcDbEntity
  8
0
100
AcDbBlockBegin
  2
s3
 70
    0
 10
0
 20
0
  3
s3
  1

  0
LINE
  5
199
100
AcDbEntity
  8
0
  6
CONTINUOUS
 62
    7
370
   70
100
AcDbLine
 10
4.5
 20
0
 11
0
 21
0
  0
LINE
  5
19A
100
AcDbEntity
  8
0
  6
CONTINUOUS
 62
    7
370
   70
100
AcDbLine
 10
15
 20
0
 11
10.5
 21
0
  0
LINE
  5
19B
100
AcDbEntity
  8
0
  6
CONTINUOUS
 62
    7
370
   70
100
AcDbLine
 10
4.5
 20
0
 11
11.5
 21
4.04
  0
LINE
  5
19C
100
AcDbEntity
  8
0
  6
CONTINUOUS
 62
    7
370
   70
100
AcDbLine
 10
10.5
 20
2
 11
10.5
 21
6
  0
LINE
  5
19D
100
AcDbEntity
  8
0
  6
CONTINUOUS
 62
    7
370
   70
100
AcDbLine
 10
10.5
 20
6
 11
15
 21
6
  0
POINT
  5
19E
100
AcDbEntity
  8
0
  6
CONTINUOUS
 62
    7
370
   70
100
AcDbPoint
 10
0
 20
0
  0
POINT
  5
19F
100
AcDbEntity
  8
0
  6
CONTINUOUS
 62
    7
370
   70
100
AcDbPoint
 10
15
 20
0
  0
POINT
  5
1A0
100
AcDbEntity
  8
0
  6
CONTINUOUS
 62
    7
370
   70
100
AcDbPoint
 10
15
 20
6
  0
ENDBLK
  5
8C
330
8A
100
AcDbEntity
  8
0
100
AcDbBlockEnd
  0
BLOCK
  5
8E
330
8D
100
AcDbEntity
  8
0
100
AcDbBlockBegin
  2
junction-7
 70
    0
 10
0
 20
0
  3
junction-7
  1

  0
CIRCLE
  5
1A1
100
AcDbEntity
  8
0
  6
ByLayer
 62
  256
370
   -1
100
AcDbCircle
 10
-0.059588608
 20
-0.1342767104
 40
1.28918305915
  0
ENDBLK
  5
8F
330
8D
100
AcDbEntity
  8
0
100
AcDbBlockEnd
  0
BLOCK
  5
91
330
90
100
AcDbEntity
  8
0
100
AcDbBlockBegin
  2
junction-8
 70
    0
 10
0
 20
0
  3
junction-8
  1

  0
CIRCLE
  5
1A2
100
AcDbEntity
  8
0
  6
ByLayer
 62
  256
370
   -1
100
AcDbCircle
 10
-0.059588608
 20
-0.1342767104
 40
1.28918305915
  0
ENDBLK
  5
92
330
90
100
AcDbEntity
  8
0
100
AcDbBlockEnd
  0
BLOCK
  5
94
330
93
100
AcDbEntity
  8
0
100
AcDbBlockBegin
  2
junction-9
 70
    0
 10
0
 20
0
  3
junction-9
  1

  0
CIRCLE
  5
1A3
100
AcDbEntity
  8
0
  6
ByLayer
 62
  256
370
   -1
100
AcDbCircle
 10
-0.059588608
 20
-0.1342767104
 40
1.28918305915
  0
ENDBLK
  5
95
330
93
100
AcDbEntity
  8
0
100
AcDbBlockEnd
  0
BLOCK
  5
97
330
96
100
AcDbEntity
  8
0
100
AcDbBlockBegin
  2
s1-0
 70
    0
 10
0
 20
0
  3
s1-0
  1

  0
LINE
  5
1A4
100
AcDbEntity
  8
0
  6
CONTINUOUS
 62
    7
370
   70
100
AcDbLine
 10
4.5
 20
0
 11
0
 21
0
  0
LINE
  5
1A5
100
AcDbEntity
  8
0
  6
CONTINUOUS
 62
    7
370
   70
100
AcDbLine
 10
15
 20
0
 11
10.5
 21
0
  0
LINE
  5
1A6
100
AcDbEntity
  8
0
  6
CONTINUOUS
 62
    7
370
   70
100
AcDbLine
 10
4.5
 20
0
 11
10.5
 21
3.46
  0
POINT
  5
1A7
100
AcDbEntity
  8
0
  6
CONTINUOUS
 62
    7
370
   70
100
AcDbPoint
 10
0
 20
0
  0
POINT
  5
1A8
100
AcDbEntity
  8
0
  6
CONTINUOUS
 62
    7
370
   70
100
AcDbPoint
 10
15
 20
0
  0
ENDBLK
  5
98
330
96
100
AcDbEntity
  8
0
100
AcDbBlockEnd
  0
BLOCK
  5
9A
330
99
100
AcDbEntity
  8
0
100
AcDbBlockBegin
  2
s1-1
 70
    0
 10
0
 20
0
  3
s1-1
  1

  0
LINE
  5
1A9
100
AcDbEntity
  8
0
  6
CONTINUOUS
 62
    7
370
   70
100
AcDbLine
 10
4.5
 20
0
 11
0
 21
0
  0
LINE
  5
1AA
100
AcDbEntity
  8
0
  6
CONTINUOUS
 62
    7
370
   70
100
AcDbLine
 10
15
 20
0
 11
10.5
 21
0
  0
LINE
  5
1AB
100
AcDbEntity
  8
0
  6
CONTINUOUS
 62
    7
370
   70
100
AcDbLine
 10
4.5
 20
0
 11
10.5
 21
3.46
  0
POINT
  5
1AC
100
AcDbEntity
  8
0
  6
CONTINUOUS
 62
    7
370
   70
100
AcDbPoint
 10
0
 20
0
  0
POINT
  5
1AD
100
AcDbEntity
  8
0
  6
CONTINUOUS
 62
    7
370
   70
100
AcDbPoint
 10
15
 20
0
  0
ENDBLK
  5
9B
330
99
100
AcDbEntity
  8
0
100
AcDbBlockEnd
  0
BLOCK
  5
9D
330
9C
100
AcDbEntity
  8
0
100
AcDbBlockBegin
  2
RRS
 70
    0
 10
0
 20
0
  3
RRS
  1

  0
INSERT
  5
1AE
100
AcDbEntity
  8
0
  6
ByLayer
 62
  256
370
   25
100
AcDbBlockReference
  2
s1-0
 10
1.5625
 20
4.6875
 30
0
 41
1
 42
1
 43
0
 50
0
 70
    1
 71
    1
 44
0
 45
0
  0
INSERT
  5
1AF
100
AcDbEntity
  8
0
  6
ByLayer
 62
  256
370
   25
100
AcDbBlockReference
  2
s1-1
 10
17.2
 20
4.6
 30
0
 41
1
 42
1
 43
0
 50
0
 70
    1
 71
    1
 44
0
 45
0
  0
LINE
  5
1B0
100
AcDbEntity
  8
0
  6
ByLayer
 62
  256
370
   25
100
AcDbLine
 10
-0.2
 20
0.2
 11
34.6
 21
0.2
  0
LINE
  5
1B1
100
AcDbEntity
  8
0
  6
ByLayer
 62
  256
370
   25
100
AcDbLine
 10
34.6
 20
0.2
 11
34.6
 21
10.6
  0
LINE
  5
1B2
100
AcDbEntity
  8
0
  6
ByLayer
 62
  256
370
   25
100
AcDbLine
 10
34.6
 20
10.6
 11
-0.2
 21
10.6
  0
LINE
  5
1B3
100
AcDbEntity
  8
0
  6
ByLayer
 62
  256
370
   25
100
AcDbLine
 10
-0.2
 20
10.6
 11
-0.2
 21
0.2
  0
LINE
  5
1B4
100
AcDbEntity
  8
0
  6
ByLayer
 62
  256
370
   25
100
AcDbLine
 10
-7.4
 20
4.4
 11
2.6
 21
4.4
  0
LINE
  5
1B5
100
AcDbEntity
  8
0
  6
ByLayer
 62
  256
370
   25
100
AcDbLine
 10
32.11264
 20
4.58752
 11
44.57024
 21
4.58752
  0
ENDBLK
  5
9E
330
9C
100
AcDbEntity
  8
0
100
AcDbBlockEnd
  0
BLOCK
  5
A0
330
9F
100
AcDbEntity
  8
0
100
AcDbBlockBegin
  2
Resistor-vert
 70
    0
 10
0
 20
0
  3
Resistor-vert
  1

  0
LINE
  5
1B6
100
AcDbEntity
  8
Contour
  6
ByLayer
 62
  256
370
   25
100
AcDbLine
 10
0
 20
20
 11
5
 21
17.5
  0
LINE
  5
1B7
100
AcDbEntity
  8
Contour
  6
ByLayer
 62
  256
370
   25
100
AcDbLine
 10
5
 20
17.5
 11
0
 21
15
  0
LINE
  5
1B8
100
AcDbEntity
  8
Contour
  6
ByLayer
 62
  256
370
   25
100
AcDbLine
 10
0
 20
15
 11
5
 21
12.5
  0
LINE
  5
1B9
100
AcDbEntity
  8
Contour
  6
ByLayer
 62
  256
370
   25
100
AcDbLine
 10
5
 20
12.5
 11
0
 21
10
  0
LINE
  5
1BA
100
AcDbEntity
  8
Contour
  6
ByLayer
 62
  256
370
   25
100
AcDbLine
 10
0
 20
10
 11
0
 21
0
  0
LINE
  5
1BB
100
AcDbEntity
  8
Contour
  6
ByLayer
 62
  256
370
   25
100
AcDbLine
 10
0
 20
20
 11
5
 21
22.5
  0
LINE
  5
1BC
100
AcDbEntity
  8
Contour
  6
ByLayer
 62
  256
370
   25
100
AcDbLine
 10
5
 20
22.5
 11
0
 21
25
  0
LINE
  5
1BD
100
AcDbEntity
  8
Contour
  6
ByLayer
 62
  256
370
   25
100
AcDbLine
 10
0
 20
25
 11
5
 21
27.5
  0
LINE
  5
1BE
100
AcDbEntity
  8
Contour
  6
ByLayer
 62
  256
370
   25
100
AcDbLine
 10
5
 20
27.5
 11
0
 21
30
  0
LINE
  5
1BF
100
AcDbEntity
  8
Contour
  6
ByLayer
 62
  256
370
   25
100
AcDbLine
 10
0
 20
30
 11
0
 21
40
  0
ENDBLK
  5
A1
330
9F
100
AcDbEntity
  8
0
100
AcDbBlockEnd
  0
BLOCK
  5
A3
330
A2
100
AcDbEntity
  8
0
100
AcDbBlockBegin
  2
Terminal-Earth
 70
    0
 10
0
 20
0
  3
Terminal-Earth
  1

  0
LINE
  5
1C0
100
AcDbEntity
  8
Contour
  6
ByLayer
 62
  256
370
   25
100
AcDbLine
 10
0
 20
0
 11
0
 21
-10
  0
LINE
  5
1C1
100
AcDbEntity
  8
Contour
  6
ByLayer
 62
  256
370
   25
100
AcDbLine
 10
0
 20
-10
 11
-5
 21
-10
  0
LINE
  5
1C2
100
AcDbEntity
  8
Contour
  6
ByLayer
 62
  256
370
   25
100
AcDbLine
 10
0
 20
-10
 11
5
 21
-10
  0
LINE
  5
1C3
100
AcDbEntity
  8
Contour
  6
ByLayer
 62
  256
370
   25
100
AcDbLine
 10
0
 20
-11.25
 11
-3.75
 21
-11.25
  0
LINE
  5
1C4
100
AcDbEntity
  8
Contour
  6
ByLayer
 62
  256
370
   25
100
AcDbLine
 10
0
 20
-11.25
 11
3.75
 21
-11.25
  0
LINE
  5
1C5
100
AcDbEntity
  8
Contour
  6
ByLayer
 62
  256
370
   25
100
AcDbLine
 10
0
 20
-12.5
 11
-2.5
 21
-12.5
  0
LINE
  5
1C6
100
AcDbEntity
  8
Contour
  6
ByLayer
 62
  256
370
   25
100
AcDbLine
 10
0
 20
-12.5
 11
2.5
 21
-12.5
  0
LINE
  5
1C7
100
AcDbEntity
  8
Contour
  6
ByLayer
 62
  256
370
   25
100
AcDbLine
 10
0
 20
-13.75
 11
-1.25
 21
-13.75
  0
LINE
  5
1C8
100
AcDbEntity
  8
Contour
  6
ByLayer
 62
  256
370
   25
100
AcDbLine
 10
0
 20
-13.75
 11
1.25
 21
-13.75
  0
LINE
  5
1C9
100
AcDbEntity
  8
Contour
  6
ByLayer
 62
  256
370
   25
100
AcDbLine
 10
0
 20
-15
 11
0
 21
-14.375
  0
ENDBLK
  5
A4
330
A2
100
AcDbEntity
  8
0
100
AcDbBlockEnd
  0
BLOCK
  5
A6
330
A5
100
AcDbEntity
  8
0
100
AcDbBlockBegin
  2
r1
 70
    0
 10
0
 20
0
  3
r1
  1

  0
POINT
  5
1CA
100
AcDbEntity
  8
0
  6
CONTINUOUS
 62
    7
370
   70
100
AcDbPoint
 10
0
 20
0
  0
POINT
  5
1CB
100
AcDbEntity
  8
0
  6
CONTINUOUS
 62
    7
370
   70
100
AcDbPoint
 10
15
 20
0
  0
LINE
  5
1CC
100
AcDbEntity
  8
0
  6
CONTINUOUS
 62
    7
370
   25
100
AcDbLine
 10
4.5
 20
6
 11
10.5
 21
6
  0
LINE
  5
1CD
100
AcDbEntity
  8
0
  6
CONTINUOUS
 62
    7
370
   25
100
AcDbLine
 10
4.5
 20
-6
 11
10.5
 21
-6
  0
LINE
  5
1CE
100
AcDbEntity
  8
0
  6
CONTINUOUS
 62
    7
370
   25
100
AcDbLine
 10
10.5
 20
-6
 11
10.5
 21
6
  0
LINE
  5
1CF
100
AcDbEntity
  8
0
  6
CONTINUOUS
 62
    7
370
   25
100
AcDbLine
 10
4.5
 20
6
 11
4.5
 21
-6
  0
LINE
  5
1D0
100
AcDbEntity
  8
0
  6
CONTINUOUS
 62
    7
370
   25
100
AcDbLine
 10
15
 20
0
 11
10.5
 21
0
  0
LINE
  5
1D1
100
AcDbEntity
  8
0
  6
CONTINUOUS
 62
    7
370
   25
100
AcDbLine
 10
4.5
 20
0
 11
0
 21
0
  0
ENDBLK
  5
A7
330
A5
100
AcDbEntity
  8
0
100
AcDbBlockEnd
  0
BLOCK
  5
A9
330
A8
100
AcDbEntity
  8
0
100
AcDbBlockBegin
  2
diodo_bobina
 70
    0
 10
0
 20
0
  3
diodo_bobina
  1

  0
LINE
  5
1D2
100
AcDbEntity
  8
0
  6
CONTINUOUS
 62
    7
370
   25
100
AcDbLine
 10
0
 20
0
 11
0
 21
10
  0
LINE
  5
1D3
100
AcDbEntity
  8
0
  6
CONTINUOUS
 62
    7
370
   25
100
AcDbLine
 10
0
 20
7
 11
2
 21
3
  0
LINE
  5
1D4
100
AcDbEntity
  8
0
  6
CONTINUOUS
 62
    7
370
   25
100
AcDbLine
 10
2
 20
3
 11
-2
 21
3
  0
LINE
  5
1D5
100
AcDbEntity
  8
0
  6
CONTINUOUS
 62
    7
370
   25
100
AcDbLine
 10
-2
 20
3
 11
0
 21
7
  0
LINE
  5
1D6
100
AcDbEntity
  8
0
  6
CONTINUOUS
 62
    7
370
   25
100
AcDbLine
 10
2
 20
7
 11
-2
 21
7
  0
ENDBLK
  5
AA
330
A8
100
AcDbEntity
  8
0
100
AcDbBlockEnd
  0
BLOCK
  5
AC
330
AB
100
AcDbEntity
  8
0
100
AcDbBlockBegin
  2
mcp2014x-connector
 70
    0
 10
0
 20
0
  3
mcp2014x-connector
  1

  0
LINE
  5
1D7
100
AcDbEntity
  8
0
  6
ByLayer
 62
  256
370
   -1
100
AcDbLine
 10
0.00176817107769
 20
6.17580183935
 11
6.25176817108
 21
6.17580183935
  0
LINE
  5
1D8
100
AcDbEntity
  8
0
  6
ByLayer
 62
  256
370
   -1
100
AcDbLine
 10
6.25176817108
 20
6.17580183935
 11
6.25176817108
 21
0.00392683935003
  0
LINE
  5
1D9
100
AcDbEntity
  8
0
  6
ByLayer
 62
  256
370
   -1
100
AcDbLine
 10
6.25176817108
 20
0.00392683935003
 11
0.00176817107769
 21
0.00392683935003
  0
LINE
  5
1DA
100
AcDbEntity
  8
0
  6
ByLayer
 62
  256
370
   -1
100
AcDbLine
 10
0.00176817107769
 20
0.00392683935003
 11
0.00176817107769
 21
6.17580183935
  0
ENDBLK
  5
AD
330
AB
100
AcDbEntity
  8
0
100
AcDbBlockEnd
  0
BLOCK
  5
AF
330
AE
100
AcDbEntity
  8
0
100
AcDbBlockBegin
  2
mcp2014x-connector-0
 70
    0
 10
0
 20
0
  3
mcp2014x-connector-0
  1

  0
LINE
  5
1DB
100
AcDbEntity
  8
0
  6
ByLayer
 62
  256
370
   -1
100
AcDbLine
 10
0.00176817107769
 20
6.17580183935
 11
6.25176817108
 21
6.17580183935
  0
LINE
  5
1DC
100
AcDbEntity
  8
0
  6
ByLayer
 62
  256
370
   -1
100
AcDbLine
 10
6.25176817108
 20
6.17580183935
 11
6.25176817108
 21
0.00392683935003
  0
LINE
  5
1DD
100
AcDbEntity
  8
0
  6
ByLayer
 62
  256
370
   -1
100
AcDbLine
 10
6.25176817108
 20
0.00392683935003
 11
0.00176817107769
 21
0.00392683935003
  0
LINE
  5
1DE
100
AcDbEntity
  8
0
  6
ByLayer
 62
  256
370
   -1
100
AcDbLine
 10
0.00176817107769
 20
0.00392683935003
 11
0.00176817107769
 21
6.17580183935
  0
ENDBLK
  5
B0
330
AE
100
AcDbEntity
  8
0
100
AcDbBlockEnd
  0
BLOCK
  5
B2
330
B1
100
AcDbEntity
  8
0
100
AcDbBlockBegin
  2
mcp2014x-connector-1
 70
    0
 10
0
 20
0
  3
mcp2014x-connector-1
  1

  0
LINE
  5
1DF
100
AcDbEntity
  8
0
  6
ByLayer
 62
  256
370
   -1
100
AcDbLine
 10
0.00176817107769
 20
6.17580183935
 11
6.25176817108
 21
6.17580183935
  0
LINE
  5
1E0
100
AcDbEntity
  8
0
  6
ByLayer
 62
  256
370
   -1
100
AcDbLine
 10
6.25176817108
 20
6.17580183935
 11
6.25176817108
 21
0.00392683935003
  0
LINE
  5
1E1
100
AcDbEntity
  8
0
  6
ByLayer
 62
  256
370
   -1
100
AcDbLine
 10
6.25176817108
 20
0.00392683935003
 11
0.00176817107769
 21
0.00392683935003
  0
LINE
  5
1E2
100
AcDbEntity
  8
0
  6
ByLayer
 62
  256
370
   -1
100
AcDbLine
 10
0.00176817107769
 20
0.00392683935003
 11
0.00176817107769
 21
6.17580183935
  0
ENDBLK
  5
B3
330
B1
100
AcDbEntity
  8
0
100
AcDbBlockEnd
  0
BLOCK
  5
B5
330
B4
100
AcDbEntity
  8
0
100
AcDbBlockBegin
  2
mcp2014x-connector-2
 70
    0
 10
0
 20
0
  3
mcp2014x-connector-2
  1

  0
LINE
  5
1E3
100
AcDbEntity
  8
0
  6
ByLayer
 62
  256
370
   -1
100
AcDbLine
 10
0.00176817107769
 20
6.17580183935
 11
6.25176817108
 21
6.17580183935
  0
LINE
  5
1E4
100
AcDbEntity
  8
0
  6
ByLayer
 62
  256
370
   -1
100
AcDbLine
 10
6.25176817108
 20
6.17580183935
 11
6.25176817108
 21
0.00392683935003
  0
LINE
  5
1E5
100
AcDbEntity
  8
0
  6
ByLayer
 62
  256
370
   -1
100
AcDbLine
 10
6.25176817108
 20
0.00392683935003
 11
0.00176817107769
 21
0.00392683935003
  0
LINE
  5
1E6
100
AcDbEntity
  8
0
  6
ByLayer
 62
  256
370
   -1
100
AcDbLine
 10
0.00176817107769
 20
0.00392683935003
 11
0.00176817107769
 21
6.17580183935
  0
ENDBLK
  5
B6
330
B4
100
AcDbEntity
  8
0
100
AcDbBlockEnd
  0
BLOCK
  5
B8
330
B7
100
AcDbEntity
  8
0
100
AcDbBlockBegin
  2
mcp2014x-connector-3
 70
    0
 10
0
 20
0
  3
mcp2014x-connector-3
  1

  0
LINE
  5
1E7
100
AcDbEntity
  8
0
  6
ByLayer
 62
  256
370
   -1
100
AcDbLine
 10
0.00176817107769
 20
6.17580183935
 11
6.25176817108
 21
6.17580183935
  0
LINE
  5
1E8
100
AcDbEntity
  8
0
  6
ByLayer
 62
  256
370
   -1
100
AcDbLine
 10
6.25176817108
 20
6.17580183935
 11
6.25176817108
 21
0.00392683935003
  0
LINE
  5
1E9
100
AcDbEntity
  8
0
  6
ByLayer
 62
  256
370
   -1
100
AcDbLine
 10
6.25176817108
 20
0.00392683935003
 11
0.00176817107769
 21
0.00392683935003
  0
LINE
  5
1EA
100
AcDbEntity
  8
0
  6
ByLayer
 62
  256
370
   -1
100
AcDbLine
 10
0.00176817107769
 20
0.00392683935003
 11
0.00176817107769
 21
6.17580183935
  0
ENDBLK
  5
B9
330
B7
100
AcDbEntity
  8
0
100
AcDbBlockEnd
  0
BLOCK
  5
BB
330
BA
100
AcDbEntity
  8
0
100
AcDbBlockBegin
  2
mcp2014x-connector-4
 70
    0
 10
0
 20
0
  3
mcp2014x-connector-4
  1

  0
LINE
  5
1EB
100
AcDbEntity
  8
0
  6
ByLayer
 62
  256
370
   -1
100
AcDbLine
 10
0.00176817107769
 20
6.17580183935
 11
6.25176817108
 21
6.17580183935
  0
LINE
  5
1EC
100
AcDbEntity
  8
0
  6
ByLayer
 62
  256
370
   -1
100
AcDbLine
 10
6.25176817108
 20
6.17580183935
 11
6.25176817108
 21
0.00392683935003
  0
LINE
  5
1ED
100
AcDbEntity
  8
0
  6
ByLayer
 62
  256
370
   -1
100
AcDbLine
 10
6.25176817108
 20
0.00392683935003
 11
0.00176817107769
 21
0.00392683935003
  0
LINE
  5
1EE
100
AcDbEntity
  8
0
  6
ByLayer
 62
  256
370
   -1
100
AcDbLine
 10
0.00176817107769
 20
0.00392683935003
 11
0.00176817107769
 21
6.17580183935
  0
ENDBLK
  5
BC
330
BA
100
AcDbEntity
  8
0
100
AcDbBlockEnd
  0
BLOCK
  5
BE
330
BD
100
AcDbEntity
  8
0
100
AcDbBlockBegin
  2
mcp2014x-connector-5
 70
    0
 10
0
 20
0
  3
mcp2014x-connector-5
  1

  0
LINE
  5
1EF
100
AcDbEntity
  8
0
  6
ByLayer
 62
  256
370
   -1
100
AcDbLine
 10
0.00176817107769
 20
6.17580183935
 11
6.25176817108
 21
6.17580183935
  0
LINE
  5
1F0
100
AcDbEntity
  8
0
  6
ByLayer
 62
  256
370
   -1
100
AcDbLine
 10
6.25176817108
 20
6.17580183935
 11
6.25176817108
 21
0.00392683935003
  0
LINE
  5
1F1
100
AcDbEntity
  8
0
  6
ByLayer
 62
  256
370
   -1
100
AcDbLine
 10
6.25176817108
 20
0.00392683935003
 11
0.00176817107769
 21
0.00392683935003
  0
LINE
  5
1F2
100
AcDbEntity
  8
0
  6
ByLayer
 62
  256
370
   -1
100
AcDbLine
 10
0.00176817107769
 20
0.00392683935003
 11
0.00176817107769
 21
6.17580183935
  0
ENDBLK
  5
BF
330
BD
100
AcDbEntity
  8
0
100
AcDbBlockEnd
  0
BLOCK
  5
C1
330
C0
100
AcDbEntity
  8
0
100
AcDbBlockBegin
  2
mcp2014x-connector-6
 70
    0
 10
0
 20
0
  3
mcp2014x-connector-6
  1

  0
LINE
  5
1F3
100
AcDbEntity
  8
0
  6
ByLayer
 62
  256
370
   -1
100
AcDbLine
 10
0.00176817107769
 20
6.17580183935
 11
6.25176817108
 21
6.17580183935
  0
LINE
  5
1F4
100
AcDbEntity
  8
0
  6
ByLayer
 62
  256
370
   -1
100
AcDbLine
 10
6.25176817108
 20
6.17580183935
 11
6.25176817108
 21
0.00392683935003
  0
LINE
  5
1F5
100
AcDbEntity
  8
0
  6
ByLayer
 62
  256
370
   -1
100
AcDbLine
 10
6.25176817108
 20
0.00392683935003
 11
0.00176817107769
 21
0.00392683935003
  0
LINE
  5
1F6
100
AcDbEntity
  8
0
  6
ByLayer
 62
  256
370
   -1
100
AcDbLine
 10
0.00176817107769
 20
0.00392683935003
 11
0.00176817107769
 21
6.17580183935
  0
ENDBLK
  5
C2
330
C0
100
AcDbEntity
  8
0
100
AcDbBlockEnd
  0
BLOCK
  5
C4
330
C3
100
AcDbEntity
  8
0
100
AcDbBlockBegin
  2
mcp2014x-connector-7
 70
    0
 10
0
 20
0
  3
mcp2014x-connector-7
  1

  0
LINE
  5
1F7
100
AcDbEntity
  8
0
  6
ByLayer
 62
  256
370
   -1
100
AcDbLine
 10
0.00176817107769
 20
6.17580183935
 11
6.25176817108
 21
6.17580183935
  0
LINE
  5
1F8
100
AcDbEntity
  8
0
  6
ByLayer
 62
  256
370
   -1
100
AcDbLine
 10
6.25176817108
 20
6.17580183935
 11
6.25176817108
 21
0.00392683935003
  0
LINE
  5
1F9
100
AcDbEntity
  8
0
  6
ByLayer
 62
  256
370
   -1
100
AcDbLine
 10
6.25176817108
 20
0.00392683935003
 11
0.00176817107769
 21
0.00392683935003
  0
LINE
  5
1FA
100
AcDbEntity
  8
0
  6
ByLayer
 62
  256
370
   -1
100
AcDbLine
 10
0.00176817107769
 20
0.00392683935003
 11
0.00176817107769
 21
6.17580183935
  0
ENDBLK
  5
C5
330
C3
100
AcDbEntity
  8
0
100
AcDbBlockEnd
  0
BLOCK
  5
C7
330
C6
100
AcDbEntity
  8
0
100
AcDbBlockBegin
  2
mcp2014x-connector-8
 70
    0
 10
0
 20
0
  3
mcp2014x-connector-8
  1

  0
LINE
  5
1FB
100
AcDbEntity
  8
0
  6
ByLayer
 62
  256
370
   -1
100
AcDbLine
 10
0.00176817107769
 20
6.17580183935
 11
6.25176817108
 21
6.17580183935
  0
LINE
  5
1FC
100
AcDbEntity
  8
0
  6
ByLayer
 62
  256
370
   -1
100
AcDbLine
 10
6.25176817108
 20
6.17580183935
 11
6.25176817108
 21
0.00392683935003
  0
LINE
  5
1FD
100
AcDbEntity
  8
0
  6
ByLayer
 62
  256
370
   -1
100
AcDbLine
 10
6.25176817108
 20
0.00392683935003
 11
0.00176817107769
 21
0.00392683935003
  0
LINE
  5
1FE
100
AcDbEntity
  8
0
  6
ByLayer
 62
  256
370
   -1
100
AcDbLine
 10
0.00176817107769
 20
0.00392683935003
 11
0.00176817107769
 21
6.17580183935
  0
ENDBLK
  5
C8
330
C6
100
AcDbEntity
  8
0
100
AcDbBlockEnd
  0
BLOCK
  5
CA
330
C9
100
AcDbEntity
  8
0
100
AcDbBlockBegin
  2
mcp2014x-connector-9
 70
    0
 10
0
 20
0
  3
mcp2014x-connector-9
  1

  0
LINE
  5
1FF
100
AcDbEntity
  8
0
  6
ByLayer
 62
  256
370
   -1
100
AcDbLine
 10
0.00176817107769
 20
6.17580183935
 11
6.25176817108
 21
6.17580183935
  0
LINE
  5
200
100
AcDbEntity
  8
0
  6
ByLayer
 62
  256
370
   -1
100
AcDbLine
 10
6.25176817108
 20
6.17580183935
 11
6.25176817108
 21
0.00392683935003
  0
LINE
  5
201
100
AcDbEntity
  8
0
  6
ByLayer
 62
  256
370
   -1
100
AcDbLine
 10
6.25176817108
 20
0.00392683935003
 11
0.00176817107769
 21
0.00392683935003
  0
LINE
  5
202
100
AcDbEntity
  8
0
  6
ByLayer
 62
  256
370
   -1
100
AcDbLine
 10
0.00176817107769
 20
0.00392683935003
 11
0.00176817107769
 21
6.17580183935
  0
ENDBLK
  5
CB
330
C9
100
AcDbEntity
  8
0
100
AcDbBlockEnd
  0
BLOCK
  5
CD
330
CC
100
AcDbEntity
  8
0
100
AcDbBlockBegin
  2
mcp2014x-connector-10
 70
    0
 10
0
 20
0
  3
mcp2014x-connector-10
  1

  0
LINE
  5
203
100
AcDbEntity
  8
0
  6
ByLayer
 62
  256
370
   -1
100
AcDbLine
 10
0.00176817107769
 20
6.17580183935
 11
6.25176817108
 21
6.17580183935
  0
LINE
  5
204
100
AcDbEntity
  8
0
  6
ByLayer
 62
  256
370
   -1
100
AcDbLine
 10
6.25176817108
 20
6.17580183935
 11
6.25176817108
 21
0.00392683935003
  0
LINE
  5
205
100
AcDbEntity
  8
0
  6
ByLayer
 62
  256
370
   -1
100
AcDbLine
 10
6.25176817108
 20
0.00392683935003
 11
0.00176817107769
 21
0.00392683935003
  0
LINE
  5
206
100
AcDbEntity
  8
0
  6
ByLayer
 62
  256
370
   -1
100
AcDbLine
 10
0.00176817107769
 20
0.00392683935003
 11
0.00176817107769
 21
6.17580183935
  0
ENDBLK
  5
CE
330
CC
100
AcDbEntity
  8
0
100
AcDbBlockEnd
  0
BLOCK
  5
D0
330
CF
100
AcDbEntity
  8
0
100
AcDbBlockBegin
  2
RRS-0
 70
    0
 10
0
 20
0
  3
RRS-0
  1

  0
LINE
  5
207
100
AcDbEntity
  8
0
  6
ByLayer
 62
  256
370
   25
100
AcDbLine
 10
-0.2
 20
0.2
 11
34.6
 21
0.2
  0
LINE
  5
208
100
AcDbEntity
  8
0
  6
ByLayer
 62
  256
370
   25
100
AcDbLine
 10
34.6
 20
0.2
 11
34.6
 21
10.6
  0
LINE
  5
209
100
AcDbEntity
  8
0
  6
ByLayer
 62
  256
370
   25
100
AcDbLine
 10
34.6
 20
10.6
 11
-0.2
 21
10.6
  0
LINE
  5
20A
100
AcDbEntity
  8
0
  6
ByLayer
 62
  256
370
   25
100
AcDbLine
 10
-0.2
 20
10.6
 11
-0.2
 21
0.2
  0
LINE
  5
20B
100
AcDbEntity
  8
0
  6
ByLayer
 62
  256
370
   25
100
AcDbLine
 10
-6
 20
5
 11
4
 21
5
  0
LINE
  5
20C
100
AcDbEntity
  8
0
  6
ByLayer
 62
  256
370
   25
100
AcDbLine
 10
4
 20
5
 11
13
 21
8
  0
LINE
  5
20D
100
AcDbEntity
  8
0
  6
ByLayer
 62
  256
370
   25
100
AcDbLine
 10
13
 20
5
 11
20
 21
5
  0
LINE
  5
20E
100
AcDbEntity
  8
0
  6
ByLayer
 62
  256
370
   25
100
AcDbLine
 10
20
 20
5
 11
29
 21
8
  0
LINE
  5
20F
100
AcDbEntity
  8
0
  6
ByLayer
 62
  256
370
   25
100
AcDbLine
 10
29
 20
5
 11
40
 21
5
  0
ENDBLK
  5
D1
330
CF
100
AcDbEntity
  8
0
100
AcDbBlockEnd
  0
BLOCK
  5
D3
330
D2
100
AcDbEntity
  8
0
100
AcDbBlockBegin
  2
Resistor-Therm
 70
    0
 10
0
 20
0
  3
Resistor-Therm
  1

  0
LINE
  5
210
100
AcDbEntity
  8
Contour
  6
ByLayer
 62
  256
370
   25
100
AcDbLine
 10
20
 20
0
 11
17.5
 21
-5
  0
LINE
  5
211
100
AcDbEntity
  8
Contour
  6
ByLayer
 62
  256
370
   25
100
AcDbLine
 10
17.5
 20
-5
 11
15
 21
0
  0
LINE
  5
212
100
AcDbEntity
  8
Contour
  6
ByLayer
 62
  256
370
   25
100
AcDbLine
 10
15
 20
0
 11
12.5
 21
-5
  0
LINE
  5
213
100
AcDbEntity
  8
Contour
  6
ByLayer
 62
  256
370
   25
100
AcDbLine
 10
12.5
 20
-5
 11
10
 21
0
  0
LINE
  5
214
100
AcDbEntity
  8
Contour
  6
ByLayer
 62
  256
370
   25
100
AcDbLine
 10
10
 20
0
 11
0
 21
0
  0
LINE
  5
215
100
AcDbEntity
  8
Contour
  6
ByLayer
 62
  256
370
   25
100
AcDbLine
 10
20
 20
-1.06581410364e-14
 11
30
 21
0
  0
CIRCLE
  5
216
100
AcDbEntity
  8
Contour
  6
ByLayer
 62
  256
370
   25
100
AcDbCircle
 10
17.5
 20
1.25
 40
1.25
  0
ENDBLK
  5
D4
330
D2
100
AcDbEntity
  8
0
100
AcDbBlockEnd
  0
BLOCK
  5
D6
330
D5
100
AcDbEntity
  8
0
100
AcDbBlockBegin
  2
2vd1-0
 70
    0
 10
0
 20
0
  3
2vd1-0
  1

  0
LINE
  5
217
100
AcDbEntity
  8
0
  6
CONTINUOUS
 62
    7
370
   25
100
AcDbLine
 10
0
 20
0
 11
0
 21
-10
  0
LINE
  5
218
100
AcDbEntity
  8
0
  6
CONTINUOUS
 62
    7
370
   25
100
AcDbLine
 10
0
 20
-7
 11
-2
 21
-3
  0
LINE
  5
219
100
AcDbEntity
  8
0
  6
CONTINUOUS
 62
    7
370
   25
100
AcDbLine
 10
-2
 20
-3
 11
2
 21
-3
  0
LINE
  5
21A
100
AcDbEntity
  8
0
  6
CONTINUOUS
 62
    7
370
   25
100
AcDbLine
 10
2
 20
-3
 11
0
 21
-7
  0
LINE
  5
21B
100
AcDbEntity
  8
0
  6
CONTINUOUS
 62
    7
370
   25
100
AcDbLine
 10
-2
 20
-7
 11
2
 21
-7
  0
ENDBLK
  5
D7
330
D5
100
AcDbEntity
  8
0
100
AcDbBlockEnd
  0
BLOCK
  5
D9
330
D8
100
AcDbEntity
  8
0
100
AcDbBlockBegin
  2
2vd1-1
 70
    0
 10
0
 20
0
  3
2vd1-1
  1

  0
LINE
  5
21C
100
AcDbEntity
  8
0
  6
CONTINUOUS
 62
    7
370
   25
100
AcDbLine
 10
0
 20
0
 11
0
 21
-10
  0
LINE
  5
21D
100
AcDbEntity
  8
0
  6
CONTINUOUS
 62
    7
370
   25
100
AcDbLine
 10
0
 20
-7
 11
-2
 21
-3
  0
LINE
  5
21E
100
AcDbEntity
  8
0
  6
CONTINUOUS
 62
    7
370
   25
100
AcDbLine
 10
-2
 20
-3
 11
2
 21
-3
  0
LINE
  5
21F
100
AcDbEntity
  8
0
  6
CONTINUOUS
 62
    7
370
   25
100
AcDbLine
 10
2
 20
-3
 11
0
 21
-7
  0
LINE
  5
220
100
AcDbEntity
  8
0
  6
CONTINUOUS
 62
    7
370
   25
100
AcDbLine
 10
-2
 20
-7
 11
2
 21
-7
  0
ENDBLK
  5
DA
330
D8
100
AcDbEntity
  8
0
100
AcDbBlockEnd
  0
ENDSEC
  0
SECTION
  2
ENTITIES
  0
HATCH
  5
221
100
AcDbEntity
  8
hatch
  6
ByLayer
 62
  256
370
   -1
100
AcDbHatch
 10
0
 20
0
 30
0
210
0
220
0
230
1
  2
ansi31
 70
    0
 71
    0
 91
    1
 92
    0
 93
    3
 72
    1
 10
124.499976
 20
287.250024
 11
121.999976
 21
291.580151019
 72
    1
 10
121.999976
 20
291.580151019
 11
126.999976
 21
291.580151019
 72
    1
 10
126.999976
 20
291.580151019
 11
124.499976
 21
287.250024
 97
    0
 75
    0
 76
    1
 52
4.71238898038
 41
0.5
 77
    0
 78
    0
 98
    0
  0
HATCH
  5
222
100
AcDbEntity
  8
hatch
  6
ByLayer
 62
  256
370
   -1
100
AcDbHatch
 10
0
 20
0
 30
0
210
0
220
0
230
1
  2
ansi31
 70
    0
 71
    0
 91
    1
 92
    0
 93
    3
 72
    1
 10
229.499976
 20
287.250024
 11
226.999976
 21
291.580151019
 72
    1
 10
226.999976
 20
291.580151019
 11
231.999976
 21
291.580151019
 72
    1
 10
231.999976
 20
291.580151019
 11
229.499976
 21
287.250024
 97
    0
 75
    0
 76
    1
 52
4.71238898038
 41
0.5
 77
    0
 78
    0
 98
    0
  0
HATCH
  5
223
100
AcDbEntity
  8
hatch
  6
ByLayer
 62
  256
370
   -1
100
AcDbHatch
 10
0
 20
0
 30
0
210
0
220
0
230
1
  2
ansi31
 70
    0
 71
    0
 91
    1
 92
    0
 93
    3
 72
    1
 10
314.5
 20
287.250024
 11
312
 21
291.580151019
 72
    1
 10
312
 20
291.580151019
 11
317
 21
291.580151019
 72
    1
 10
317
 20
291.580151019
 11
314.5
 21
287.250024
 97
    0
 75
    0
 76
    1
 52
4.71238898038
 41
0.5
 77
    0
 78
    0
 98
    0
  0
HATCH
  5
224
100
AcDbEntity
  8
hatch
  6
ByLayer
 62
  256
370
   -1
100
AcDbHatch
 10
0
 20
0
 30
0
210
0
220
0
230
1
  2
ansi31
 70
    0
 71
    0
 91
    1
 92
    0
 93
    3
 72
    1
 10
314.5
 20
10.249976
 11
312
 21
5.91984898108
 72
    1
 10
312
 20
5.91984898108
 11
317
 21
5.91984898108
 72
    1
 10
317
 20
5.91984898108
 11
314.5
 21
10.249976
 97
    0
 75
    0
 76
    1
 52
4.71238898038
 41
0.5
 77
    0
 78
    0
 98
    0
  0
HATCH
  5
225
100
AcDbEntity
  8
hatch
  6
ByLayer
 62
  256
370
   -1
100
AcDbHatch
 10
0
 20
0
 30
0
210
0
220
0
230
1
  2
ansi31
 70
    0
 71
    0
 91
    1
 92
    0
 93
    3
 72
    1
 10
229.499976
 20
10.249976
 11
226.999976
 21
5.91984898108
 72
    1
 10
226.999976
 20
5.91984898108
 11
231.999976
 21
5.91984898108
 72
    1
 10
231.999976
 20
5.91984898108
 11
229.499976
 21
10.249976
 97
    0
 75
    0
 76
    1
 52
4.71238898038
 41
0.5
 77
    0
 78
    0
 98
    0
  0
HATCH
  5
226
100
AcDbEntity
  8
hatch
  6
ByLayer
 62
  256
370
   -1
100
AcDbHatch
 10
0
 20
0
 30
0
210
0
220
0
230
1
  2
ansi31
 70
    0
 71
    0
 91
    1
 92
    0
 93
    3
 72
    1
 10
124.499976
 20
10.249976
 11
121.999976
 21
5.91984898108
 72
    1
 10
121.999976
 20
5.91984898108
 11
126.999976
 21
5.91984898108
 72
    1
 10
126.999976
 20
5.91984898108
 11
124.499976
 21
10.249976
 97
    0
 75
    0
 76
    1
 52
4.71238898038
 41
0.5
 77
    0
 78
    0
 98
    0
  0
HATCH
  5
227
100
AcDbEntity
  8
hatch
  6
ByLayer
 62
  256
370
   -1
100
AcDbHatch
 10
0
 20
0
 30
0
210
0
220
0
230
1
  2
ansi31
 70
    0
 71
    0
 91
    1
 92
    0
 93
    3
 72
    1
 10
409.5
 20
148.75
 11
413.830127019
 21
146.25
 72
    1
 10
413.830127019
 20
146.25
 11
413.830127019
 21
151.25
 72
    1
 10
413.830127019
 20
151.25
 11
409.5
 21
148.75
 97
    0
 75
    0
 76
    1
 52
3.14159265359
 41
0.5
 77
    0
 78
    0
 98
    0
  0
HATCH
  5
228
100
AcDbEntity
  8
hatch
  6
ByLayer
 62
  256
370
   -1
100
AcDbHatch
 10
0
 20
0
 30
0
210
0
220
0
230
1
  2
ansi31
 70
    0
 71
    0
 91
    1
 92
    0
 93
    3
 72
    1
 10
19.5
 20
148.75
 11
15.1698729811
 21
146.25
 72
    1
 10
15.1698729811
 20
146.25
 11
15.1698729811
 21
151.25
 72
    1
 10
15.1698729811
 20
151.25
 11
19.5
 21
148.75
 97
    0
 75
    0
 76
    1
 52
0
 41
0.5
 77
    0
 78
    0
 98
    0
  0
LINE
  5
229
100
AcDbEntity
  8
help-lines
  6
ByLayer
 62
  256
370
   -1
100
AcDbLine
 10
-0.370653268182
 20
148.631960541
 11
15.1698729811
 21
148.631960541
  0
LINE
  5
22A
100
AcDbEntity
  8
help-lines
  6
ByLayer
 62
  256
370
   -1
100
AcDbLine
 10
413.830127019
 20
148.686462218
 11
419.5
 21
148.726881666
  0
LINE
  5
22B
100
AcDbEntity
  8
help-lines
  6
ByLayer
 62
  256
370
   -1
100
AcDbLine
 10
314.545173061
 20
297.224709437
 11
314.545173061
 21
291.580151019
  0
LINE
  5
22C
100
AcDbEntity
  8
help-lines
  6
ByLayer
 62
  256
370
   -1
100
AcDbLine
 10
314.494734587
 20
0.338968241633
 11
314.494734587
 21
5.91984898108
  0
CIRCLE
  5
22D
100
AcDbEntity
  8
help-lines
  6
ByLayer
 62
  256
370
   -1
100
AcDbCircle
 10
14.5
 20
223
 40
3
  0
LINE
  5
22E
100
AcDbEntity
  8
help-lines
  6
ByLayer
 62
  256
370
   -1
100
AcDbLine
 10
19.5
 20
148.75
 11
15.1698729811
 21
146.25
  0
LINE
  5
22F
100
AcDbEntity
  8
help-lines
  6
ByLayer
 62
  256
370
   -1
100
AcDbLine
 10
19.5
 20
148.75
 11
15.1698729811
 21
151.25
  0
LINE
  5
230
100
AcDbEntity
  8
help-lines
  6
ByLayer
 62
  256
370
   -1
100
AcDbLine
 10
15.1698729811
 20
146.25
 11
15.1698729811
 21
151.25
  0
CIRCLE
  5
231
100
AcDbEntity
  8
help-lines
  6
ByLayer
 62
  256
370
   -1
100
AcDbCircle
 10
14.5
 20
74.5
 40
3
  0
MTEXT
  5
232
100
AcDbEntity
  8
help-lines
  6
ByLayer
 62
  256
370
   -1
100
AcDbMText
 10
14.5
 20
74.5
 30
0
 40
4
 41
2.666666666666667
 71
    5
 72
    5
  1
A
  7
iso
210
0
220
0
230
1
 50
6.28318530718
 73
    2
 44
0.96
  0
MTEXT
  5
233
100
AcDbEntity
  8
help-lines
  6
ByLayer
 62
  256
370
   -1
100
AcDbMText
 10
14.5
 20
223
 30
0
 40
4
 41
2.222222222222222
 71
    5
 72
    5
  1
B
  7
iso
210
0
220
0
230
1
 50
6.28318530718
 73
    2
 44
0.96
  0
LINE
  5
234
100
AcDbEntity
  8
help-lines
  6
ByLayer
 62
  256
370
   -1
100
AcDbLine
 10
-0.5
 20
297.25
 11
-0.5
 21
0.25
  0
CIRCLE
  5
235
100
AcDbEntity
  8
help-lines
  6
ByLayer
 62
  256
370
   -1
100
AcDbCircle
 10
414.5
 20
223
 40
3
  0
LINE
  5
236
100
AcDbEntity
  8
help-lines
  6
ByLayer
 62
  256
370
   -1
100
AcDbLine
 10
409.5
 20
148.75
 11
413.830127019
 21
146.25
  0
LINE
  5
237
100
AcDbEntity
  8
help-lines
  6
ByLayer
 62
  256
370
   -1
100
AcDbLine
 10
409.5
 20
148.75
 11
413.830127019
 21
151.25
  0
LINE
  5
238
100
AcDbEntity
  8
help-lines
  6
ByLayer
 62
  256
370
   -1
100
AcDbLine
 10
413.830127019
 20
146.25
 11
413.830127019
 21
151.25
  0
CIRCLE
  5
239
100
AcDbEntity
  8
help-lines
  6
ByLayer
 62
  256
370
   -1
100
AcDbCircle
 10
414.5
 20
74.5
 40
3
  0
MTEXT
  5
23A
100
AcDbEntity
  8
help-lines
  6
ByLayer
 62
  256
370
   -1
100
AcDbMText
 10
414.5
 20
74.5
 30
0
 40
4
 41
2.666666666666667
 71
    5
 72
    5
  1
A
  7
iso
210
0
220
0
230
1
 50
6.28318530718
 73
    2
 44
0.96
  0
MTEXT
  5
23B
100
AcDbEntity
  8
help-lines
  6
ByLayer
 62
  256
370
   -1
100
AcDbMText
 10
414.5
 20
223
 30
0
 40
4
 41
2.222222222222222
 71
    5
 72
    5
  1
B
  7
iso
210
0
220
0
230
1
 50
6.28318530718
 73
    2
 44
0.96
  0
LINE
  5
23C
100
AcDbEntity
  8
help-lines
  6
ByLayer
 62
  256
370
   -1
100
AcDbLine
 10
419.5
 20
297.25
 11
-0.5
 21
297.25
  0
LINE
  5
23D
100
AcDbEntity
  8
help-lines
  6
ByLayer
 62
  256
370
   -1
100
AcDbLine
 10
124.5
 20
0.25
 11
124.5
 21
10.25
  0
LINE
  5
23E
100
AcDbEntity
  8
help-lines
  6
ByLayer
 62
  256
370
   -1
100
AcDbLine
 10
229.5
 20
0.25
 11
229.5
 21
10.25
  0
LINE
  5
23F
100
AcDbEntity
  8
help-lines
  6
ByLayer
 62
  256
370
   -1
100
AcDbLine
 10
124.499976
 20
10.249976
 11
121.999976
 21
5.91984898108
  0
LINE
  5
240
100
AcDbEntity
  8
help-lines
  6
ByLayer
 62
  256
370
   -1
100
AcDbLine
 10
124.499976
 20
10.249976
 11
126.999976
 21
5.91984898108
  0
LINE
  5
241
100
AcDbEntity
  8
help-lines
  6
ByLayer
 62
  256
370
   -1
100
AcDbLine
 10
121.999976
 20
5.91984898108
 11
126.999976
 21
5.91984898108
  0
CIRCLE
  5
242
100
AcDbEntity
  8
help-lines
  6
ByLayer
 62
  256
370
   -1
100
AcDbCircle
 10
177
 20
5.25
 40
3
  0
LINE
  5
243
100
AcDbEntity
  8
help-lines
  6
ByLayer
 62
  256
370
   -1
100
AcDbLine
 10
229.499976
 20
10.249976
 11
226.999976
 21
5.91984898108
  0
LINE
  5
244
100
AcDbEntity
  8
help-lines
  6
ByLayer
 62
  256
370
   -1
100
AcDbLine
 10
229.499976
 20
10.249976
 11
231.999976
 21
5.91984898108
  0
LINE
  5
245
100
AcDbEntity
  8
help-lines
  6
ByLayer
 62
  256
370
   -1
100
AcDbLine
 10
226.999976
 20
5.91984898108
 11
231.999976
 21
5.91984898108
  0
CIRCLE
  5
246
100
AcDbEntity
  8
help-lines
  6
ByLayer
 62
  256
370
   -1
100
AcDbCircle
 10
72
 20
5.25
 40
3
  0
MTEXT
  5
247
100
AcDbEntity
  8
help-lines
  6
ByLayer
 62
  256
370
   -1
100
AcDbMText
 10
72
 20
5.25
 30
0
 40
4
 41
0.8888888888888888
 71
    5
 72
    5
  1
1
  7
iso
210
0
220
0
230
1
 50
0
 73
    2
 44
0.96
  0
MTEXT
  5
248
100
AcDbEntity
  8
help-lines
  6
ByLayer
 62
  256
370
   -1
100
AcDbMText
 10
177
 20
5.25
 30
0
 40
4
 41
1.777777777777778
 71
    5
 72
    5
  1
2
  7
iso
210
0
220
0
230
1
 50
0
 73
    2
 44
0.96
  0
CIRCLE
  5
249
100
AcDbEntity
  8
help-lines
  6
ByLayer
 62
  256
370
   -1
100
AcDbCircle
 10
277.5
 20
5.25
 40
3
  0
MTEXT
  5
24A
100
AcDbEntity
  8
help-lines
  6
ByLayer
 62
  256
370
   -1
100
AcDbMText
 10
277.5
 20
5.25
 30
0
 40
4
 41
1.777777777778026
 71
    5
 72
    5
  1
3
  7
iso
210
0
220
0
230
1
 50
0
 73
    2
 44
0.96
  0
LINE
  5
24B
100
AcDbEntity
  8
help-lines
  6
ByLayer
 62
  256
370
   -1
100
AcDbLine
 10
314.5
 20
10.249976
 11
312
 21
5.91984898108
  0
LINE
  5
24C
100
AcDbEntity
  8
help-lines
  6
ByLayer
 62
  256
370
   -1
100
AcDbLine
 10
314.5
 20
10.249976
 11
317
 21
5.91984898108
  0
LINE
  5
24D
100
AcDbEntity
  8
help-lines
  6
ByLayer
 62
  256
370
   -1
100
AcDbLine
 10
312
 20
5.91984898108
 11
317
 21
5.91984898108
  0
CIRCLE
  5
24E
100
AcDbEntity
  8
help-lines
  6
ByLayer
 62
  256
370
   -1
100
AcDbCircle
 10
362.500024
 20
5.25
 40
3
  0
MTEXT
  5
24F
100
AcDbEntity
  8
help-lines
  6
ByLayer
 62
  256
370
   -1
100
AcDbMText
 10
362.500024
 20
5.25
 30
0
 40
4
 41
2.222222222222222
 71
    5
 72
    5
  1
4
  7
iso
210
0
220
0
230
1
 50
0
 73
    2
 44
0.96
  0
LINE
  5
250
100
AcDbEntity
  8
help-lines
  6
ByLayer
 62
  256
370
   -1
100
AcDbLine
 10
419.5
 20
0.25
 11
419.5
 21
297.25
  0
LINE
  5
251
100
AcDbEntity
  8
help-lines
  6
ByLayer
 62
  256
370
   -1
100
AcDbLine
 10
-0.5
 20
0.25
 11
419.5
 21
0.25
  0
LINE
  5
252
100
AcDbEntity
  8
help-lines
  6
ByLayer
 62
  256
370
   -1
100
AcDbLine
 10
124.5
 20
297.25
 11
124.5
 21
287.25
  0
LINE
  5
253
100
AcDbEntity
  8
help-lines
  6
ByLayer
 62
  256
370
   -1
100
AcDbLine
 10
229.5
 20
297.25
 11
229.5
 21
287.25
  0
LINE
  5
254
100
AcDbEntity
  8
help-lines
  6
ByLayer
 62
  256
370
   -1
100
AcDbLine
 10
124.499976
 20
287.250024
 11
121.999976
 21
291.580151019
  0
LINE
  5
255
100
AcDbEntity
  8
help-lines
  6
ByLayer
 62
  256
370
   -1
100
AcDbLine
 10
124.499976
 20
287.250024
 11
126.999976
 21
291.580151019
  0
LINE
  5
256
100
AcDbEntity
  8
help-lines
  6
ByLayer
 62
  256
370
   -1
100
AcDbLine
 10
121.999976
 20
291.580151019
 11
126.999976
 21
291.580151019
  0
CIRCLE
  5
257
100
AcDbEntity
  8
help-lines
  6
ByLayer
 62
  256
370
   -1
100
AcDbCircle
 10
177
 20
292.25
 40
3
  0
LINE
  5
258
100
AcDbEntity
  8
help-lines
  6
ByLayer
 62
  256
370
   -1
100
AcDbLine
 10
229.499976
 20
287.250024
 11
226.999976
 21
291.580151019
  0
LINE
  5
259
100
AcDbEntity
  8
help-lines
  6
ByLayer
 62
  256
370
   -1
100
AcDbLine
 10
229.499976
 20
287.250024
 11
231.999976
 21
291.580151019
  0
LINE
  5
25A
100
AcDbEntity
  8
help-lines
  6
ByLayer
 62
  256
370
   -1
100
AcDbLine
 10
226.999976
 20
291.580151019
 11
231.999976
 21
291.580151019
  0
CIRCLE
  5
25B
100
AcDbEntity
  8
help-lines
  6
ByLayer
 62
  256
370
   -1
100
AcDbCircle
 10
72
 20
292.25
 40
3
  0
MTEXT
  5
25C
100
AcDbEntity
  8
help-lines
  6
ByLayer
 62
  256
370
   -1
100
AcDbMText
 10
72
 20
292.25
 30
0
 40
4
 41
0.8888888888888888
 71
    5
 72
    5
  1
1
  7
iso
210
0
220
0
230
1
 50
0
 73
    2
 44
0.96
  0
MTEXT
  5
25D
100
AcDbEntity
  8
help-lines
  6
ByLayer
 62
  256
370
   -1
100
AcDbMText
 10
177
 20
292.25
 30
0
 40
4
 41
1.777777777777778
 71
    5
 72
    5
  1
2
  7
iso
210
0
220
0
230
1
 50
0
 73
    2
 44
0.96
  0
CIRCLE
  5
25E
100
AcDbEntity
  8
help-lines
  6
ByLayer
 62
  256
370
   -1
100
AcDbCircle
 10
277.5
 20
292.25
 40
3
  0
MTEXT
  5
25F
100
AcDbEntity
  8
help-lines
  6
ByLayer
 62
  256
370
   -1
100
AcDbMText
 10
277.5
 20
292.25
 30
0
 40
4
 41
1.777777777778026
 71
    5
 72
    5
  1
3
  7
iso
210
0
220
0
230
1
 50
0
 73
    2
 44
0.96
  0
LINE
  5
260
100
AcDbEntity
  8
help-lines
  6
ByLayer
 62
  256
370
   -1
100
AcDbLine
 10
314.5
 20
287.250024
 11
312
 21
291.580151019
  0
LINE
  5
261
100
AcDbEntity
  8
help-lines
  6
ByLayer
 62
  256
370
   -1
100
AcDbLine
 10
314.5
 20
287.250024
 11
317
 21
291.580151019
  0
LINE
  5
262
100
AcDbEntity
  8
help-lines
  6
ByLayer
 62
  256
370
   -1
100
AcDbLine
 10
312
 20
291.580151019
 11
317
 21
291.580151019
  0
CIRCLE
  5
263
100
AcDbEntity
  8
help-lines
  6
ByLayer
 62
  256
370
   -1
100
AcDbCircle
 10
362.500024
 20
292.25
 40
3
  0
MTEXT
  5
264
100
AcDbEntity
  8
help-lines
  6
ByLayer
 62
  256
370
   -1
100
AcDbMText
 10
362.500024
 20
292.25
 30
0
 40
4
 41
2.222222222222222
 71
    5
 72
    5
  1
4
  7
iso
210
0
220
0
230
1
 50
0
 73
    2
 44
0.96
  0
INSERT
  5
265
100
AcDbEntity
  8
schematic
  6
ByLayer
 62
  256
370
   -1
100
AcDbBlockReference
  2
Terminal-in
 10
43.5397959184
 20
213.758163265
 30
0
 41
1
 42
1
 43
0
 50
0
 70
    1
 71
    1
 44
0
 45
0
  0
INSERT
  5
266
100
AcDbEntity
  8
schematic
  6
ByLayer
 62
  256
370
   -1
100
AcDbBlockReference
  2
Terminal-in
 10
73.3836489796
 20
213.592651429
 30
0
 41
1
 42
1
 43
0
 50
0
 70
    1
 71
    1
 44
0
 45
0
  0
LINE
  5
267
100
AcDbEntity
  8
schematic
  6
ByLayer
 62
  256
370
   -1
100
AcDbLine
 10
73.3650612245
 20
124.658163265
 11
73.3650612245
 21
220.990995763
  0
LINE
  5
268
100
AcDbEntity
  8
schematic
  6
ByLayer
 62
  256
370
   -1
100
AcDbLine
 10
43.6408163265
 20
124.658163265
 11
43.6408163265
 21
221.157673362
  0
INSERT
  5
269
100
AcDbEntity
  8
schematic
  6
ByLayer
 62
  256
370
   -1
100
AcDbBlockReference
  2
Terminal-in
 10
104.455910204
 20
214.073670204
 30
0
 41
1
 42
1
 43
0
 50
0
 70
    1
 71
    1
 44
0
 45
0
  0
INSERT
  5
26A
100
AcDbEntity
  8
schematic
  6
ByLayer
 62
  256
370
   -1
100
AcDbBlockReference
  2
Terminal-in
 10
126.800008163
 20
213.908158367
 30
0
 41
1
 42
1
 43
0
 50
0
 70
    1
 71
    1
 44
0
 45
0
  0
INSERT
  5
26B
100
AcDbEntity
  8
schematic
  6
ByLayer
 62
  256
370
   -1
100
AcDbBlockReference
  2
Terminal-in
 10
157.212808163
 20
214.363315918
 30
0
 41
1
 42
1
 43
0
 50
0
 70
    1
 71
    1
 44
0
 45
0
  0
INSERT
  5
26C
100
AcDbEntity
  8
schematic
  6
ByLayer
 62
  256
370
   -1
100
AcDbBlockReference
  2
Terminal-in
 10
187.418718367
 20
215.232253061
 30
0
 41
1
 42
1
 43
0
 50
0
 70
    1
 71
    1
 44
0
 45
0
  0
INSERT
  5
26D
100
AcDbEntity
  8
schematic
  6
ByLayer
 62
  256
370
   -1
100
AcDbBlockReference
  2
Terminal-in
 10
218.038408163
 20
216.721859592
 30
0
 41
1
 42
1
 43
0
 50
0
 70
    1
 71
    1
 44
0
 45
0
  0
INSERT
  5
26E
100
AcDbEntity
  8
schematic
  6
ByLayer
 62
  256
370
   -1
100
AcDbBlockReference
  2
Terminal-in
 10
247.62364898
 20
216.29773551
 30
0
 41
1
 42
1
 43
0
 50
0
 70
    1
 71
    1
 44
0
 45
0
  0
INSERT
  5
26F
100
AcDbEntity
  8
schematic
  6
ByLayer
 62
  256
370
   -1
100
AcDbBlockReference
  2
Terminal-in
 10
278.049379592
 20
215.808958367
 30
0
 41
1
 42
1
 43
0
 50
0
 70
    1
 71
    1
 44
0
 45
0
  0
INSERT
  5
270
100
AcDbEntity
  8
schematic
  6
ByLayer
 62
  256
370
   -1
100
AcDbBlockReference
  2
Terminal-in
 10
308.151844898
 20
216.289977143
 30
0
 41
1
 42
1
 43
0
 50
0
 70
    1
 71
    1
 44
0
 45
0
  0
LINE
  5
271
100
AcDbEntity
  8
schematic
  6
ByLayer
 62
  256
370
   -1
100
AcDbLine
 10
218.149126531
 20
124.658163265
 11
218.149126531
 21
224.121651823
  0
LINE
  5
272
100
AcDbEntity
  8
schematic
  6
ByLayer
 62
  256
370
   -1
100
AcDbLine
 10
247.69557551
 20
124.658163265
 11
247.69557551
 21
223.696568134
  0
LINE
  5
273
100
AcDbEntity
  8
schematic
  6
ByLayer
 62
  256
370
   -1
100
AcDbLine
 10
278.082514286
 20
124.658163265
 11
278.082514286
 21
223.207281673
  0
LINE
  5
274
100
AcDbEntity
  8
schematic
  6
ByLayer
 62
  256
370
   -1
100
AcDbLine
 10
308.146187755
 20
124.658163265
 11
308.146187755
 21
223.688241213
  0
INSERT
  5
275
100
AcDbEntity
  8
schematic
  6
ByLayer
 62
  256
370
   -1
100
AcDbBlockReference
  2
Switch
 10
42.5534811429
 20
249.75572702
 30
0
 41
1
 42
1
 43
0
 50
0
 70
    1
 71
    1
 44
0
 45
0
  0
INSERT
  5
276
100
AcDbEntity
  8
schematic
  6
ByLayer
 62
  256
370
   -1
100
AcDbBlockReference
  2
Switch-4
 10
125.531191837
 20
249.595355102
 30
0
 41
1
 42
1
 43
0
 50
0
 70
    1
 71
    1
 44
0
 45
0
  0
INSERT
  5
277
100
AcDbEntity
  8
schematic
  6
ByLayer
 62
  256
370
   -1
100
AcDbBlockReference
  2
Switch-0
 10
217.377330612
 20
249.879828571
 30
0
 41
1
 42
1
 43
0
 50
0
 70
    1
 71
    1
 44
0
 45
0
  0
INSERT
  5
278
100
AcDbEntity
  8
schematic
  6
ByLayer
 62
  256
370
   -1
100
AcDbBlockReference
  2
Switch-1
 10
247.099118694
 20
249.720523429
 30
0
 41
1
 42
1
 43
0
 50
0
 70
    1
 71
    1
 44
0
 45
0
  0
INSERT
  5
279
100
AcDbEntity
  8
schematic
  6
ByLayer
 62
  256
370
   -1
100
AcDbBlockReference
  2
Switch-2
 10
277.553296653
 20
249.852932898
 30
0
 41
1
 42
1
 43
0
 50
0
 70
    1
 71
    1
 44
0
 45
0
  0
INSERT
  5
27A
100
AcDbEntity
  8
schematic
  6
ByLayer
 62
  256
370
   -1
100
AcDbBlockReference
  2
Switch-5
 10
156.572936816
 20
249.529150367
 30
0
 41
1
 42
1
 43
0
 50
0
 70
    1
 71
    1
 44
0
 45
0
  0
INSERT
  5
27B
100
AcDbEntity
  8
schematic
  6
ByLayer
 62
  256
370
   -1
100
AcDbBlockReference
  2
Switch-6
 10
187.027114776
 20
249.529150367
 30
0
 41
1
 42
1
 43
0
 50
0
 70
    1
 71
    1
 44
0
 45
0
  0
LINE
  5
27C
100
AcDbEntity
  8
schematic
  6
ByLayer
 62
  256
370
   -1
100
AcDbLine
 10
30.8112244898
 20
80.896122449
 11
30.8112244898
 21
124.536938776
  0
INSERT
  5
27D
100
AcDbEntity
  8
schematic
  6
ByLayer
 62
  256
370
   -1
100
AcDbBlockReference
  2
junction-4
 10
308.037389584
 20
249.650546834
 30
0
 41
1
 42
1
 43
0
 50
0
 70
    1
 71
    1
 44
0
 45
0
  0
INSERT
  5
27E
100
AcDbEntity
  8
schematic
  6
ByLayer
 62
  256
370
   -1
100
AcDbBlockReference
  2
junction-3
 10
277.699731958
 20
249.565804774
 30
0
 41
1
 42
1
 43
0
 50
0
 70
    1
 71
    1
 44
0
 45
0
  0
INSERT
  5
27F
100
AcDbEntity
  8
schematic
  6
ByLayer
 62
  256
370
   -1
100
AcDbBlockReference
  2
junction-1
 10
218.210805551
 20
250.074257136
 30
0
 41
1
 42
1
 43
0
 50
0
 70
    1
 71
    1
 44
0
 45
0
  0
INSERT
  5
280
100
AcDbEntity
  8
schematic
  6
ByLayer
 62
  256
370
   -1
100
AcDbBlockReference
  2
junction-6
 10
187.534179683
 20
249.904773016
 30
0
 41
1
 42
1
 43
0
 50
0
 70
    1
 71
    1
 44
0
 45
0
  0
INSERT
  5
281
100
AcDbEntity
  8
schematic
  6
ByLayer
 62
  256
370
   -1
100
AcDbBlockReference
  2
junction
 10
72.6927986939
 20
249.925958531
 30
0
 41
1
 42
1
 43
0
 50
0
 70
    1
 71
    1
 44
0
 45
0
  0
LINE
  5
282
100
AcDbEntity
  8
schematic
  6
ByLayer
 62
  256
370
   -1
100
AcDbLine
 10
126.72
 20
124.536938776
 11
126.72
 21
221.307567013
  0
INSERT
  5
283
100
AcDbEntity
  8
schematic
  6
ByLayer
 62
  256
370
   -1
100
AcDbBlockReference
  2
mcp2014x-connector-0
 10
70
 20
117
 30
0
 41
1
 42
1
 43
0
 50
0
 70
    1
 71
    1
 44
0
 45
0
  0
INSERT
  5
284
100
AcDbEntity
  8
schematic
  6
ByLayer
 62
  256
370
   -1
100
AcDbBlockReference
  2
mcp2014x-connector
 10
41
 20
117
 30
0
 41
1
 42
1
 43
0
 50
0
 70
    1
 71
    1
 44
0
 45
0
  0
INSERT
  5
285
100
AcDbEntity
  8
schematic
  6
ByLayer
 62
  256
370
   -1
100
AcDbBlockReference
  2
mcp2014x-connector-1
 10
124
 20
117
 30
0
 41
1
 42
1
 43
0
 50
0
 70
    1
 71
    1
 44
0
 45
0
  0
INSERT
  5
286
100
AcDbEntity
  8
schematic
  6
ByLayer
 62
  256
370
   -1
100
AcDbBlockReference
  2
mcp2014x-connector-2
 10
215
 20
117
 30
0
 41
1
 42
1
 43
0
 50
0
 70
    1
 71
    1
 44
0
 45
0
  0
INSERT
  5
287
100
AcDbEntity
  8
schematic
  6
ByLayer
 62
  256
370
   -1
100
AcDbBlockReference
  2
mcp2014x-connector-3
 10
245
 20
117
 30
0
 41
1
 42
1
 43
0
 50
0
 70
    1
 71
    1
 44
0
 45
0
  0
INSERT
  5
288
100
AcDbEntity
  8
schematic
  6
ByLayer
 62
  256
370
   -1
100
AcDbBlockReference
  2
mcp2014x-connector-4
 10
275
 20
117
 30
0
 41
1
 42
1
 43
0
 50
0
 70
    1
 71
    1
 44
0
 45
0
  0
INSERT
  5
289
100
AcDbEntity
  8
schematic
  6
ByLayer
 62
  256
370
   -1
100
AcDbBlockReference
  2
mcp2014x-connector-5
 10
305
 20
117
 30
0
 41
1
 42
1
 43
0
 50
0
 70
    1
 71
    1
 44
0
 45
0
  0
MTEXT
  5
28A
100
AcDbEntity
  8
labels
  6
ByLayer
 62
  256
370
   -1
100
AcDbMText
 10
43.3031928686
 20
121.893547624
 30
0
 40
3
 41
0.6666666666666666
 71
    1
 72
    1
  1
1
  7
standard
210
0
220
0
230
1
 50
0
 73
    2
 44
1
  0
MTEXT
  5
28B
100
AcDbEntity
  8
labels
  6
ByLayer
 62
  256
370
   -1
100
AcDbMText
 10
72.49418448980001
 20
122.237812245
 30
0
 40
3
 41
1.333333333333333
 71
    1
 72
    1
  1
2
  7
standard
210
0
220
0
230
1
 50
0
 73
    2
 44
1
  0
MTEXT
  5
28C
100
AcDbEntity
  8
labels
  6
ByLayer
 62
  256
370
   -1
100
AcDbMText
 10
126.451043265
 20
122.237812245
 30
0
 40
3
 41
1.333333333333519
 71
    1
 72
    1
  1
3
  7
standard
210
0
220
0
230
1
 50
0
 73
    2
 44
1
  0
MTEXT
  5
28D
100
AcDbEntity
  8
labels
  6
ByLayer
 62
  256
370
   -1
100
AcDbMText
 10
217.648065306
 20
122.072300408
 30
0
 40
3
 41
1.666666666666667
 71
    1
 72
    1
  1
4
  7
standard
210
0
220
0
230
1
 50
0
 73
    2
 44
1
  0
MTEXT
  5
28E
100
AcDbEntity
  8
labels
  6
ByLayer
 62
  256
370
   -1
100
AcDbMText
 10
247.440195918
 20
122.072300408
 30
0
 40
3
 41
1.333333333333519
 71
    1
 72
    1
  1
5
  7
standard
210
0
220
0
230
1
 50
0
 73
    2
 44
1
  0
INSERT
  5
28F
100
AcDbEntity
  8
schematic
  6
ByLayer
 62
  256
370
   -1
100
AcDbBlockReference
  2
r1
 10
263.536222041
 20
155.733172245
 30
0
 41
1
 42
1
 43
0
 50
90
 70
    1
 71
    1
 44
0
 45
0
  0
INSERT
  5
290
100
AcDbEntity
  8
schematic
  6
ByLayer
 62
  256
370
   -1
100
AcDbBlockReference
  2
diodo_bobina
 10
267.224355401
 20
161.352894945
 30
0
 41
0.42
 42
0.42
 43
0
 50
0
 70
    1
 71
    1
 44
0
 45
0
  0
LINE
  5
291
100
AcDbEntity
  8
schematic
  6
ByLayer
 62
  256
370
   -1
100
AcDbLine
 10
263.494844082
 20
124.536938776
 11
263.494844082
 21
159.294761796
  0
LINE
  5
292
100
AcDbEntity
  8
schematic
  6
ByLayer
 62
  256
370
   -1
100
AcDbLine
 10
263.627253551
 20
168.877505306
 11
263.627253551
 21
198.877505306
  0
LINE
  5
293
100
AcDbEntity
  8
schematic
  6
ByLayer
 62
  256
370
   -1
100
AcDbLine
 10
263.660355918
 20
199.180029388
 11
247.440195918
 21
215.731213061
  0
LINE
  5
294
100
AcDbEntity
  8
schematic
  6
ByLayer
 62
  256
370
   -1
100
AcDbLine
 10
263.494844082
 20
199.511053061
 11
277.728862041
 21
215.565701224
  0
INSERT
  5
295
100
AcDbEntity
  8
schematic
  6
ByLayer
 62
  256
370
   -1
100
AcDbBlockReference
  2
mcp2014x-connector-5
 10
260
 20
117
 30
0
 41
1
 42
1
 43
0
 50
0
 70
    1
 71
    1
 44
1
 45
1
  0
MTEXT
  5
296
100
AcDbEntity
  8
labels
  6
ByLayer
 62
  256
370
   -1
100
AcDbMText
 10
277.397838367
 20
122.237812245
 30
0
 40
3
 41
1.333333333333519
 71
    1
 72
    1
  1
6
  7
standard
210
0
220
0
230
1
 50
0
 73
    2
 44
1
  0
MTEXT
  5
297
100
AcDbEntity
  8
labels
  6
ByLayer
 62
  256
370
   -1
100
AcDbMText
 10
262.832796735
 20
121.906788571
 30
0
 40
3
 41
1.333333333333519
 71
    1
 72
    1
  1
9
  7
standard
210
0
220
0
230
1
 50
0
 73
    2
 44
1
  0
MTEXT
  5
298
100
AcDbEntity
  8
labels
  6
ByLayer
 62
  256
370
   35
100
AcDbMText
 10
191.93877551
 20
104.454081633
 30
0
 40
5
 41
31.11111111111142
 71
    1
 72
    1
  1
MCP2105X
  7
standard
210
0
220
0
230
1
 50
0
 73
    2
 44
1
  0
MTEXT
  5
299
100
AcDbEntity
  8
labels
  6
ByLayer
 62
  256
370
   -1
100
AcDbMText
 10
307.355480816
 20
122.051513469
 30
0
 40
3
 41
1.333333333333333
 71
    1
 72
    1
  1
7
  7
standard
210
0
220
0
230
1
 50
0
 73
    2
 44
1
  0
INSERT
  5
29A
100
AcDbEntity
  8
schematic
  6
ByLayer
 62
  256
370
   -1
100
AcDbBlockReference
  2
mcp2014x-connector-5
 10
312.48818594
 20
116.970777704
 30
0
 41
1
 42
1
 43
0
 50
0
 70
    1
 71
    1
 44
0
 45
0
  0
MTEXT
  5
29B
100
AcDbEntity
  8
labels
  6
ByLayer
 62
  256
370
   -1
100
AcDbMText
 10
314.953019649
 20
121.463604833
 30
0
 40
3
 41
1.333333333333333
 71
    1
 72
    1
  1
8
  7
standard
210
0
220
0
230
1
 50
0
 73
    2
 44
1
  0
LINE
  5
29C
100
AcDbEntity
  8
schematic
  6
ByLayer
 62
  256
370
   -1
100
AcDbLine
 10
308.097725931
 20
138.08118391
 11
315.473674869
 21
138.08118391
  0
LINE
  5
29D
100
AcDbEntity
  8
schematic
  6
ByLayer
 62
  256
370
   -1
100
AcDbLine
 10
315.473674869
 20
124.630924082
 11
315.473674869
 21
138.08118391
  0
INSERT
  5
29E
100
AcDbEntity
  8
schematic
  6
ByLayer
 62
  256
370
   -1
100
AcDbBlockReference
  2
junction
 10
308.141113866
 20
138.124571845
 30
0
 41
1
 42
1
 43
0
 50
0
 70
    1
 71
    1
 44
1
 45
1
  0
LINE
  5
29F
100
AcDbEntity
  8
schematic
  6
ByLayer
 62
  256
370
   -1
100
AcDbLine
 10
248.325560111
 20
215.204761287
 11
249.360009091
 21
211.71349598
  0
LINE
  5
2A0
100
AcDbEntity
  8
schematic
  6
ByLayer
 62
  256
370
   -1
100
AcDbLine
 10
249.360009091
 20
211.71349598
 11
251.866309047
 21
214.354987729
  0
LINE
  5
2A1
100
AcDbEntity
  8
schematic
  6
ByLayer
 62
  256
370
   -1
100
AcDbLine
 10
251.866309047
 20
214.354987729
 11
248.325560111
 21
215.204761287
  0
LINE
  5
2A2
100
AcDbEntity
  8
schematic
  6
ByLayer
 62
  256
370
   -1
100
AcDbLine
 10
277.620286276
 20
215.23997393
 11
273.58179746
 21
213.915879236
  0
LINE
  5
2A3
100
AcDbEntity
  8
schematic
  6
ByLayer
 62
  256
370
   -1
100
AcDbLine
 10
273.58179746
 20
213.915879236
 11
276.74774151
 21
211.080492675
  0
LINE
  5
2A4
100
AcDbEntity
  8
schematic
  6
ByLayer
 62
  256
370
   -1
100
AcDbLine
 10
276.74774151
 20
211.080492675
 11
277.620286276
 21
215.23997393
  0
LINE
  5
2A5
100
AcDbEntity
  8
schematic
  6
ByLayer
 62
  256
370
   -1
100
AcDbLine
 10
350.804171429
 20
124.658163265
 11
350.804171429
 21
183.809036735
  0
LINE
  5
2A6
100
AcDbEntity
  8
schematic
  6
ByLayer
 62
  256
370
   -1
100
AcDbLine
 10
384.113428571
 20
124.658163265
 11
384.113428571
 21
183.809036735
  0
LINE
  5
2A7
100
AcDbEntity
  8
schematic
  6
ByLayer
 62
  256
370
   -1
100
AcDbLine
 10
399.423273469
 20
124.658163265
 11
399.423273469
 21
183.809036735
  0
LINE
  5
2A8
100
AcDbEntity
  8
schematic
  6
ByLayer
 62
  256
370
   -1
100
AcDbLine
 10
367.138600801
 20
124.942843624
 11
367.138600801
 21
184.714386482
  0
INSERT
  5
2A9
100
AcDbEntity
  8
schematic
  6
ByLayer
 62
  256
370
   -1
100
AcDbBlockReference
  2
r1
 10
383.9029376
 20
184.568644441
 30
0
 41
1
 42
1
 43
0
 50
90
 70
    1
 71
    1
 44
0
 45
0
  0
INSERT
  5
2AA
100
AcDbEntity
  8
schematic
  6
ByLayer
 62
  256
370
   -1
100
AcDbBlockReference
  2
r1
 10
366.954525518
 20
184.674572016
 30
0
 41
1
 42
1
 43
0
 50
90
 70
    1
 71
    1
 44
0
 45
0
  0
INSERT
  5
2AB
100
AcDbEntity
  8
schematic
  6
ByLayer
 62
  256
370
   -1
100
AcDbBlockReference
  2
r1
 10
351.065389192
 20
184.35678929
 30
0
 41
1
 42
1
 43
0
 50
90
 70
    1
 71
    1
 44
0
 45
0
  0
INSERT
  5
2AC
100
AcDbEntity
  8
schematic
  6
ByLayer
 62
  256
370
   -1
100
AcDbBlockReference
  2
r1
 10
399.262436049
 20
184.35678929
 30
0
 41
1
 42
1
 43
0
 50
90
 70
    1
 71
    1
 44
0
 45
0
  0
INSERT
  5
2AD
100
AcDbEntity
  8
schematic
  6
ByLayer
 62
  256
370
   -1
100
AcDbBlockReference
  2
mcp2014x-connector-7
 10
348
 20
117
 30
0
 41
1
 42
1
 43
0
 50
0
 70
    1
 71
    1
 44
0
 45
0
  0
INSERT
  5
2AE
100
AcDbEntity
  8
schematic
  6
ByLayer
 62
  256
370
   -1
100
AcDbBlockReference
  2
mcp2014x-connector-8
 10
364
 20
117
 30
0
 41
1
 42
1
 43
0
 50
0
 70
    1
 71
    1
 44
0
 45
0
  0
INSERT
  5
2AF
100
AcDbEntity
  8
schematic
  6
ByLayer
 62
  256
370
   -1
100
AcDbBlockReference
  2
mcp2014x-connector-9
 10
381
 20
117
 30
0
 41
1
 42
1
 43
0
 50
0
 70
    1
 71
    1
 44
0
 45
0
  0
INSERT
  5
2B0
100
AcDbEntity
  8
schematic
  6
ByLayer
 62
  256
370
   -1
100
AcDbBlockReference
  2
mcp2014x-connector-10
 10
396
 20
117
 30
0
 41
1
 42
1
 43
0
 50
0
 70
    1
 71
    1
 44
0
 45
0
  0
INSERT
  5
2B1
100
AcDbEntity
  8
schematic
  6
ByLayer
 62
  256
370
   -1
100
AcDbBlockReference
  2
diodo_bobina
 10
355.408419788
 20
189.737910126
 30
0
 41
0.4
 42
0.4
 43
0
 50
0
 70
    1
 71
    1
 44
0.4
 45
0.4
  0
INSERT
  5
2B2
100
AcDbEntity
  8
schematic
  6
ByLayer
 62
  256
370
   -1
100
AcDbBlockReference
  2
diodo_bobina
 10
388.373081287
 20
189.992136307
 30
0
 41
0.4
 42
0.4
 43
0
 50
0
 70
    1
 71
    1
 44
0.4
 45
0.4
  0
INSERT
  5
2B3
100
AcDbEntity
  8
schematic
  6
ByLayer
 62
  256
370
   -1
100
AcDbBlockReference
  2
diodo_bobina
 10
403.62665216
 20
189.822652186
 30
0
 41
0.4
 42
0.4
 43
0
 50
0
 70
    1
 71
    1
 44
0.4
 45
0.4
  0
INSERT
  5
2B4
100
AcDbEntity
  8
schematic
  6
ByLayer
 62
  256
370
   -1
100
AcDbBlockReference
  2
diodo_bobina
 10
371.424669205
 20
190.076878367
 30
0
 41
0.4
 42
0.4
 43
0
 50
0
 70
    1
 71
    1
 44
0.4
 45
0.4
  0
MTEXT
  5
2B5
100
AcDbEntity
  8
labels
  6
ByLayer
 62
  256
370
   -1
100
AcDbMText
 10
349.158692833
 20
121.541737012
 30
0
 40
3
 41
3.666666666667038
 71
    1
 72
    1
  1
65
  7
standard
210
0
220
0
230
1
 50
0
 73
    2
 44
1
  0
LINE
  5
2B6
100
AcDbEntity
  8
schematic
  6
ByLayer
 62
  256
370
   -1
100
AcDbLine
 10
406
 20
80.896122449
 11
30.8112244898
 21
80.896122449
  0
LINE
  5
2B7
100
AcDbEntity
  8
schematic
  6
ByLayer
 62
  256
370
   -1
100
AcDbLine
 10
30.8112244898
 20
124.536938776
 11
406
 21
124.536938776
  0
LINE
  5
2B8
100
AcDbEntity
  8
schematic
  6
ByLayer
 62
  256
370
   -1
100
AcDbLine
 10
406
 20
124.536938776
 11
406
 21
81
  0
MTEXT
  5
2B9
100
AcDbEntity
  8
labels
  6
ByLayer
 62
  256
370
   -1
100
AcDbMText
 10
259.787378939
 20
164.786669714
 30
0
 40
3
 41
4.333333333333333
 71
    1
 72
    1
  1
RP
  7
standard
210
0
220
0
230
1
 50
0
 73
    2
 44
1
  0
MTEXT
  5
2BA
100
AcDbEntity
  8
labels
  6
ByLayer
 62
  256
370
   -1
100
AcDbMText
 10
349.296180245
 20
193.254705633
 30
0
 40
3
 41
1.666666666666667
 71
    1
 72
    1
  1
P
  7
standard
210
0
220
0
230
1
 50
0
 73
    2
 44
1
  0
MTEXT
  5
2BB
100
AcDbEntity
  8
labels
  6
ByLayer
 62
  256
370
   -1
100
AcDbMText
 10
363.331584
 20
193.387115102
 30
0
 40
3
 41
4.666666666666666
 71
    1
 72
    1
  1
PV
  7
standard
210
0
220
0
230
1
 50
0
 73
    2
 44
1
  0
MTEXT
  5
2BC
100
AcDbEntity
  8
labels
  6
ByLayer
 62
  256
370
   -1
100
AcDbMText
 10
379.220720327
 20
193.651934041
 30
0
 40
3
 41
6.999999363993552
 71
    1
 72
    1
  1
SAL
  7
standard
210
0
220
0
230
1
 50
0
 73
    2
 44
1
  0
MTEXT
  5
2BD
100
AcDbEntity
  8
labels
  6
ByLayer
 62
  256
370
   -1
100
AcDbMText
 10
395.242266122
 20
193.387115102
 30
0
 40
3
 41
5.333332697327071
 71
    1
 72
    1
  1
DIS
  7
standard
210
0
220
0
230
1
 50
0
 73
    2
 44
1
  0
MTEXT
  5
2BE
100
AcDbEntity
  8
labels
  6
ByLayer
 62
  256
370
   -1
100
AcDbMText
 10
34.9126530612
 20
226.45844898
 30
0
 40
6
 41
1.333333333333333
 71
    1
 72
    1
  1
1
  7
standard
210
0
220
0
230
1
 50
0
 73
    2
 44
1
  0
MTEXT
  5
2BF
100
AcDbEntity
  8
labels
  6
ByLayer
 62
  256
370
   -1
100
AcDbMText
 10
62.3902040816
 20
226.587755102
 30
0
 40
6
 41
2.666666666666667
 71
    1
 72
    1
  1
2
  7
standard
210
0
220
0
230
1
 50
0
 73
    2
 44
1
  0
MTEXT
  5
2C0
100
AcDbEntity
  8
labels
  6
ByLayer
 62
  256
370
   -1
100
AcDbMText
 10
96.5000212898
 20
227.257457371
 30
0
 40
6
 41
2.666666666667039
 71
    1
 72
    1
  1
3
  7
standard
210
0
220
0
230
1
 50
0
 73
    2
 44
1
  0
MTEXT
  5
2C1
100
AcDbEntity
  8
labels
  6
ByLayer
 62
  256
370
   -1
100
AcDbMText
 10
118.215174269
 20
226.727819494
 30
0
 40
6
 41
3.333333333333333
 71
    1
 72
    1
  1
4
  7
standard
210
0
220
0
230
1
 50
0
 73
    2
 44
1
  0
MTEXT
  5
2C2
100
AcDbEntity
  8
labels
  6
ByLayer
 62
  256
370
   -1
100
AcDbMText
 10
149.251953894
 20
227.575240098
 30
0
 40
6
 41
2.666666666667039
 71
    1
 72
    1
  1
5
  7
standard
210
0
220
0
230
1
 50
0
 73
    2
 44
1
  0
MTEXT
  5
2C3
100
AcDbEntity
  8
labels
  6
ByLayer
 62
  256
370
   -1
100
AcDbMText
 10
179.229457763
 20
227.893022824
 30
0
 40
6
 41
2.666666666667039
 71
    1
 72
    1
  1
6
  7
standard
210
0
220
0
230
1
 50
0
 73
    2
 44
1
  0
MTEXT
  5
2C4
100
AcDbEntity
  8
labels
  6
ByLayer
 62
  256
370
   -1
100
AcDbMText
 10
210.054382237
 20
228.846371004
 30
0
 40
6
 41
2.666666666666667
 71
    1
 72
    1
  1
7
  7
standard
210
0
220
0
230
1
 50
0
 73
    2
 44
1
  0
MTEXT
  5
2C5
100
AcDbEntity
  8
labels
  6
ByLayer
 62
  256
370
   -1
100
AcDbMText
 10
239.608175804
 20
229.481936457
 30
0
 40
6
 41
2.666666666666667
 71
    1
 72
    1
  1
8
  7
standard
210
0
220
0
230
1
 50
0
 73
    2
 44
1
  0
MTEXT
  5
2C6
100
AcDbEntity
  8
labels
  6
ByLayer
 62
  256
370
   -1
100
AcDbMText
 10
270.221245127
 20
228.95229858
 30
0
 40
6
 41
2.666666666667039
 71
    1
 72
    1
  1
9
  7
standard
210
0
220
0
230
1
 50
0
 73
    2
 44
1
  0
MTEXT
  5
2C7
100
AcDbEntity
  8
labels
  6
ByLayer
 62
  256
370
   -1
100
AcDbMText
 10
296.703139004
 20
229.587864033
 30
0
 40
6
 41
5.999999999999999
 71
    1
 72
    1
  1
10
  7
standard
210
0
220
0
230
1
 50
0
 73
    2
 44
1
  0
LINE
  5
2C8
100
AcDbEntity
  8
schematic
  6
ByLayer
 62
  256
370
   -1
100
AcDbLine
 10
367
 20
117
 11
367
 21
113
  0
LINE
  5
2C9
100
AcDbEntity
  8
schematic
  6
ByLayer
 62
  256
370
   -1
100
AcDbLine
 10
384
 20
117
 11
384
 21
113
  0
LINE
  5
2CA
100
AcDbEntity
  8
schematic
  6
ByLayer
 62
  256
370
   -1
100
AcDbLine
 10
399
 20
117
 11
399
 21
113
  0
LINE
  5
2CB
100
AcDbEntity
  8
schematic
  6
ByLayer
 62
  256
370
   -1
100
AcDbLine
 10
367
 20
109
 11
367
 21
105
  0
LINE
  5
2CC
100
AcDbEntity
  8
schematic
  6
ByLayer
 62
  256
370
   -1
100
AcDbLine
 10
367
 20
105
 11
384
 21
105
  0
LINE
  5
2CD
100
AcDbEntity
  8
schematic
  6
ByLayer
 62
  256
370
   -1
100
AcDbLine
 10
384
 20
105
 11
384
 21
109
  0
LINE
  5
2CE
100
AcDbEntity
  8
schematic
  6
ByLayer
 62
  256
370
   -1
100
AcDbLine
 10
384
 20
105
 11
399
 21
105
  0
LINE
  5
2CF
100
AcDbEntity
  8
schematic
  6
ByLayer
 62
  256
370
   -1
100
AcDbLine
 10
399
 20
105
 11
399
 21
109
  0
INSERT
  5
2D0
100
AcDbEntity
  8
schematic
  6
ByLayer
 62
  256
370
   -1
100
AcDbBlockReference
  2
mcp2014x-connector
 10
364
 20
82
 30
0
 41
1
 42
1
 43
0
 50
0
 70
    1
 71
    1
 44
1
 45
1
  0
LINE
  5
2D1
100
AcDbEntity
  8
schematic
  6
ByLayer
 62
  256
370
   -1
100
AcDbLine
 10
367
 20
105
 11
367
 21
88.17580183939999
  0
LINE
  5
2D2
100
AcDbEntity
  8
schematic
  6
ByLayer
 62
  256
370
   -1
100
AcDbLine
 10
367
 20
109
 11
369
 21
113
  0
LINE
  5
2D3
100
AcDbEntity
  8
schematic
  6
ByLayer
 62
  256
370
   -1
100
AcDbLine
 10
384
 20
109
 11
386
 21
113
  0
LINE
  5
2D4
100
AcDbEntity
  8
schematic
  6
ByLayer
 62
  256
370
   -1
100
AcDbLine
 10
399
 20
109
 11
401
 21
113
  0
MTEXT
  5
2D5
100
AcDbEntity
  8
labels
  6
ByLayer
 62
  256
370
   -1
100
AcDbMText
 10
365.026425208
 20
86.69156466939999
 30
0
 40
3
 41
4.000000000000186
 71
    1
 72
    1
  1
64
  7
standard
210
0
220
0
230
1
 50
0
 73
    2
 44
1
  0
INSERT
  5
2D6
100
AcDbEntity
  8
schematic
  6
ByLayer
 62
  256
370
   -1
100
AcDbBlockReference
  2
junction
 10
367
 20
105
 30
0
 41
1
 42
1
 43
0
 50
0
 70
    1
 71
    1
 44
1
 45
1
  0
LINE
  5
2D7
100
AcDbEntity
  8
schematic
  6
ByLayer
 62
  256
370
   -1
100
AcDbLine
 10
351
 20
117
 11
351
 21
113
  0
LINE
  5
2D8
100
AcDbEntity
  8
schematic
  6
ByLayer
 62
  256
370
   -1
100
AcDbLine
 10
351
 20
109
 11
351
 21
105
  0
LINE
  5
2D9
100
AcDbEntity
  8
schematic
  6
ByLayer
 62
  256
370
   -1
100
AcDbLine
 10
351
 20
109
 11
353
 21
113
  0
MTEXT
  5
2DA
100
AcDbEntity
  8
labels
  6
ByLayer
 62
  256
370
   -1
100
AcDbMText
 10
346.11835298
 20
112.042283102
 30
0
 40
3
 41
4.333333333333333
 71
    1
 72
    1
  1
RP
  7
standard
210
0
220
0
230
1
 50
0
 73
    2
 44
1
  0
MTEXT
  5
2DB
100
AcDbEntity
  8
labels
  6
ByLayer
 62
  256
370
   -1
100
AcDbMText
 10
358.527888544
 20
112.704330449
 30
0
 40
3
 41
7.333333333333332
 71
    1
 72
    1
  1
RPV
  7
standard
210
0
220
0
230
1
 50
0
 73
    2
 44
1
  0
MTEXT
  5
2DC
100
AcDbEntity
  8
labels
  6
ByLayer
 62
  256
370
   -1
100
AcDbMText
 10
373.641045333
 20
113.101558857
 30
0
 40
3
 41
9.666666030660219
 71
    1
 72
    1
  1
RSAL
  7
standard
210
0
220
0
230
1
 50
0
 73
    2
 44
1
  0
MTEXT
  5
2DD
100
AcDbEntity
  8
labels
  6
ByLayer
 62
  256
370
   -1
100
AcDbMText
 10
389.151430531
 20
113.676614531
 30
0
 40
3
 41
7.999999363993739
 71
    1
 72
    1
  1
RDIS
  7
standard
210
0
220
0
230
1
 50
0
 73
    2
 44
1
  0
MTEXT
  5
2DE
100
AcDbEntity
  8
labels
  6
ByLayer
 62
  256
370
   -1
100
AcDbMText
 10
365.319268571
 20
121.389466122
 30
0
 40
3
 41
3.666666666667038
 71
    1
 72
    1
  1
66
  7
standard
210
0
220
0
230
1
 50
0
 73
    2
 44
1
  0
MTEXT
  5
2DF
100
AcDbEntity
  8
labels
  6
ByLayer
 62
  256
370
   -1
100
AcDbMText
 10
382.035964082
 20
122.051513469
 30
0
 40
3
 41
3.666666666666852
 71
    1
 72
    1
  1
68
  7
standard
210
0
220
0
230
1
 50
0
 73
    2
 44
1
  0
MTEXT
  5
2E0
100
AcDbEntity
  8
labels
  6
ByLayer
 62
  256
370
   -1
100
AcDbMText
 10
396.932029388
 20
121.886001633
 30
0
 40
3
 41
3.666666666666852
 71
    1
 72
    1
  1
67
  7
standard
210
0
220
0
230
1
 50
0
 73
    2
 44
1
  0
LINE
  5
2E1
100
AcDbEntity
  8
schematic
  6
ByLayer
 62
  256
370
   -1
100
AcDbLine
 10
263
 20
117
 11
263
 21
110
  0
LINE
  5
2E2
100
AcDbEntity
  8
schematic
  6
ByLayer
 62
  256
370
   -1
100
AcDbLine
 10
263
 20
103
 11
267
 21
110
  0
INSERT
  5
2E3
100
AcDbEntity
  8
schematic
  6
ByLayer
 62
  256
370
   -1
100
AcDbBlockReference
  2
mcp2014x-connector
 10
260
 20
82
 30
0
 41
1
 42
1
 43
0
 50
0
 70
    1
 71
    1
 44
1
 45
1
  0
LINE
  5
2E4
100
AcDbEntity
  8
schematic
  6
ByLayer
 62
  256
370
   -1
100
AcDbLine
 10
263
 20
88.17580183939999
 11
263
 21
103
  0
MTEXT
  5
2E5
100
AcDbEntity
  8
labels
  6
ByLayer
 62
  256
370
   -1
100
AcDbMText
 10
255
 20
108
 30
0
 40
3
 41
6.999999999999999
 71
    1
 72
    1
  1
RRP
  7
standard
210
0
220
0
230
1
 50
0
 73
    2
 44
1
  0
MTEXT
  5
2E6
100
AcDbEntity
  8
labels
  6
ByLayer
 62
  256
370
   -1
100
AcDbMText
 10
261
 20
87
 30
0
 40
3
 41
3.666666666666666
 71
    1
 72
    1
  1
77
  7
standard
210
0
220
0
230
1
 50
0
 73
    2
 44
1
  0
INSERT
  5
2E7
100
AcDbEntity
  8
schematic
  6
ByLayer
 62
  256
370
   -1
100
AcDbBlockReference
  2
Terminal-in
 10
50
 20
52
 30
0
 41
1
 42
1
 43
0
 50
180
 70
    1
 71
    1
 44
1
 45
1
  0
INSERT
  5
2E8
100
AcDbEntity
  8
schematic
  6
ByLayer
 62
  256
370
   -1
100
AcDbBlockReference
  2
Terminal-in
 10
70
 20
52
 30
0
 41
1
 42
1
 43
0
 50
180
 70
    1
 71
    1
 44
1
 45
1
  0
INSERT
  5
2E9
100
AcDbEntity
  8
schematic
  6
ByLayer
 62
  256
370
   -1
100
AcDbBlockReference
  2
mcp2014x-connector
 10
47
 20
82
 30
0
 41
1
 42
1
 43
0
 50
0
 70
    1
 71
    1
 44
1
 45
1
  0
LINE
  5
2EA
100
AcDbEntity
  8
schematic
  6
ByLayer
 62
  256
370
   -1
100
AcDbLine
 10
50
 20
52
 11
50
 21
81
  0
LINE
  5
2EB
100
AcDbEntity
  8
schematic
  6
ByLayer
 62
  256
370
   -1
100
AcDbLine
 10
35
 20
52
 11
70
 21
52
  0
INSERT
  5
2EC
100
AcDbEntity
  8
schematic
  6
ByLayer
 62
  256
370
   -1
100
AcDbBlockReference
  2
Terminal-in
 10
85
 20
52
 30
0
 41
1
 42
1
 43
0
 50
180
 70
    1
 71
    1
 44
1
 45
1
  0
INSERT
  5
2ED
100
AcDbEntity
  8
schematic
  6
ByLayer
 62
  256
370
   -1
100
AcDbBlockReference
  2
Terminal-in
 10
105
 20
52
 30
0
 41
1
 42
1
 43
0
 50
180
 70
    1
 71
    1
 44
1
 45
1
  0
LINE
  5
2EE
100
AcDbEntity
  8
schematic
  6
ByLayer
 62
  256
370
   -1
100
AcDbLine
 10
85
 20
52
 11
85
 21
81
  0
LINE
  5
2EF
100
AcDbEntity
  8
schematic
  6
ByLayer
 62
  256
370
   -1
100
AcDbLine
 10
70
 20
52
 11
105
 21
52
  0
INSERT
  5
2F0
100
AcDbEntity
  8
schematic
  6
ByLayer
 62
  256
370
   -1
100
AcDbBlockReference
  2
mcp2014x-connector
 10
82
 20
82
 30
0
 41
1
 42
1
 43
0
 50
0
 70
    1
 71
    1
 44
1
 45
1
  0
INSERT
  5
2F1
100
AcDbEntity
  8
schematic
  6
ByLayer
 62
  256
370
   -1
100
AcDbBlockReference
  2
junction
 10
70
 20
52
 30
0
 41
1
 42
1
 43
0
 50
0
 70
    1
 71
    1
 44
1
 45
1
  0
LINE
  5
2F2
100
AcDbEntity
  8
schematic
  6
ByLayer
 62
  256
370
   -1
100
AcDbLine
 10
105
 20
52
 11
120
 21
52
  0
LINE
  5
2F3
100
AcDbEntity
  8
schematic
  6
ByLayer
 62
  256
370
   -1
100
AcDbLine
 10
120
 20
52
 11
135
 21
52
  0
LINE
  5
2F4
100
AcDbEntity
  8
schematic
  6
ByLayer
 62
  256
370
   -1
100
AcDbLine
 10
135
 20
52
 11
150
 21
52
  0
MTEXT
  5
2F5
100
AcDbEntity
  8
labels
  6
ByLayer
 62
  256
370
   -1
100
AcDbMText
 10
39
 20
43
 30
0
 40
3
 41
6.666666666666666
 71
    1
 72
    1
  1
TOL
  7
standard
210
0
220
0
230
1
 50
0
 73
    2
 44
1
  0
MTEXT
  5
2F6
100
AcDbEntity
  8
labels
  6
ByLayer
 62
  256
370
   -1
100
AcDbMText
 10
59
 20
43
 30
0
 40
3
 41
6.666666666666666
 71
    1
 72
    1
  1
TOL
  7
standard
210
0
220
0
230
1
 50
0
 73
    2
 44
1
  0
MTEXT
  5
2F7
100
AcDbEntity
  8
labels
  6
ByLayer
 62
  256
370
   -1
100
AcDbMText
 10
74
 20
43
 30
0
 40
3
 41
6.666666666666666
 71
    1
 72
    1
  1
PTC
  7
standard
210
0
220
0
230
1
 50
0
 73
    2
 44
1
  0
MTEXT
  5
2F8
100
AcDbEntity
  8
labels
  6
ByLayer
 62
  256
370
   -1
100
AcDbMText
 10
94
 20
43
 30
0
 40
3
 41
6.666666666666666
 71
    1
 72
    1
  1
PTC
  7
standard
210
0
220
0
230
1
 50
0
 73
    2
 44
1
  0
MTEXT
  5
2F9
100
AcDbEntity
  8
labels
  6
ByLayer
 62
  256
370
   -1
100
AcDbMText
 10
48.2148426898
 20
86.3085305563
 30
0
 40
3
 41
3.666666666667038
 71
    1
 72
    1
  1
35
  7
standard
210
0
220
0
230
1
 50
0
 73
    2
 44
1
  0
MTEXT
  5
2FA
100
AcDbEntity
  8
labels
  6
ByLayer
 62
  256
370
   -1
100
AcDbMText
 10
83.1828064967
 20
86.2678543673
 30
0
 40
3
 41
4.000000000000186
 71
    1
 72
    1
  1
43
  7
standard
210
0
220
0
230
1
 50
0
 73
    2
 44
1
  0
INSERT
  5
2FB
100
AcDbEntity
  8
schematic
  6
ByLayer
 62
  256
370
   -1
100
AcDbBlockReference
  2
Terminal-in
 10
35
 20
52
 30
0
 41
1
 42
1
 43
0
 50
180
 70
    1
 71
    1
 44
1
 45
1
  0
MTEXT
  5
2FC
100
AcDbEntity
  8
labels
  6
ByLayer
 62
  256
370
   -1
100
AcDbMText
 10
23
 20
44
 30
0
 40
3
 41
7.000000000000371
 71
    1
 72
    1
  1
GND
  7
standard
210
0
220
0
230
1
 50
0
 73
    2
 44
1
  0
MTEXT
  5
2FD
100
AcDbEntity
  8
labels
  6
ByLayer
 62
  256
370
   -1
100
AcDbMText
 10
266.887836735
 20
170.598204082
 30
0
 40
2
 41
2.444444444444445
 71
    1
 72
    1
  1
A1
  7
standard
210
0
220
0
230
1
 50
0
 73
    2
 44
1
  0
MTEXT
  5
2FE
100
AcDbEntity
  8
labels
  6
ByLayer
 62
  256
370
   -1
100
AcDbMText
 10
353.202259592
 20
198.021446531
 30
0
 40
2
 41
2.444444444444445
 71
    1
 72
    1
  1
A1
  7
standard
210
0
220
0
230
1
 50
0
 73
    2
 44
1
  0
MTEXT
  5
2FF
100
AcDbEntity
  8
labels
  6
ByLayer
 62
  256
370
   -1
100
AcDbMText
 10
369.753443265
 20
198.186958367
 30
0
 40
2
 41
2.444444444444445
 71
    1
 72
    1
  1
A1
  7
standard
210
0
220
0
230
1
 50
0
 73
    2
 44
1
  0
MTEXT
  5
300
100
AcDbEntity
  8
labels
  6
ByLayer
 62
  256
370
   -1
100
AcDbMText
 10
386.966674286
 20
198.352470204
 30
0
 40
2
 41
2.444444444444445
 71
    1
 72
    1
  1
A1
  7
standard
210
0
220
0
230
1
 50
0
 73
    2
 44
1
  0
MTEXT
  5
301
100
AcDbEntity
  8
labels
  6
ByLayer
 62
  256
370
   -1
100
AcDbMText
 10
402.524786939
 20
198.352470204
 30
0
 40
2
 41
2.444444444444445
 71
    1
 72
    1
  1
A1
  7
standard
210
0
220
0
230
1
 50
0
 73
    2
 44
1
  0
MTEXT
  5
302
100
AcDbEntity
  8
labels
  6
ByLayer
 62
  256
370
   -1
100
AcDbMText
 10
353
 20
187
 30
0
 40
2
 41
2.888888888888889
 71
    1
 72
    1
  1
A2
  7
standard
210
0
220
0
230
1
 50
0
 73
    2
 44
1
  0
MTEXT
  5
303
100
AcDbEntity
  8
labels
  6
ByLayer
 62
  256
370
   -1
100
AcDbMText
 10
370
 20
187
 30
0
 40
2
 41
2.888888888888889
 71
    1
 72
    1
  1
A2
  7
standard
210
0
220
0
230
1
 50
0
 73
    2
 44
1
  0
MTEXT
  5
304
100
AcDbEntity
  8
labels
  6
ByLayer
 62
  256
370
   -1
100
AcDbMText
 10
386
 20
187
 30
0
 40
2
 41
2.888888888888889
 71
    1
 72
    1
  1
A2
  7
standard
210
0
220
0
230
1
 50
0
 73
    2
 44
1
  0
MTEXT
  5
305
100
AcDbEntity
  8
labels
  6
ByLayer
 62
  256
370
   -1
100
AcDbMText
 10
402
 20
187
 30
0
 40
2
 41
2.888888888888889
 71
    1
 72
    1
  1
A2
  7
standard
210
0
220
0
230
1
 50
0
 73
    2
 44
1
  0
MTEXT
  5
306
100
AcDbEntity
  8
labels
  6
ByLayer
 62
  256
370
   -1
100
AcDbMText
 10
267
 20
158
 30
0
 40
2
 41
2.888888888888889
 71
    1
 72
    1
  1
A2
  7
standard
210
0
220
0
230
1
 50
0
 73
    2
 44
1
  0
MTEXT
  5
307
100
AcDbEntity
  8
labels
  6
ByLayer
 62
  256
370
   -1
100
AcDbMText
 10
50
 20
266
 30
0
 40
3
 41
12.66666666666667
 71
    1
 72
    1
  1
EXTRA\PCORSA
  7
standard
210
0
220
0
230
1
 50
0
 73
    2
 44
1
  0
MTEXT
  5
308
100
AcDbEntity
  8
labels
  6
ByLayer
 62
  256
370
   -1
100
AcDbMText
 10
140
 20
266
 30
0
 40
3
 41
12.33333206132044
 71
    1
 72
    1
  1
INTER\PFOSSA
  7
standard
210
0
220
0
230
1
 50
0
 73
    2
 44
1
  0
MTEXT
  5
309
100
AcDbEntity
  8
labels
  6
ByLayer
 62
  256
370
   -1
100
AcDbMText
 10
220
 20
272
 30
0
 40
3
 41
23.99999966666694
 71
    1
 72
    1
  1
PRELIMINARI\P(ponticellare \Pse auto)
  7
standard
210
0
220
0
230
1
 50
0
 73
    2
 44
1
  0
MTEXT
  5
30A
100
AcDbEntity
  8
labels
  6
ByLayer
 62
  256
370
   -1
100
AcDbMText
 10
165
 20
266
 30
0
 40
3
 41
13.66666666666685
 71
    1
 72
    1
  1
ALT\PCABINA
  7
standard
210
0
220
0
230
1
 50
0
 73
    2
 44
1
  0
MTEXT
  5
30B
100
AcDbEntity
  8
labels
  6
ByLayer
 62
  256
370
   -1
100
AcDbMText
 10
84
 20
274
 30
0
 40
3
 41
29.33333333333333
 71
    1
 72
    1
  1
BOTTONIERA\PMANUTENZIONE\PCABINA\P(vedi pag. 2)
  7
standard
210
0
220
0
230
1
 50
0
 73
    2
 44
1
  0
MTEXT
  5
30C
100
AcDbEntity
  8
labels
  6
ByLayer
 62
  256
370
   -1
100
AcDbMText
 10
254
 20
266
 30
0
 40
3
 41
13.66666666666685
 71
    1
 72
    1
  1
PORTE\PCABINA
  7
standard
210
0
220
0
230
1
 50
0
 73
    2
 44
1
  0
MTEXT
  5
30D
100
AcDbEntity
  8
labels
  6
ByLayer
 62
  256
370
   -1
100
AcDbMText
 10
190.666666667
 20
262
 30
0
 40
3
 41
26.00000000000019
 71
    1
 72
    1
  1
PARACADUTE
  7
standard
210
0
220
0
230
1
 50
0
 73
    2
 44
1
  0
MTEXT
  5
30E
100
AcDbEntity
  8
labels
  6
ByLayer
 62
  256
370
   -1
100
AcDbMText
 10
286
 20
261
 30
0
 40
3
 41
15
 71
    1
 72
    1
  1
BLOCCHI
  7
standard
210
0
220
0
230
1
 50
0
 73
    2
 44
1
  0
LINE
  5
30F
100
AcDbEntity
  8
schematic
  6
ByLayer
 62
  256
370
   -1
100
AcDbLine
 10
50
 20
32
 11
50
 21
26
  0
LINE
  5
310
100
AcDbEntity
  8
schematic
  6
ByLayer
 62
  256
370
   -1
100
AcDbLine
 10
50
 20
26
 11
56
 21
26
  0
LINE
  5
311
100
AcDbEntity
  8
schematic
  6
ByLayer
 62
  256
370
   -1
100
AcDbLine
 10
56
 20
26
 11
63
 21
31
  0
LINE
  5
312
100
AcDbEntity
  8
schematic
  6
ByLayer
 62
  256
370
   -1
100
AcDbLine
 10
63
 20
31
 11
63
 21
26
  0
LINE
  5
313
100
AcDbEntity
  8
schematic
  6
ByLayer
 62
  256
370
   -1
100
AcDbLine
 10
63
 20
26
 11
70
 21
26
  0
LINE
  5
314
100
AcDbEntity
  8
schematic
  6
ByLayer
 62
  256
370
   -1
100
AcDbLine
 10
70
 20
26
 11
70
 21
32
  0
LINE
  5
315
100
AcDbEntity
  8
schematic
  6
ByLayer
 62
  256
370
   -1
100
AcDbLine
 10
85
 20
32
 11
85
 21
26
  0
LINE
  5
316
100
AcDbEntity
  8
schematic
  6
ByLayer
 62
  256
370
   -1
100
AcDbLine
 10
105
 20
26
 11
105
 21
32
  0
MTEXT
  5
317
100
AcDbEntity
  8
labels
  6
ByLayer
 62
  256
370
   -1
100
AcDbMText
 10
47.5846530612
 20
24.0683102041
 30
0
 40
3
 41
26.58333333333333
 71
    1
 72
    1
  1
TERMICO OLIO
  7
standard
210
0
220
0
230
1
 50
0
 73
    2
 44
1
  0
INSERT
  5
318
100
AcDbEntity
  8
schematic
  6
ByLayer
 62
  256
370
   -1
100
AcDbBlockReference
  2
Resistor-Therm
 10
86
 20
26
 30
0
 41
0.6
 42
0.6
 43
0
 50
0
 70
    1
 71
    1
 44
0
 45
0
  0
LINE
  5
319
100
AcDbEntity
  8
schematic
  6
ByLayer
 62
  256
370
   -1
100
AcDbLine
 10
103
 20
26
 11
105
 21
26
  0
MTEXT
  5
31A
100
AcDbEntity
  8
labels
  6
ByLayer
 62
  256
370
   -1
100
AcDbMText
 10
85
 20
22
 30
0
 40
3
 41
22.33333269732688
 71
    1
 72
    1
  1
TERMISTORI
  7
standard
210
0
220
0
230
1
 50
0
 73
    2
 44
1
  0
LINE
  5
31B
100
AcDbEntity
  8
labels
  6
ByLayer
 62
  256
370
   -1
100
AcDbLine
 10
85
 20
26
 11
86
 21
26
  0
LINE
  5
31C
100
AcDbEntity
  8
schematic
  6
ByLayer
 62
  256
370
   -1
100
AcDbLine
 10
43
 20
250
 11
43
 21
234
  0
LINE
  5
31D
100
AcDbEntity
  8
schematic
  6
ByLayer
 62
  256
370
   -1
100
AcDbLine
 10
43
 20
234
 11
40
 21
234
  0
LINE
  5
31E
100
AcDbEntity
  8
schematic
  6
ByLayer
 62
  256
370
   -1
100
AcDbLine
 10
40
 20
234
 11
46
 21
234
  0
LINE
  5
31F
100
AcDbEntity
  8
schematic
  6
ByLayer
 62
  256
370
   -1
100
AcDbLine
 10
46
 20
234
 11
43
 21
230
  0
LINE
  5
320
100
AcDbEntity
  8
schematic
  6
ByLayer
 62
  256
370
   -1
100
AcDbLine
 10
43
 20
230
 11
40
 21
234
  0
LINE
  5
321
100
AcDbEntity
  8
schematic
  6
ByLayer
 62
  256
370
   -1
100
AcDbLine
 10
73
 20
250
 11
73
 21
234
  0
LINE
  5
322
100
AcDbEntity
  8
schematic
  6
ByLayer
 62
  256
370
   -1
100
AcDbLine
 10
73
 20
234
 11
70
 21
234
  0
LINE
  5
323
100
AcDbEntity
  8
schematic
  6
ByLayer
 62
  256
370
   -1
100
AcDbLine
 10
70
 20
234
 11
76
 21
234
  0
LINE
  5
324
100
AcDbEntity
  8
schematic
  6
ByLayer
 62
  256
370
   -1
100
AcDbLine
 10
76
 20
234
 11
73
 21
230
  0
LINE
  5
325
100
AcDbEntity
  8
schematic
  6
ByLayer
 62
  256
370
   -1
100
AcDbLine
 10
73
 20
230
 11
70
 21
234
  0
LINE
  5
326
100
AcDbEntity
  8
schematic
  6
ByLayer
 62
  256
370
   -1
100
AcDbLine
 10
126
 20
250
 11
126
 21
234
  0
LINE
  5
327
100
AcDbEntity
  8
schematic
  6
ByLayer
 62
  256
370
   -1
100
AcDbLine
 10
126
 20
234
 11
123
 21
234
  0
LINE
  5
328
100
AcDbEntity
  8
schematic
  6
ByLayer
 62
  256
370
   -1
100
AcDbLine
 10
123
 20
234
 11
129
 21
234
  0
LINE
  5
329
100
AcDbEntity
  8
schematic
  6
ByLayer
 62
  256
370
   -1
100
AcDbLine
 10
129
 20
234
 11
126
 21
230
  0
LINE
  5
32A
100
AcDbEntity
  8
schematic
  6
ByLayer
 62
  256
370
   -1
100
AcDbLine
 10
126
 20
230
 11
123
 21
234
  0
LINE
  5
32B
100
AcDbEntity
  8
schematic
  6
ByLayer
 62
  256
370
   -1
100
AcDbLine
 10
157
 20
250
 11
157
 21
234
  0
LINE
  5
32C
100
AcDbEntity
  8
schematic
  6
ByLayer
 62
  256
370
   -1
100
AcDbLine
 10
157
 20
234
 11
154
 21
234
  0
LINE
  5
32D
100
AcDbEntity
  8
schematic
  6
ByLayer
 62
  256
370
   -1
100
AcDbLine
 10
154
 20
234
 11
160
 21
234
  0
LINE
  5
32E
100
AcDbEntity
  8
schematic
  6
ByLayer
 62
  256
370
   -1
100
AcDbLine
 10
160
 20
234
 11
157
 21
230
  0
LINE
  5
32F
100
AcDbEntity
  8
schematic
  6
ByLayer
 62
  256
370
   -1
100
AcDbLine
 10
157
 20
230
 11
154
 21
234
  0
LINE
  5
330
100
AcDbEntity
  8
schematic
  6
ByLayer
 62
  256
370
   -1
100
AcDbLine
 10
187
 20
250
 11
187
 21
234
  0
LINE
  5
331
100
AcDbEntity
  8
schematic
  6
ByLayer
 62
  256
370
   -1
100
AcDbLine
 10
187
 20
234
 11
184
 21
234
  0
LINE
  5
332
100
AcDbEntity
  8
schematic
  6
ByLayer
 62
  256
370
   -1
100
AcDbLine
 10
184
 20
234
 11
190
 21
234
  0
LINE
  5
333
100
AcDbEntity
  8
schematic
  6
ByLayer
 62
  256
370
   -1
100
AcDbLine
 10
190
 20
234
 11
187
 21
230
  0
LINE
  5
334
100
AcDbEntity
  8
schematic
  6
ByLayer
 62
  256
370
   -1
100
AcDbLine
 10
187
 20
230
 11
184
 21
234
  0
LINE
  5
335
100
AcDbEntity
  8
schematic
  6
ByLayer
 62
  256
370
   -1
100
AcDbLine
 10
218
 20
251
 11
218
 21
235
  0
LINE
  5
336
100
AcDbEntity
  8
schematic
  6
ByLayer
 62
  256
370
   -1
100
AcDbLine
 10
218
 20
235
 11
215
 21
235
  0
LINE
  5
337
100
AcDbEntity
  8
schematic
  6
ByLayer
 62
  256
370
   -1
100
AcDbLine
 10
215
 20
235
 11
221
 21
235
  0
LINE
  5
338
100
AcDbEntity
  8
schematic
  6
ByLayer
 62
  256
370
   -1
100
AcDbLine
 10
221
 20
235
 11
218
 21
231
  0
LINE
  5
339
100
AcDbEntity
  8
schematic
  6
ByLayer
 62
  256
370
   -1
100
AcDbLine
 10
218
 20
231
 11
215
 21
235
  0
LINE
  5
33A
100
AcDbEntity
  8
schematic
  6
ByLayer
 62
  256
370
   -1
100
AcDbLine
 10
248
 20
251
 11
248
 21
235
  0
LINE
  5
33B
100
AcDbEntity
  8
schematic
  6
ByLayer
 62
  256
370
   -1
100
AcDbLine
 10
248
 20
235
 11
245
 21
235
  0
LINE
  5
33C
100
AcDbEntity
  8
schematic
  6
ByLayer
 62
  256
370
   -1
100
AcDbLine
 10
245
 20
235
 11
251
 21
235
  0
LINE
  5
33D
100
AcDbEntity
  8
schematic
  6
ByLayer
 62
  256
370
   -1
100
AcDbLine
 10
251
 20
235
 11
248
 21
231
  0
LINE
  5
33E
100
AcDbEntity
  8
schematic
  6
ByLayer
 62
  256
370
   -1
100
AcDbLine
 10
248
 20
231
 11
245
 21
235
  0
LINE
  5
33F
100
AcDbEntity
  8
schematic
  6
ByLayer
 62
  256
370
   -1
100
AcDbLine
 10
278.1
 20
250.4
 11
278.1
 21
234.4
  0
LINE
  5
340
100
AcDbEntity
  8
schematic
  6
ByLayer
 62
  256
370
   -1
100
AcDbLine
 10
278.1
 20
234.4
 11
275.1
 21
234.4
  0
LINE
  5
341
100
AcDbEntity
  8
schematic
  6
ByLayer
 62
  256
370
   -1
100
AcDbLine
 10
275.1
 20
234.4
 11
281.1
 21
234.4
  0
LINE
  5
342
100
AcDbEntity
  8
schematic
  6
ByLayer
 62
  256
370
   -1
100
AcDbLine
 10
281.1
 20
234.4
 11
278.1
 21
230.4
  0
LINE
  5
343
100
AcDbEntity
  8
schematic
  6
ByLayer
 62
  256
370
   -1
100
AcDbLine
 10
278.1
 20
230.4
 11
275.1
 21
234.4
  0
LINE
  5
344
100
AcDbEntity
  8
schematic
  6
ByLayer
 62
  256
370
   -1
100
AcDbLine
 10
308.5
 20
250.6
 11
308.5
 21
234.6
  0
LINE
  5
345
100
AcDbEntity
  8
schematic
  6
ByLayer
 62
  256
370
   -1
100
AcDbLine
 10
308.5
 20
234.6
 11
305.5
 21
234.6
  0
LINE
  5
346
100
AcDbEntity
  8
schematic
  6
ByLayer
 62
  256
370
   -1
100
AcDbLine
 10
305.5
 20
234.6
 11
311.5
 21
234.6
  0
LINE
  5
347
100
AcDbEntity
  8
schematic
  6
ByLayer
 62
  256
370
   -1
100
AcDbLine
 10
311.5
 20
234.6
 11
308.5
 21
230.6
  0
LINE
  5
348
100
AcDbEntity
  8
schematic
  6
ByLayer
 62
  256
370
   -1
100
AcDbLine
 10
308.5
 20
230.6
 11
305.5
 21
234.6
  0
LINE
  5
349
100
AcDbEntity
  8
schematic
  6
ByLayer
 62
  256
370
   -1
100
AcDbLine
 10
48
 20
32
 11
52
 21
32
  0
LINE
  5
34A
100
AcDbEntity
  8
schematic
  6
ByLayer
 62
  256
370
   -1
100
AcDbLine
 10
52
 20
32
 11
50
 21
35
  0
LINE
  5
34B
100
AcDbEntity
  8
schematic
  6
ByLayer
 62
  256
370
   -1
100
AcDbLine
 10
50
 20
35
 11
48
 21
32
  0
LINE
  5
34C
100
AcDbEntity
  8
schematic
  6
ByLayer
 62
  256
370
   -1
100
AcDbLine
 10
68
 20
32
 11
72
 21
32
  0
LINE
  5
34D
100
AcDbEntity
  8
schematic
  6
ByLayer
 62
  256
370
   -1
100
AcDbLine
 10
72
 20
32
 11
70
 21
35
  0
LINE
  5
34E
100
AcDbEntity
  8
schematic
  6
ByLayer
 62
  256
370
   -1
100
AcDbLine
 10
70
 20
35
 11
68
 21
32
  0
LINE
  5
34F
100
AcDbEntity
  8
schematic
  6
ByLayer
 62
  256
370
   -1
100
AcDbLine
 10
83
 20
32
 11
87
 21
32
  0
LINE
  5
350
100
AcDbEntity
  8
schematic
  6
ByLayer
 62
  256
370
   -1
100
AcDbLine
 10
87
 20
32
 11
85
 21
35
  0
LINE
  5
351
100
AcDbEntity
  8
schematic
  6
ByLayer
 62
  256
370
   -1
100
AcDbLine
 10
85
 20
35
 11
83
 21
32
  0
LINE
  5
352
100
AcDbEntity
  8
schematic
  6
ByLayer
 62
  256
370
   -1
100
AcDbLine
 10
103
 20
32
 11
107
 21
32
  0
LINE
  5
353
100
AcDbEntity
  8
schematic
  6
ByLayer
 62
  256
370
   -1
100
AcDbLine
 10
107
 20
32
 11
105
 21
35
  0
LINE
  5
354
100
AcDbEntity
  8
schematic
  6
ByLayer
 62
  256
370
   -1
100
AcDbLine
 10
103
 20
32
 11
105
 21
35
  0
INSERT
  5
355
100
AcDbEntity
  8
schematic
  6
ByLayer
 62
  256
370
   -1
100
AcDbBlockReference
  2
Terminal-in
 10
263
 20
70
 30
0
 41
1
 42
1
 43
0
 50
180
 70
    1
 71
    1
 44
1
 45
1
  0
LINE
  5
356
100
AcDbEntity
  8
schematic
  6
ByLayer
 62
  256
370
   -1
100
AcDbLine
 10
263
 20
70
 11
263
 21
81
  0
LINE
  5
357
100
AcDbEntity
  8
schematic
  6
ByLayer
 62
  256
370
   -1
100
AcDbLine
 10
263
 20
70
 11
367
 21
70
  0
LINE
  5
358
100
AcDbEntity
  8
schematic
  6
ByLayer
 62
  256
370
   -1
100
AcDbLine
 10
367
 20
70
 11
367
 21
81
  0
MTEXT
  5
359
100
AcDbEntity
  8
labels
  6
ByLayer
 62
  256
370
   -1
100
AcDbMText
 10
255
 20
61
 30
0
 40
4
 41
5.777777777777778
 71
    2
 72
    1
  1
TN
  7
standard
210
0
220
0
230
1
 50
0
 73
    2
 44
1
  0
LINE
  5
35A
100
AcDbEntity
  8
schematic
  6
ByLayer
 62
  256
370
   -1
100
AcDbLine
 10
332.540841449
 20
124.658163265
 11
332.540841449
 21
183.809036735
  0
INSERT
  5
35B
100
AcDbEntity
  8
schematic
  6
ByLayer
 62
  256
370
   -1
100
AcDbBlockReference
  2
r1
 10
332.802059212
 20
184.35678929
 30
0
 41
1
 42
1
 43
0
 50
90
 70
    1
 71
    1
 44
0
 45
0
  0
INSERT
  5
35C
100
AcDbEntity
  8
schematic
  6
ByLayer
 62
  256
370
   -1
100
AcDbBlockReference
  2
mcp2014x-connector-7
 10
329.73667002
 20
117
 30
0
 41
1
 42
1
 43
0
 50
0
 70
    1
 71
    1
 44
0
 45
0
  0
INSERT
  5
35D
100
AcDbEntity
  8
schematic
  6
ByLayer
 62
  256
370
   -1
100
AcDbBlockReference
  2
diodo_bobina
 10
337.145089808
 20
189.737910126
 30
0
 41
0.4
 42
0.4
 43
0
 50
0
 70
    1
 71
    1
 44
0.4
 45
0.4
  0
LINE
  5
35E
100
AcDbEntity
  8
schematic
  6
ByLayer
 62
  256
370
   -1
100
AcDbLine
 10
332.73667002
 20
117
 11
332.73667002
 21
113
  0
LINE
  5
35F
100
AcDbEntity
  8
schematic
  6
ByLayer
 62
  256
370
   -1
100
AcDbLine
 10
332.73667002
 20
109
 11
332.73667002
 21
105
  0
LINE
  5
360
100
AcDbEntity
  8
schematic
  6
ByLayer
 62
  256
370
   -1
100
AcDbLine
 10
332.73667002
 20
109
 11
334.73667002
 21
113
  0
MTEXT
  5
361
100
AcDbEntity
  8
labels
  6
ByLayer
 62
  256
370
   -1
100
AcDbMText
 10
334.938929612
 20
198.021446531
 30
0
 40
2
 41
2.444444444444445
 71
    1
 72
    1
  1
A1
  7
standard
210
0
220
0
230
1
 50
0
 73
    2
 44
1
  0
MTEXT
  5
362
100
AcDbEntity
  8
labels
  6
ByLayer
 62
  256
370
   -1
100
AcDbMText
 10
334.73667002
 20
187
 30
0
 40
2
 41
2.888888888888889
 71
    1
 72
    1
  1
A2
  7
standard
210
0
220
0
230
1
 50
0
 73
    2
 44
1
  0
MTEXT
  5
363
100
AcDbEntity
  8
labels
  6
ByLayer
 62
  256
370
   -1
100
AcDbMText
 10
331.032850265
 20
193.254705633
 30
0
 40
3
 41
2
 71
    1
 72
    1
  1
Y
  7
standard
210
0
220
0
230
1
 50
0
 73
    2
 44
1
  0
MTEXT
  5
364
100
AcDbEntity
  8
labels
  6
ByLayer
 62
  256
370
   -1
100
AcDbMText
 10
323.974065379
 20
112.042283102
 30
0
 40
3
 41
6.999999999999999
 71
    1
 72
    1
  1
RBB
  7
standard
210
0
220
0
230
1
 50
0
 73
    2
 44
1
  0
INSERT
  5
365
100
AcDbEntity
  8
schematic
  6
ByLayer
 62
  256
370
   -1
100
AcDbBlockReference
  2
mcp2014x-connector
 10
348.019586268
 20
82
 30
0
 41
1
 42
1
 43
0
 50
0
 70
    1
 71
    1
 44
1
 45
1
  0
MTEXT
  5
366
100
AcDbEntity
  8
labels
  6
ByLayer
 62
  256
370
   -1
100
AcDbMText
 10
349.046011476
 20
86.69156466939999
 30
0
 40
3
 41
4.000000000000186
 71
    1
 72
    1
  1
64
  7
standard
210
0
220
0
230
1
 50
0
 73
    2
 44
1
  0
LINE
  5
367
100
AcDbEntity
  8
labels
  6
ByLayer
 62
  256
370
   -1
100
AcDbLine
 10
351.112518863
 20
105.014147384
 11
367.092932596
 21
105.014147384
  0
LINE
  5
368
100
AcDbEntity
  8
labels
  6
ByLayer
 62
  256
370
   -1
100
AcDbLine
 10
332.849188883
 20
105.242439009
 11
332.849188883
 21
88.3488587777
  0
LINE
  5
369
100
AcDbEntity
  8
labels
  6
ByLayer
 62
  256
370
   -1
100
AcDbLine
 10
332.849188883
 20
80.815235161
 11
332.849188883
 21
70.0855287978
  0
INSERT
  5
36A
100
AcDbEntity
  8
schematic
  6
ByLayer
 62
  256
370
   -1
100
AcDbBlockReference
  2
mcp2014x-connector
 10
329.756256288
 20
82
 30
0
 41
1
 42
1
 43
0
 50
0
 70
    1
 71
    1
 44
1
 45
1
  0
MTEXT
  5
36B
100
AcDbEntity
  8
labels
  6
ByLayer
 62
  256
370
   -1
100
AcDbMText
 10
330.895362853
 20
121.541737012
 30
0
 40
3
 41
3
 71
    1
 72
    1
  1
71
  7
standard
210
0
220
0
230
1
 50
0
 73
    2
 44
1
  0
MTEXT
  5
36C
100
AcDbEntity
  8
labels
  6
ByLayer
 62
  256
370
   -1
100
AcDbMText
 10
330.782681496
 20
86.69156466939999
 30
0
 40
3
 41
3.666666666666666
 71
    1
 72
    1
  1
72
  7
standard
210
0
220
0
230
1
 50
0
 73
    2
 44
1
  0
LEADER
  5
36D
100
AcDbEntity
  8
labels
  6
ByLayer
 62
  256
370
   -1
100
AcDbLeader
  3
Standard
 71
    1
 72
    0
 73
    3
 74
    0
 75
    0
 40
1
 41
10
 76
3
 76
3
 10
334.589912522
 20
227.578213421
 30
0
 10
348.144727741
 20
247.553730587
 30
0
 10
397.013403664
 20
247.553730587
 30
0
  0
MTEXT
  5
36E
100
AcDbEntity
  8
labels
  6
ByLayer
 62
  256
370
   -1
100
AcDbMText
 10
351.355078714
 20
244.700085277
 30
0
 40
3
 41
38.99999936399355
 71
    1
 72
    1
  1
CON AVVIAMENTO\PSTELLA-TRIANGOLO\P
  7
standard
210
0
220
0
230
1
 50
0
 73
    2
 44
1
  0
INSERT
  5
36F
100
AcDbEntity
  8
schematic
  6
ByLayer
 62
  256
370
   -1
100
AcDbBlockReference
  2
mcp2014x-connector
 10
244
 20
82
 30
0
 41
1
 42
1
 43
0
 50
0
 70
    1
 71
    1
 44
1
 45
1
  0
INSERT
  5
370
100
AcDbEntity
  8
schematic
  6
ByLayer
 62
  256
370
   -1
100
AcDbBlockReference
  2
mcp2014x-connector
 10
229
 20
82
 30
0
 41
1
 42
1
 43
0
 50
0
 70
    1
 71
    1
 44
1
 45
1
  0
INSERT
  5
371
100
AcDbEntity
  8
schematic
  6
ByLayer
 62
  256
370
   -1
100
AcDbBlockReference
  2
Terminal-in
 10
232
 20
50
 30
0
 41
1
 42
1
 43
0
 50
180
 70
    1
 71
    1
 44
1
 45
1
  0
INSERT
  5
372
100
AcDbEntity
  8
schematic
  6
ByLayer
 62
  256
370
   -1
100
AcDbBlockReference
  2
Terminal-in
 10
247
 20
50
 30
0
 41
1
 42
1
 43
0
 50
180
 70
    1
 71
    1
 44
1
 45
1
  0
LINE
  5
373
100
AcDbEntity
  8
schematic
  6
ByLayer
 62
  256
370
   -1
100
AcDbLine
 10
232
 20
50
 11
232
 21
60
  0
LINE
  5
374
100
AcDbEntity
  8
schematic
  6
ByLayer
 62
  256
370
   -1
100
AcDbLine
 10
247
 20
50
 11
247
 21
60
  0
MTEXT
  5
375
100
AcDbEntity
  8
labels
  6
ByLayer
 62
  256
370
   -1
100
AcDbMText
 10
240
 20
41
 30
0
 40
4
 41
7.111111111111359
 71
    2
 72
    1
  1
DW
  7
standard
210
0
220
0
230
1
 50
0
 73
    2
 44
1
  0
INSERT
  5
376
100
AcDbEntity
  8
schematic
  6
ByLayer
 62
  256
370
   -1
100
AcDbBlockReference
  2
2vd1-0
 10
232
 20
70
 30
0
 41
1
 42
1
 43
0
 50
0
 70
    1
 71
    1
 44
0
 45
0
  0
INSERT
  5
377
100
AcDbEntity
  8
schematic
  6
ByLayer
 62
  256
370
   -1
100
AcDbBlockReference
  2
2vd1-1
 10
247
 20
70
 30
0
 41
1
 42
1
 43
0
 50
0
 70
    1
 71
    1
 44
0
 45
0
  0
LINE
  5
378
100
AcDbEntity
  8
schematic
  6
ByLayer
 62
  256
370
   -1
100
AcDbLine
 10
232
 20
70
 11
232
 21
81
  0
LINE
  5
379
100
AcDbEntity
  8
schematic
  6
ByLayer
 62
  256
370
   -1
100
AcDbLine
 10
247
 20
70
 11
247
 21
81
  0
MTEXT
  5
37A
100
AcDbEntity
  8
labels
  6
ByLayer
 62
  256
370
   -1
100
AcDbMText
 10
230
 20
87
 30
0
 40
3
 41
4.000000000000186
 71
    1
 72
    1
  1
46
  7
standard
210
0
220
0
230
1
 50
0
 73
    2
 44
1
  0
MTEXT
  5
37B
100
AcDbEntity
  8
labels
  6
ByLayer
 62
  256
370
   -1
100
AcDbMText
 10
245
 20
87
 30
0
 40
3
 41
4.000000000000186
 71
    1
 72
    1
  1
45
  7
standard
210
0
220
0
230
1
 50
0
 73
    2
 44
1
  0
INSERT
  5
37C
100
AcDbEntity
  8
schematic
  6
ByLayer
 62
  256
370
   -1
100
AcDbBlockReference
  2
junction
 10
105
 20
52
 30
0
 41
1
 42
1
 43
0
 50
0
 70
    1
 71
    1
 44
1
 45
1
  0
INSERT
  5
37D
100
AcDbEntity
  8
schematic
  6
ByLayer
 62
  256
370
   -1
100
AcDbBlockReference
  2
junction
 10
333
 20
70
 30
0
 41
1
 42
1
 43
0
 50
0
 70
    1
 71
    1
 44
1
 45
1
  0
INSERT
  5
37E
100
AcDbEntity
  8
schematic
  6
ByLayer
 62
  256
370
   -1
100
AcDbBlockReference
  2
junction
 10
263
 20
70
 30
0
 41
1
 42
1
 43
0
 50
0
 70
    1
 71
    1
 44
1
 45
1
  0
LINE
  5
37F
100
AcDbEntity
  8
0
  6
ByLayer
 62
  256
370
   -1
100
AcDbLine
 10
20.2439637827
 20
286.604502012
 11
408.749245473
 21
286.604502012
  0
LINE
  5
380
100
AcDbEntity
  8
0
  6
ByLayer
 62
  256
370
   -1
100
AcDbLine
 10
408.749245473
 20
286.604502012
 11
408.749245473
 21
13.1344315895
  0
LINE
  5
381
100
AcDbEntity
  8
0
  6
ByLayer
 62
  256
370
   -1
100
AcDbLine
 10
408.749245473
 20
13.1344315895
 11
20.2439637827
 21
13.1344315895
  0
LINE
  5
382
100
AcDbEntity
  8
0
  6
ByLayer
 62
  256
370
   -1
100
AcDbLine
 10
20.2439637827
 20
13.1344315895
 11
20.2439637827
 21
286.604502012
  0
LINE
  5
383
100
AcDbEntity
  8
frame-title
  6
ByLayer
 62
  256
370
   -1
100
AcDbLine
 10
299.988682093
 20
55.488304829
 11
408.749245473
 21
55.488304829
  0
LINE
  5
384
100
AcDbEntity
  8
frame-title
  6
ByLayer
 62
  256
370
   -1
100
AcDbLine
 10
299.983715918
 20
13.1344315895
 11
299.983715918
 21
55.488304829
  0
INSERT
  5
385
100
AcDbEntity
  8
frame-title
  6
ByLayer
 62
  256
370
   -1
100
AcDbBlockReference
  2
eca-logo-1
 10
299.160428572
 20
36.1916710262
 30
0
 41
1
 42
1
 43
0
 50
0
 70
    1
 71
    1
 44
0
 45
0
  0
MTEXT
  5
386
100
AcDbEntity
  8
frame-title
  6
ByLayer
 62
  256
370
   -1
100
AcDbMText
 10
332.892935614
 20
52.7902062374
 30
0
 40
3
 41
59.50000154286238
 71
    1
 72
    1
  1
ECA Di Belardi\PVia Dei Crispolti 91-93, Roma\PTel. 0643535861
  7
standard
210
0
220
0
230
1
 50
0
 73
    2
 44
1
  0
INSERT
  5
387
100
AcDbEntity
  8
schematic
  6
ByLayer
 62
  256
370
   -1
100
AcDbBlockReference
  2
mcp2014x-connector
 10
184
 20
82
 30
0
 41
1
 42
1
 43
0
 50
0
 70
    1
 71
    1
 44
1
 45
1
  0
MTEXT
  5
388
100
AcDbEntity
  8
labels
  6
ByLayer
 62
  256
370
   -1
100
AcDbMText
 10
185.02253871
 20
86.1619267918
 30
0
 40
3
 41
3.666666666666852
 71
    1
 72
    1
  1
38
  7
standard
210
0
220
0
230
1
 50
0
 73
    2
 44
1
  0
LINE
  5
389
100
AcDbEntity
  8
schematic
  6
ByLayer
 62
  256
370
   -1
100
AcDbLine
 10
187
 20
70
 11
187
 21
60
  0
LINE
  5
38A
100
AcDbEntity
  8
schematic
  6
ByLayer
 62
  256
370
   -1
100
AcDbLine
 10
187
 20
60
 11
217
 21
60
  0
LINE
  5
38B
100
AcDbEntity
  8
schematic
  6
ByLayer
 62
  256
370
   -1
100
AcDbLine
 10
217
 20
60
 11
217
 21
70
  0
LINE
  5
38C
100
AcDbEntity
  8
schematic
  6
ByLayer
 62
  256
370
   -1
100
AcDbLine
 10
217
 20
70
 11
187
 21
70
  0
LINE
  5
38D
100
AcDbEntity
  8
schematic
  6
ByLayer
 62
  256
370
   -1
100
AcDbLine
 10
172
 20
52
 11
207
 21
52
  0
LINE
  5
38E
100
AcDbEntity
  8
schematic
  6
ByLayer
 62
  256
370
   -1
100
AcDbLine
 10
207
 20
52
 11
207
 21
60
  0
LINE
  5
38F
100
AcDbEntity
  8
schematic
  6
ByLayer
 62
  256
370
   -1
100
AcDbLine
 10
207
 20
70
 11
207
 21
76
  0
LINE
  5
390
100
AcDbEntity
  8
schematic
  6
ByLayer
 62
  256
370
   -1
100
AcDbLine
 10
207
 20
76
 11
187
 21
76
  0
LINE
  5
391
100
AcDbEntity
  8
schematic
  6
ByLayer
 62
  256
370
   -1
100
AcDbLine
 10
187
 20
76
 11
187
 21
81
  0
INSERT
  5
392
100
AcDbEntity
  8
schematic
  6
ByLayer
 62
  256
370
   -1
100
AcDbBlockReference
  2
mcp2014x-connector-3
 10
206.1
 20
67.2
 30
0
 41
0.3
 42
0.3
 43
0
 50
0
 70
    1
 71
    1
 44
0.3
 45
0.3
  0
INSERT
  5
393
100
AcDbEntity
  8
schematic
  6
ByLayer
 62
  256
370
   -1
100
AcDbBlockReference
  2
mcp2014x-connector-3
 10
206.1
 20
61.2
 30
0
 41
0.3
 42
0.3
 43
0
 50
0
 70
    1
 71
    1
 44
0.3
 45
0.3
  0
LINE
  5
394
100
AcDbEntity
  8
schematic
  6
ByLayer
 62
  256
370
   -1
100
AcDbLine
 10
206
 20
68
 11
198
 21
68
  0
LINE
  5
395
100
AcDbEntity
  8
schematic
  6
ByLayer
 62
  256
370
   -1
100
AcDbLine
 10
198
 20
68
 11
198
 21
62
  0
LINE
  5
396
100
AcDbEntity
  8
schematic
  6
ByLayer
 62
  256
370
   -1
100
AcDbLine
 10
198
 20
62
 11
200
 21
62
  0
LINE
  5
397
100
AcDbEntity
  8
schematic
  6
ByLayer
 62
  256
370
   -1
100
AcDbLine
 10
200
 20
62
 11
203
 21
64
  0
LINE
  5
398
100
AcDbEntity
  8
schematic
  6
ByLayer
 62
  256
370
   -1
100
AcDbLine
 10
203
 20
62
 11
206
 21
62
  0
MTEXT
  5
399
100
AcDbEntity
  8
labels
  6
ByLayer
 62
  256
370
   -1
100
AcDbMText
 10
192
 20
68
 30
0
 40
2
 41
8.444444444444443
 71
    2
 72
    1
  1
OMRON\PK8DS
  7
standard
210
0
220
0
230
1
 50
0
 73
    2
 44
1
  0
MTEXT
  5
39A
100
AcDbEntity
  8
labels
  6
ByLayer
 62
  256
370
   -1
100
AcDbMText
 10
210
 20
69
 30
0
 40
2
 41
1.555555555555555
 71
    2
 72
    1
  1
11
  7
standard
210
0
220
0
230
1
 50
0
 73
    2
 44
1
  0
MTEXT
  5
39B
100
AcDbEntity
  8
labels
  6
ByLayer
 62
  256
370
   -1
100
AcDbMText
 10
210.5
 20
62.8
 30
0
 40
2
 41
2.222222222222222
 71
    2
 72
    1
  1
14
  7
standard
210
0
220
0
230
1
 50
0
 73
    2
 44
1
  0
MTEXT
  5
39C
100
AcDbEntity
  8
labels
  6
ByLayer
 62
  256
370
   -1
100
AcDbMText
 10
218.779035433
 20
67.0094734252
 30
0
 40
4
 41
8.444443596436095
 71
    1
 72
    1
  1
CFS
  7
standard
210
0
220
0
230
1
 50
0
 73
    2
 44
1
  0
MTEXT
  5
39D
100
AcDbEntity
  8
labels
  6
ByLayer
 62
  256
370
   -1
100
AcDbMText
 10
223.8888888888889
 20
41
 30
0
 40
4
 41
5.777777777777778
 71
    2
 72
    1
  1
UP
  7
standard
210
0
220
0
230
1
 50
0
 73
    2
 44
1
  0
LINE
  5
39E
100
AcDbEntity
  8
schematic
  6
ByLayer
 62
  256
370
   -1
100
AcDbLine
 10
172
 20
52
 11
172
 21
60
  0
LINE
  5
39F
100
AcDbEntity
  8
schematic
  6
ByLayer
 62
  256
370
   -1
100
AcDbLine
 10
172
 20
60
 11
179
 21
70
  0
LINE
  5
3A0
100
AcDbEntity
  8
schematic
  6
ByLayer
 62
  256
370
   -1
100
AcDbLine
 10
172
 20
70
 11
172
 21
81
  0
INSERT
  5
3A1
100
AcDbEntity
  8
schematic
  6
ByLayer
 62
  256
370
   -1
100
AcDbBlockReference
  2
mcp2014x-connector
 10
169
 20
82
 30
0
 41
1
 42
1
 43
0
 50
0
 70
    1
 71
    1
 44
1
 45
1
  0
MTEXT
  5
3A2
100
AcDbEntity
  8
labels
  6
ByLayer
 62
  256
370
   -1
100
AcDbMText
 10
166
 20
67
 30
0
 40
3
 41
5.333332697327071
 71
    1
 72
    1
  1
DIS
  7
standard
210
0
220
0
230
1
 50
0
 73
    2
 44
1
  0
MTEXT
  5
3A3
100
AcDbEntity
  8
labels
  6
ByLayer
 62
  256
370
   -1
100
AcDbMText
 10
168
 20
74
 30
0
 40
3
 41
3.000000000000186
 71
    1
 72
    1
  1
13
  7
standard
210
0
220
0
230
1
 50
0
 73
    2
 44
1
  0
MTEXT
  5
3A4
100
AcDbEntity
  8
labels
  6
ByLayer
 62
  256
370
   -1
100
AcDbMText
 10
168
 20
59
 30
0
 40
3
 41
3.333333333333333
 71
    1
 72
    1
  1
14
  7
standard
210
0
220
0
230
1
 50
0
 73
    2
 44
1
  0
MTEXT
  5
3A5
100
AcDbEntity
  8
labels
  6
ByLayer
 62
  256
370
   -1
100
AcDbMText
 10
170.02253871
 20
86.1619267918
 30
0
 40
3
 41
4
 71
    1
 72
    1
  1
40
  7
standard
210
0
220
0
230
1
 50
0
 73
    2
 44
1
  0
INSERT
  5
3A6
100
AcDbEntity
  8
schematic
  6
ByLayer
 62
  256
370
   -1
100
AcDbBlockReference
  2
junction
 10
172
 20
52
 30
0
 41
1
 42
1
 43
0
 50
0
 70
    1
 71
    1
 44
1
 45
1
  0
LINE
  5
3A7
100
AcDbEntity
  8
schematic
  6
ByLayer
 62
  256
370
   -1
100
AcDbLine
 10
112
 20
52
 11
112
 21
60
  0
LINE
  5
3A8
100
AcDbEntity
  8
schematic
  6
ByLayer
 62
  256
370
   -1
100
AcDbLine
 10
112
 20
60
 11
119
 21
70
  0
LINE
  5
3A9
100
AcDbEntity
  8
schematic
  6
ByLayer
 62
  256
370
   -1
100
AcDbLine
 10
112
 20
70
 11
112
 21
81
  0
LINE
  5
3AA
100
AcDbEntity
  8
schematic
  6
ByLayer
 62
  256
370
   -1
100
AcDbLine
 10
127
 20
52
 11
127
 21
60
  0
LINE
  5
3AB
100
AcDbEntity
  8
schematic
  6
ByLayer
 62
  256
370
   -1
100
AcDbLine
 10
127
 20
70
 11
127
 21
81
  0
INSERT
  5
3AC
100
AcDbEntity
  8
schematic
  6
ByLayer
 62
  256
370
   -1
100
AcDbBlockReference
  2
mcp2014x-connector
 10
109
 20
82
 30
0
 41
1
 42
1
 43
0
 50
0
 70
    1
 71
    1
 44
1
 45
1
  0
INSERT
  5
3AD
100
AcDbEntity
  8
schematic
  6
ByLayer
 62
  256
370
   -1
100
AcDbBlockReference
  2
mcp2014x-connector
 10
124
 20
82
 30
0
 41
1
 42
1
 43
0
 50
0
 70
    1
 71
    1
 44
1
 45
1
  0
MTEXT
  5
3AE
100
AcDbEntity
  8
labels
  6
ByLayer
 62
  256
370
   -1
100
AcDbMText
 10
121
 20
67
 30
0
 40
3
 41
4.666666666666666
 71
    1
 72
    1
  1
PV
  7
standard
210
0
220
0
230
1
 50
0
 73
    2
 44
1
  0
MTEXT
  5
3AF
100
AcDbEntity
  8
labels
  6
ByLayer
 62
  256
370
   -1
100
AcDbMText
 10
123
 20
74
 30
0
 40
3
 41
3.000000000000186
 71
    1
 72
    1
  1
13
  7
standard
210
0
220
0
230
1
 50
0
 73
    2
 44
1
  0
MTEXT
  5
3B0
100
AcDbEntity
  8
labels
  6
ByLayer
 62
  256
370
   -1
100
AcDbMText
 10
123
 20
59
 30
0
 40
3
 41
3.333333333333333
 71
    1
 72
    1
  1
14
  7
standard
210
0
220
0
230
1
 50
0
 73
    2
 44
1
  0
MTEXT
  5
3B1
100
AcDbEntity
  8
labels
  6
ByLayer
 62
  256
370
   -1
100
AcDbMText
 10
110.638884571
 20
86.7974922449
 30
0
 40
3
 41
3.333333333333333
 71
    1
 72
    1
  1
41
  7
standard
210
0
220
0
230
1
 50
0
 73
    2
 44
1
  0
MTEXT
  5
3B2
100
AcDbEntity
  8
labels
  6
ByLayer
 62
  256
370
   -1
100
AcDbMText
 10
124.83317969
 20
86.4797095184
 30
0
 40
3
 41
4
 71
    1
 72
    1
  1
42
  7
standard
210
0
220
0
230
1
 50
0
 73
    2
 44
1
  0
MTEXT
  5
3B3
100
AcDbEntity
  8
labels
  6
ByLayer
 62
  256
370
   -1
100
AcDbMText
 10
108
 20
77
 30
0
 40
2.5
 41
3.333332777777933
 71
    2
 72
    1
  1
13\P(3)
  7
standard
210
0
220
0
230
1
 50
0
 73
    2
 44
1
  0
MTEXT
  5
3B4
100
AcDbEntity
  8
labels
  6
ByLayer
 62
  256
370
   -1
100
AcDbMText
 10
105
 20
69
 30
0
 40
2.5
 41
10.83333277777778
 71
    2
 72
    1
  1
P\P(AUX4)
  7
standard
210
0
220
0
230
1
 50
0
 73
    2
 44
1
  0
MTEXT
  5
3B5
100
AcDbEntity
  8
labels
  6
ByLayer
 62
  256
370
   -1
100
AcDbMText
 10
106
 20
60
 30
0
 40
2.5
 41
3.611110555555556
 71
    1
 72
    1
  1
14\P(4)
  7
standard
210
0
220
0
230
1
 50
0
 73
    2
 44
1
  0
INSERT
  5
3B6
100
AcDbEntity
  8
schematic
  6
ByLayer
 62
  256
370
   -1
100
AcDbBlockReference
  2
junction
 10
112
 20
52
 30
0
 41
1
 42
1
 43
0
 50
0
 70
    1
 71
    1
 44
1
 45
1
  0
INSERT
  5
3B7
100
AcDbEntity
  8
schematic
  6
ByLayer
 62
  256
370
   -1
100
AcDbBlockReference
  2
junction
 10
127
 20
52
 30
0
 41
1
 42
1
 43
0
 50
0
 70
    1
 71
    1
 44
1
 45
1
  0
LINE
  5
3B8
100
AcDbEntity
  8
schematic
  6
ByLayer
 62
  256
370
   -1
100
AcDbLine
 10
127
 20
60
 11
134
 21
70
  0
LINE
  5
3B9
100
AcDbEntity
  8
schematic
  6
ByLayer
 62
  256
370
   -1
100
AcDbLine
 10
144
 20
52
 11
144
 21
60
  0
LINE
  5
3BA
100
AcDbEntity
  8
schematic
  6
ByLayer
 62
  256
370
   -1
100
AcDbLine
 10
144
 20
60
 11
151
 21
70
  0
LINE
  5
3BB
100
AcDbEntity
  8
schematic
  6
ByLayer
 62
  256
370
   -1
100
AcDbLine
 10
144
 20
70
 11
144
 21
81
  0
INSERT
  5
3BC
100
AcDbEntity
  8
schematic
  6
ByLayer
 62
  256
370
   -1
100
AcDbBlockReference
  2
mcp2014x-connector
 10
141
 20
82
 30
0
 41
1
 42
1
 43
0
 50
0
 70
    1
 71
    1
 44
1
 45
1
  0
MTEXT
  5
3BD
100
AcDbEntity
  8
labels
  6
ByLayer
 62
  256
370
   -1
100
AcDbMText
 10
142.510460865
 20
86.4797095184
 30
0
 40
3
 41
3.666666666666853
 71
    1
 72
    1
  1
39
  7
standard
210
0
220
0
230
1
 50
0
 73
    2
 44
1
  0
MTEXT
  5
3BE
100
AcDbEntity
  8
labels
  6
ByLayer
 62
  256
370
   -1
100
AcDbMText
 10
139
 20
78
 30
0
 40
2.5
 41
3.333332777777933
 71
    1
 72
    1
  1
13\P(3)
  7
standard
210
0
220
0
230
1
 50
0
 73
    2
 44
1
  0
MTEXT
  5
3BF
100
AcDbEntity
  8
labels
  6
ByLayer
 62
  256
370
   -1
100
AcDbMText
 10
139
 20
69
 30
0
 40
2.5
 41
10.83333277777778
 71
    2
 72
    1
  1
SAL\P(AUX4)
  7
standard
210
0
220
0
230
1
 50
0
 73
    2
 44
1
  0
MTEXT
  5
3C0
100
AcDbEntity
  8
labels
  6
ByLayer
 62
  256
370
   -1
100
AcDbMText
 10
139
 20
60
 30
0
 40
2.5
 41
3.611110555555556
 71
    1
 72
    1
  1
14\P(4)
  7
standard
210
0
220
0
230
1
 50
0
 73
    2
 44
1
  0
INSERT
  5
3C1
100
AcDbEntity
  8
schematic
  6
ByLayer
 62
  256
370
   -1
100
AcDbBlockReference
  2
junction
 10
144
 20
52
 30
0
 41
1
 42
1
 43
0
 50
0
 70
    1
 71
    1
 44
1
 45
1
  0
LINE
  5
3C2
100
AcDbEntity
  8
schematic
  6
ByLayer
 62
  256
370
   -1
100
AcDbLine
 10
160
 20
52
 11
160
 21
60
  0
LINE
  5
3C3
100
AcDbEntity
  8
schematic
  6
ByLayer
 62
  256
370
   -1
100
AcDbLine
 10
160
 20
60
 11
167
 21
70
  0
INSERT
  5
3C4
100
AcDbEntity
  8
schematic
  6
ByLayer
 62
  256
370
   -1
100
AcDbBlockReference
  2
junction
 10
160
 20
52
 30
0
 41
1
 42
1
 43
0
 50
0
 70
    1
 71
    1
 44
1
 45
1
  0
LINE
  5
3C5
100
AcDbEntity
  8
schematic
  6
ByLayer
 62
  256
370
   -1
100
AcDbLine
 10
150
 20
52
 11
172
 21
52
  0
LINE
  5
3C6
100
AcDbEntity
  8
schematic
  6
ByLayer
 62
  256
370
   -1
100
AcDbLine
 10
160
 20
70
 11
160
 21
76
  0
LINE
  5
3C7
100
AcDbEntity
  8
schematic
  6
ByLayer
 62
  256
370
   -1
100
AcDbLine
 10
160
 20
76
 11
144
 21
76
  0
INSERT
  5
3C8
100
AcDbEntity
  8
schematic
  6
ByLayer
 62
  256
370
   -1
100
AcDbBlockReference
  2
junction
 10
144
 20
76
 30
0
 41
1
 42
1
 43
0
 50
0
 70
    1
 71
    1
 44
1
 45
1
  0
MTEXT
  5
3C9
100
AcDbEntity
  8
labels
  6
ByLayer
 62
  256
370
   -1
100
AcDbMText
 10
155
 20
69
 30
0
 40
2.5
 41
10.555555
 71
    2
 72
    1
  1
Y\P(AUX2)
  7
standard
210
0
220
0
230
1
 50
0
 73
    2
 44
1
  0
MTEXT
  5
3CA
100
AcDbEntity
  8
labels
  6
ByLayer
 62
  256
370
   -1
100
AcDbMText
 10
157
 20
74.5
 30
0
 40
2.5
 41
1.111111111111266
 71
    1
 72
    1
  1
3
  7
standard
210
0
220
0
230
1
 50
0
 73
    2
 44
1
  0
MTEXT
  5
3CB
100
AcDbEntity
  8
labels
  6
ByLayer
 62
  256
370
   -1
100
AcDbMText
 10
157
 20
59.5
 30
0
 40
2.5
 41
1.388888888888889
 71
    1
 72
    1
  1
4
  7
standard
210
0
220
0
230
1
 50
0
 73
    2
 44
1
  0
LWPOLYLINE
  5
3CC
100
AcDbEntity
  8
labels
  6
DOTTINY
 62
  256
370
   -1
100
AcDbPolyline
 90
    5
 70
    1
 43
0
 10
322.461919957
 20
65.6338421152
 10
342.080731459
 20
65.6338421152
 10
342.080731459
 20
226.151390766
 10
322.461919957
 20
226.151390766
 10
322.461919957
 20
226.151390766
  0
LINE
  5
3CD
100
AcDbEntity
  8
schematic
  6
ByLayer
 62
  256
370
   -1
100
AcDbLine
 10
308
 20
218
 11
399.2
 21
218
  0
INSERT
  5
3CE
100
AcDbEntity
  8
schematic
  6
ByLayer
 62
  256
370
   -1
100
AcDbBlockReference
  2
junction
 10
308
 20
218
 30
0
 41
1
 42
1
 43
0
 50
0
 70
    1
 71
    1
 44
1
 45
1
  0
INSERT
  5
3CF
100
AcDbEntity
  8
schematic
  6
ByLayer
 62
  256
370
   -1
100
AcDbBlockReference
  2
junction
 10
333
 20
218
 30
0
 41
1
 42
1
 43
0
 50
0
 70
    1
 71
    1
 44
1
 45
1
  0
INSERT
  5
3D0
100
AcDbEntity
  8
schematic
  6
ByLayer
 62
  256
370
   -1
100
AcDbBlockReference
  2
junction
 10
351
 20
218
 30
0
 41
1
 42
1
 43
0
 50
0
 70
    1
 71
    1
 44
1
 45
1
  0
INSERT
  5
3D1
100
AcDbEntity
  8
schematic
  6
ByLayer
 62
  256
370
   -1
100
AcDbBlockReference
  2
junction
 10
367
 20
218
 30
0
 41
1
 42
1
 43
0
 50
0
 70
    1
 71
    1
 44
1
 45
1
  0
INSERT
  5
3D2
100
AcDbEntity
  8
schematic
  6
ByLayer
 62
  256
370
   -1
100
AcDbBlockReference
  2
junction
 10
384
 20
218
 30
0
 41
1
 42
1
 43
0
 50
0
 70
    1
 71
    1
 44
1
 45
1
  0
LINE
  5
3D3
100
AcDbEntity
  8
schematic
  6
ByLayer
 62
  256
370
   -1
100
AcDbLine
 10
332.696131636
 20
199.504432588
 11
332.696131636
 21
218
  0
LINE
  5
3D4
100
AcDbEntity
  8
schematic
  6
ByLayer
 62
  256
370
   -1
100
AcDbLine
 10
350.959461616
 20
199.504432588
 11
350.959461616
 21
218
  0
LINE
  5
3D5
100
AcDbEntity
  8
schematic
  6
ByLayer
 62
  256
370
   -1
100
AcDbLine
 10
366.94157551
 20
199.670261224
 11
366.94157551
 21
218
  0
LINE
  5
3D6
100
AcDbEntity
  8
schematic
  6
ByLayer
 62
  256
370
   -1
100
AcDbLine
 10
399.2
 20
199.4
 11
399.2
 21
218
  0
LINE
  5
3D7
100
AcDbEntity
  8
schematic
  6
ByLayer
 62
  256
370
   -1
100
AcDbLine
 10
384
 20
200
 11
384
 21
205
  0
LINE
  5
3D8
100
AcDbEntity
  8
schematic
  6
ByLayer
 62
  256
370
   -1
100
AcDbLine
 10
384
 20
205
 11
387
 21
210
  0
LINE
  5
3D9
100
AcDbEntity
  8
schematic
  6
ByLayer
 62
  256
370
   -1
100
AcDbLine
 10
384
 20
210
 11
384
 21
218
  0
LINE
  5
3DA
100
AcDbEntity
  8
schematic
  6
ByLayer
 62
  256
370
   -1
100
AcDbLine
 10
387
 20
210
 11
384
 21
210
  0
MTEXT
  5
3DB
100
AcDbEntity
  8
labels
  6
ByLayer
 62
  256
370
   -1
100
AcDbMText
 10
382
 20
214
 30
0
 40
2
 41
0.4444444444444444
 71
    1
 72
    1
  1
1
  7
standard
210
0
220
0
230
1
 50
0
 73
    2
 44
1
  0
MTEXT
  5
3DC
100
AcDbEntity
  8
labels
  6
ByLayer
 62
  256
370
   -1
100
AcDbMText
 10
379.3333331111111
 20
211.3333333333333
 30
0
 40
2
 41
7.999999555555556
 71
    2
 72
    1
  1
Y\P(AUX1)
  7
standard
210
0
220
0
230
1
 50
0
 73
    2
 44
1
  0
MTEXT
  5
3DD
100
AcDbEntity
  8
labels
  6
ByLayer
 62
  256
370
   -1
100
AcDbMText
 10
382
 20
204
 30
0
 40
2
 41
0.8888888888888888
 71
    1
 72
    1
  1
2
  7
standard
210
0
220
0
230
1
 50
0
 73
    2
 44
1
  0
MTEXT
  5
3DE
100
AcDbEntity
  8
frame-title
  6
ByLayer
 62
  256
370
   -1
100
AcDbMText
 10
304
 20
36
 30
0
 40
3
 41
33.5833326973273
 71
    1
 72
    1
  1
Schema: MC-OL12\PFoglio: 2 di 18
  7
standard
210
0
220
0
230
1
 50
0
 73
    2
 44
1
  0
ENDSEC
  0
SECTION
  2
OBJECTS
  0
DICTIONARY
  5
C
330
0
100
AcDbDictionary
281
    1
  3
ACAD_GROUP
350
D
  0
DICTIONARY
  5
D
330
C
100
AcDbDictionary
281
    1
  0
ENDSEC
  0
EOF
